ISO-10303-21;
HEADER;
FILE_DESCRIPTION (( 'STEP AP214' ),
    '1' );
FILE_NAME ('pulsador smd.STEP',
    '2023-06-26T20:31:18',
    ( '' ),
    ( '' ),
    'SwSTEP 2.0',
    'SolidWorks 2020',
    '' );
FILE_SCHEMA (( 'AUTOMOTIVE_DESIGN' ));
ENDSEC;

DATA;
#1 = FACE_OUTER_BOUND ( 'NONE', #403, .T. ) ;
#2 = MECHANICAL_DESIGN_GEOMETRIC_PRESENTATION_REPRESENTATION (  '', ( #659 ), #392 ) ;
#3 = UNCERTAINTY_MEASURE_WITH_UNIT (LENGTH_MEASURE( 1.000000000000000082E-05 ), #732, 'distance_accuracy_value', 'NONE');
#4 = VERTEX_POINT ( 'NONE', #113 ) ;
#5 = ORIENTED_EDGE ( 'NONE', *, *, #597, .F. ) ;
#6 = CARTESIAN_POINT ( 'NONE',  ( 3.000000000000000000, -1.749999999999999778, 0.000000000000000000 ) ) ;
#7 = EDGE_LOOP ( 'NONE', ( #1030, #736, #1013, #791 ) ) ;
#8 = EDGE_CURVE ( 'NONE', #558, #71, #763, .T. ) ;
#9 = ORIENTED_EDGE ( 'NONE', *, *, #970, .T. ) ;
#10 =( GEOMETRIC_REPRESENTATION_CONTEXT ( 3 ) GLOBAL_UNCERTAINTY_ASSIGNED_CONTEXT ( ( #177 ) ) GLOBAL_UNIT_ASSIGNED_CONTEXT ( ( #591, #869, #786 ) ) REPRESENTATION_CONTEXT ( 'NONE', 'WORKASPACE' ) );
#11 = LINE ( 'NONE', #968, #553 ) ;
#12 = STYLED_ITEM ( 'NONE', ( #526 ), #844 ) ;
#13 = SURFACE_STYLE_FILL_AREA ( #586 ) ;
#14 = ORIENTED_EDGE ( 'NONE', *, *, #372, .T. ) ;
#15 = DIRECTION ( 'NONE',  ( 1.000000000000000000, 0.000000000000000000, 0.000000000000000000 ) ) ;
#16 = DIRECTION ( 'NONE',  ( -0.000000000000000000, -0.000000000000000000, -1.000000000000000000 ) ) ;
#17 = VECTOR ( 'NONE', #690, 1000.000000000000000 ) ;
#18 = VECTOR ( 'NONE', #946, 1000.000000000000000 ) ;
#19 = CARTESIAN_POINT ( 'NONE',  ( 2.712419157981264206, 0.000000000000000000, 3.700000000000000178 ) ) ;
#20 = PRESENTATION_LAYER_ASSIGNMENT (  '', '', ( #217 ) ) ;
#21 = ORIENTED_EDGE ( 'NONE', *, *, #1033, .T. ) ;
#22 = LINE ( 'NONE', #387, #238 ) ;
#23 =( NAMED_UNIT ( * ) SI_UNIT ( $, .STERADIAN. ) SOLID_ANGLE_UNIT ( ) );
#24 = EDGE_CURVE ( 'NONE', #358, #79, #578, .T. ) ;
#25 = EDGE_CURVE ( 'NONE', #945, #563, #689, .T. ) ;
#26 = PRESENTATION_STYLE_ASSIGNMENT (( #486 ) ) ;
#27 = DIRECTION ( 'NONE',  ( 0.000000000000000000, -1.000000000000000000, 0.000000000000000000 ) ) ;
#28 = ORIENTED_EDGE ( 'NONE', *, *, #899, .T. ) ;
#29 = PRESENTATION_STYLE_ASSIGNMENT (( #696 ) ) ;
#30 = DIRECTION ( 'NONE',  ( 0.000000000000000000, 1.000000000000000000, 0.000000000000000000 ) ) ;
#31 = EDGE_CURVE ( 'NONE', #358, #133, #1043, .T. ) ;
#32 = FACE_OUTER_BOUND ( 'NONE', #604, .T. ) ;
#33 = EDGE_LOOP ( 'NONE', ( #479, #496, #364, #187 ) ) ;
#34 = PRESENTATION_STYLE_ASSIGNMENT (( #717 ) ) ;
#35 = LINE ( 'NONE', #779, #179 ) ;
#36 = SURFACE_STYLE_USAGE ( .BOTH. , #799 ) ;
#37 = SURFACE_STYLE_USAGE ( .BOTH. , #137 ) ;
#38 =( NAMED_UNIT ( * ) PLANE_ANGLE_UNIT ( ) SI_UNIT ( $, .RADIAN. ) );
#39 = VECTOR ( 'NONE', #1177, 1000.000000000000000 ) ;
#40 = AXIS2_PLACEMENT_3D ( 'NONE', #1207, #377, #956 ) ;
#41 =( NAMED_UNIT ( * ) PLANE_ANGLE_UNIT ( ) SI_UNIT ( $, .RADIAN. ) );
#42 = EDGE_CURVE ( 'NONE', #79, #482, #772, .T. ) ;
#43 = DIRECTION ( 'NONE',  ( 4.818676322157797375E-16, -1.000000000000000000, 0.000000000000000000 ) ) ;
#44 = VECTOR ( 'NONE', #879, 1000.000000000000000 ) ;
#45 =( LENGTH_UNIT ( ) NAMED_UNIT ( * ) SI_UNIT ( .MILLI., .METRE. ) );
#46 = PLANE ( 'NONE',  #466 ) ;
#47 = FILL_AREA_STYLE ('',( #607 ) ) ;
#48 = CARTESIAN_POINT ( 'NONE',  ( 2.199934432279735397, 0.000000000000000000, 3.200000000000000178 ) ) ;
#49 = FILL_AREA_STYLE_COLOUR ( '', #679 ) ;
#50 = EDGE_CURVE ( 'NONE', #928, #1038, #282, .T. ) ;
#51 = CARTESIAN_POINT ( 'NONE',  ( -2.199934432279735397, 0.7000000000000000666, 3.700000000000000178 ) ) ;
#52 = CARTESIAN_POINT ( 'NONE',  ( -3.000000000000000000, -1.749999999999999778, 0.000000000000000000 ) ) ;
#53 = FILL_AREA_STYLE_COLOUR ( '', #710 ) ;
#54 = MECHANICAL_DESIGN_GEOMETRIC_PRESENTATION_REPRESENTATION (  '', ( #405 ), #348 ) ;
#55 = CARTESIAN_POINT ( 'NONE',  ( -2.712419157981264206, 0.000000000000000000, 3.200000000000000178 ) ) ;
#56 = CARTESIAN_POINT ( 'NONE',  ( 2.199934432279735397, -0.7000000000000000666, 3.700000000000000178 ) ) ;
#57 = SURFACE_STYLE_USAGE ( .BOTH. , #326 ) ;
#58 = DIRECTION ( 'NONE',  ( 0.000000000000000000, 1.000000000000000000, 0.000000000000000000 ) ) ;
#59 = VERTEX_POINT ( 'NONE', #475 ) ;
#60 =( NAMED_UNIT ( * ) PLANE_ANGLE_UNIT ( ) SI_UNIT ( $, .RADIAN. ) );
#61 = AXIS2_PLACEMENT_3D ( 'NONE', #571, #1123, #1106 ) ;
#62 = SURFACE_SIDE_STYLE ('',( #1205 ) ) ;
#63 =( GEOMETRIC_REPRESENTATION_CONTEXT ( 3 ) GLOBAL_UNCERTAINTY_ASSIGNED_CONTEXT ( ( #384 ) ) GLOBAL_UNIT_ASSIGNED_CONTEXT ( ( #402, #41, #866 ) ) REPRESENTATION_CONTEXT ( 'NONE', 'WORKASPACE' ) );
#64 = FACE_OUTER_BOUND ( 'NONE', #826, .T. ) ;
#65 = EDGE_CURVE ( 'NONE', #564, #641, #489, .T. ) ;
#66 = FILL_AREA_STYLE_COLOUR ( '', #934 ) ;
#67 = UNCERTAINTY_MEASURE_WITH_UNIT (LENGTH_MEASURE( 1.000000000000000082E-05 ), #809, 'distance_accuracy_value', 'NONE');
#68 = PRESENTATION_STYLE_ASSIGNMENT (( #1104 ) ) ;
#69 = EDGE_CURVE ( 'NONE', #1137, #120, #584, .T. ) ;
#70 = CARTESIAN_POINT ( 'NONE',  ( -3.000000000000000000, 0.4500000000000005662, 1.000000000000000000 ) ) ;
#71 = VERTEX_POINT ( 'NONE', #589 ) ;
#72 =( LENGTH_UNIT ( ) NAMED_UNIT ( * ) SI_UNIT ( .MILLI., .METRE. ) );
#73 = FILL_AREA_STYLE_COLOUR ( '', #764 ) ;
#74 = ADVANCED_FACE ( 'NONE', ( #1039 ), #1127, .F. ) ;
#75 = PRESENTATION_LAYER_ASSIGNMENT (  '', '', ( #227 ) ) ;
#76 = VECTOR ( 'NONE', #314, 1000.000000000000000 ) ;
#77 =( NAMED_UNIT ( * ) SI_UNIT ( $, .STERADIAN. ) SOLID_ANGLE_UNIT ( ) );
#78 = ORIENTED_EDGE ( 'NONE', *, *, #899, .F. ) ;
#79 = VERTEX_POINT ( 'NONE', #861 ) ;
#80 = PLANE ( 'NONE',  #366 ) ;
#81 = SURFACE_STYLE_FILL_AREA ( #923 ) ;
#82 = ORIENTED_EDGE ( 'NONE', *, *, #675, .T. ) ;
#83 = AXIS2_PLACEMENT_3D ( 'NONE', #225, #325, #1149 ) ;
#84 = ORIENTED_EDGE ( 'NONE', *, *, #1200, .T. ) ;
#85 = STYLED_ITEM ( 'NONE', ( #125 ), #506 ) ;
#86 = ORIENTED_EDGE ( 'NONE', *, *, #1069, .F. ) ;
#87 = VERTEX_POINT ( 'NONE', #570 ) ;
#88 = EDGE_CURVE ( 'NONE', #508, #292, #22, .T. ) ;
#89 = CARTESIAN_POINT ( 'NONE',  ( 0.000000000000000000, 0.7000000000000000666, 3.700000000000000178 ) ) ;
#90 = UNCERTAINTY_MEASURE_WITH_UNIT (LENGTH_MEASURE( 1.000000000000000082E-05 ), #1048, 'distance_accuracy_value', 'NONE');
#91 =( GEOMETRIC_REPRESENTATION_CONTEXT ( 3 ) GLOBAL_UNCERTAINTY_ASSIGNED_CONTEXT ( ( #573 ) ) GLOBAL_UNIT_ASSIGNED_CONTEXT ( ( #155, #352, #77 ) ) REPRESENTATION_CONTEXT ( 'NONE', 'WORKASPACE' ) );
#92 = ORIENTED_EDGE ( 'NONE', *, *, #687, .F. ) ;
#93 = ORIENTED_EDGE ( 'NONE', *, *, #350, .T. ) ;
#94 =( NAMED_UNIT ( * ) SI_UNIT ( $, .STERADIAN. ) SOLID_ANGLE_UNIT ( ) );
#95 = VERTEX_POINT ( 'NONE', #398 ) ;
#96 = CARTESIAN_POINT ( 'NONE',  ( -3.000000000000000000, -1.749999999999999778, 0.000000000000000000 ) ) ;
#97 = VECTOR ( 'NONE', #231, 1000.000000000000000 ) ;
#98 = STYLED_ITEM ( 'NONE', ( #29 ), #122 ) ;
#99 =( LENGTH_UNIT ( ) NAMED_UNIT ( * ) SI_UNIT ( .MILLI., .METRE. ) );
#100 = EDGE_CURVE ( 'NONE', #180, #1206, #197, .T. ) ;
#101 = UNCERTAINTY_MEASURE_WITH_UNIT (LENGTH_MEASURE( 1.000000000000000082E-05 ), #266, 'distance_accuracy_value', 'NONE');
#102 = ORIENTED_EDGE ( 'NONE', *, *, #729, .T. ) ;
#103 = EDGE_LOOP ( 'NONE', ( #205, #1019, #280, #771 ) ) ;
#104 = FILL_AREA_STYLE ('',( #305 ) ) ;
#105 =( NAMED_UNIT ( * ) SI_UNIT ( $, .STERADIAN. ) SOLID_ANGLE_UNIT ( ) );
#106 = ORIENTED_EDGE ( 'NONE', *, *, #42, .F. ) ;
#107 = PRODUCT ( 'pulsador smd', 'pulsador smd', '', ( #707 ) ) ;
#108 = FACE_BOUND ( 'NONE', #7, .T. ) ;
#109 = MECHANICAL_DESIGN_GEOMETRIC_PRESENTATION_REPRESENTATION (  '', ( #129 ), #251 ) ;
#110 = CARTESIAN_POINT ( 'NONE',  ( 3.599901648419603806, 1.734676083533636884E-15, 1.000000000000000000 ) ) ;
#111 = DIRECTION ( 'NONE',  ( 0.000000000000000000, -1.000000000000000000, 0.000000000000000000 ) ) ;
#112 = ORIENTED_EDGE ( 'NONE', *, *, #1197, .T. ) ;
#113 = CARTESIAN_POINT ( 'NONE',  ( 1.500000000000000444, -0.7000000000000000666, 3.200000000000000178 ) ) ;
#114 = ADVANCED_FACE ( 'NONE', ( #767, #108, #514, #1056 ), #967, .T. ) ;
#115 =( NAMED_UNIT ( * ) PLANE_ANGLE_UNIT ( ) SI_UNIT ( $, .RADIAN. ) );
#116 = COLOUR_RGB ( '',0.2509803921568627416, 0.2509803921568627416, 0.2509803921568627416 ) ;
#117 = FILL_AREA_STYLE ('',( #389 ) ) ;
#118 = COLOUR_RGB ( '',0.2509803921568627416, 0.2509803921568627416, 0.2509803921568627416 ) ;
#119 = ORIENTED_EDGE ( 'NONE', *, *, #906, .T. ) ;
#120 = VERTEX_POINT ( 'NONE', #404 ) ;
#121 =( LENGTH_UNIT ( ) NAMED_UNIT ( * ) SI_UNIT ( .MILLI., .METRE. ) );
#122 = ADVANCED_FACE ( 'NONE', ( #310 ), #616, .T. ) ;
#123 = LINE ( 'NONE', #870, #76 ) ;
#124 = SURFACE_SIDE_STYLE ('',( #853 ) ) ;
#125 = PRESENTATION_STYLE_ASSIGNMENT (( #239 ) ) ;
#126 = ORIENTED_EDGE ( 'NONE', *, *, #449, .T. ) ;
#127 =( NAMED_UNIT ( * ) PLANE_ANGLE_UNIT ( ) SI_UNIT ( $, .RADIAN. ) );
#128 = DIRECTION ( 'NONE',  ( -0.000000000000000000, -0.000000000000000000, -1.000000000000000000 ) ) ;
#129 = STYLED_ITEM ( 'NONE', ( #744 ), #782 ) ;
#130 = EDGE_CURVE ( 'NONE', #746, #87, #1160, .T. ) ;
#131 = FACE_OUTER_BOUND ( 'NONE', #656, .T. ) ;
#132 = LINE ( 'NONE', #520, #417 ) ;
#133 = VERTEX_POINT ( 'NONE', #423 ) ;
#134 = DIRECTION ( 'NONE',  ( -0.000000000000000000, -0.000000000000000000, -1.000000000000000000 ) ) ;
#135 = CARTESIAN_POINT ( 'NONE',  ( -3.599901648419603806, 1.734676083533636884E-15, 1.000000000000000000 ) ) ;
#136 = FILL_AREA_STYLE ('',( #420 ) ) ;
#137 = SURFACE_SIDE_STYLE ('',( #512 ) ) ;
#138 = CARTESIAN_POINT ( 'NONE',  ( 2.199934432279735397, 0.7000000000000000666, 3.700000000000000178 ) ) ;
#139 =( NAMED_UNIT ( * ) SI_UNIT ( $, .STERADIAN. ) SOLID_ANGLE_UNIT ( ) );
#140 = CARTESIAN_POINT ( 'NONE',  ( 1.500000000000000000, 0.6999999999999998446, 4.200000000000000178 ) ) ;
#141 = DIRECTION ( 'NONE',  ( 0.000000000000000000, 0.000000000000000000, -1.000000000000000000 ) ) ;
#142 = LINE ( 'NONE', #863, #916 ) ;
#143 = CARTESIAN_POINT ( 'NONE',  ( -3.000000000000000000, 1.750000000000000222, 0.000000000000000000 ) ) ;
#144 = CARTESIAN_POINT ( 'NONE',  ( -3.000000000000000000, 1.750000000000000222, 3.000000000000000000 ) ) ;
#145 = FILL_AREA_STYLE_COLOUR ( '', #118 ) ;
#146 = LINE ( 'NONE', #337, #831 ) ;
#147 =( NAMED_UNIT ( * ) SI_UNIT ( $, .STERADIAN. ) SOLID_ANGLE_UNIT ( ) );
#148 = CARTESIAN_POINT ( 'NONE',  ( 3.000000000000000000, 1.750000000000000222, 3.200000000000000178 ) ) ;
#149 = DIRECTION ( 'NONE',  ( -1.000000000000000000, -0.000000000000000000, -0.000000000000000000 ) ) ;
#150 = MECHANICAL_DESIGN_GEOMETRIC_PRESENTATION_REPRESENTATION (  '', ( #327 ), #10 ) ;
#151 = DIRECTION ( 'NONE',  ( 1.548860246407863583E-16, -1.000000000000000000, 0.000000000000000000 ) ) ;
#152 =( LENGTH_UNIT ( ) NAMED_UNIT ( * ) SI_UNIT ( .MILLI., .METRE. ) );
#153 = PRODUCT_DEFINITION ( 'UNKNOWN', '', #1116, #631 ) ;
#154 = CARTESIAN_POINT ( 'NONE',  ( 3.000000000000000000, -1.749999999999999778, 3.200000000000000178 ) ) ;
#155 =( LENGTH_UNIT ( ) NAMED_UNIT ( * ) SI_UNIT ( .MILLI., .METRE. ) );
#156 = EDGE_CURVE ( 'NONE', #977, #180, #984, .T. ) ;
#157 = DIRECTION ( 'NONE',  ( 1.000000000000000000, 0.000000000000000000, 0.000000000000000000 ) ) ;
#158 = PRESENTATION_STYLE_ASSIGNMENT (( #1000 ) ) ;
#159 = PRESENTATION_STYLE_ASSIGNMENT (( #908 ) ) ;
#160 = CARTESIAN_POINT ( 'NONE',  ( 0.000000000000000000, -0.4499999999999994560, -0.000000000000000000 ) ) ;
#161 = COLOUR_RGB ( '',0.2509803921568627416, 0.2509803921568627416, 0.2509803921568627416 ) ;
#162 = DIRECTION ( 'NONE',  ( -0.000000000000000000, -0.000000000000000000, -1.000000000000000000 ) ) ;
#163 = LINE ( 'NONE', #1088, #1165 ) ;
#164 = ORIENTED_EDGE ( 'NONE', *, *, #100, .F. ) ;
#165 = LINE ( 'NONE', #904, #228 ) ;
#166 = FACE_OUTER_BOUND ( 'NONE', #1202, .T. ) ;
#167 = EDGE_CURVE ( 'NONE', #87, #391, #521, .T. ) ;
#168 = FILL_AREA_STYLE_COLOUR ( '', #618 ) ;
#169 = LINE ( 'NONE', #160, #39 ) ;
#170 =( NAMED_UNIT ( * ) SI_UNIT ( $, .STERADIAN. ) SOLID_ANGLE_UNIT ( ) );
#171 = ORIENTED_EDGE ( 'NONE', *, *, #729, .F. ) ;
#172 = LINE ( 'NONE', #539, #636 ) ;
#173 = CARTESIAN_POINT ( 'NONE',  ( 2.199934432279735397, 0.000000000000000000, 3.700000000000000178 ) ) ;
#174 = AXIS2_PLACEMENT_3D ( 'NONE', #1185, #431, #543 ) ;
#175 = AXIS2_PLACEMENT_3D ( 'NONE', #221, #969, #963 ) ;
#176 = ORIENTED_EDGE ( 'NONE', *, *, #42, .T. ) ;
#177 = UNCERTAINTY_MEASURE_WITH_UNIT (LENGTH_MEASURE( 1.000000000000000082E-05 ), #591, 'distance_accuracy_value', 'NONE');
#178 = EDGE_CURVE ( 'NONE', #317, #209, #1173, .T. ) ;
#179 = VECTOR ( 'NONE', #128, 1000.000000000000000 ) ;
#180 = VERTEX_POINT ( 'NONE', #419 ) ;
#181 = VECTOR ( 'NONE', #299, 1000.000000000000000 ) ;
#182 = VERTEX_POINT ( 'NONE', #339 ) ;
#183 = DIRECTION ( 'NONE',  ( -1.548860246407863583E-16, 1.000000000000000000, 0.000000000000000000 ) ) ;
#184 = EDGE_LOOP ( 'NONE', ( #112, #933, #484, #176 ) ) ;
#185 =( LENGTH_UNIT ( ) NAMED_UNIT ( * ) SI_UNIT ( .MILLI., .METRE. ) );
#186 = ORIENTED_EDGE ( 'NONE', *, *, #50, .F. ) ;
#187 = ORIENTED_EDGE ( 'NONE', *, *, #254, .T. ) ;
#188 = ORIENTED_EDGE ( 'NONE', *, *, #254, .F. ) ;
#189 = UNCERTAINTY_MEASURE_WITH_UNIT (LENGTH_MEASURE( 1.000000000000000082E-05 ), #781, 'distance_accuracy_value', 'NONE');
#190 = EDGE_LOOP ( 'NONE', ( #1042, #385, #211, #588, #850, #1051, #562, #684 ) ) ;
#191 = ORIENTED_EDGE ( 'NONE', *, *, #749, .T. ) ;
#192 = FACE_OUTER_BOUND ( 'NONE', #184, .T. ) ;
#193 = EDGE_CURVE ( 'NONE', #564, #262, #724, .T. ) ;
#194 = LINE ( 'NONE', #204, #758 ) ;
#195 = EDGE_LOOP ( 'NONE', ( #5, #974, #1115, #1046 ) ) ;
#196 = VECTOR ( 'NONE', #443, 1000.000000000000000 ) ;
#197 = LINE ( 'NONE', #288, #18 ) ;
#198 = STYLED_ITEM ( 'NONE', ( #68 ), #642 ) ;
#199 = VECTOR ( 'NONE', #1131, 1000.000000000000000 ) ;
#200 = AXIS2_PLACEMENT_3D ( 'NONE', #794, #989, #421 ) ;
#201 = ORIENTED_EDGE ( 'NONE', *, *, #319, .F. ) ;
#202 = CARTESIAN_POINT ( 'NONE',  ( 0.000000000000000000, 0.7000000000000000666, 3.700000000000000178 ) ) ;
#203 = FACE_OUTER_BOUND ( 'NONE', #103, .T. ) ;
#204 = CARTESIAN_POINT ( 'NONE',  ( -3.000000000000000000, -1.749999999999999778, 0.000000000000000000 ) ) ;
#205 = ORIENTED_EDGE ( 'NONE', *, *, #816, .F. ) ;
#206 = CARTESIAN_POINT ( 'NONE',  ( -1.500000000000000000, 0.6999999999999998446, 4.200000000000000178 ) ) ;
#207 = PLANE ( 'NONE',  #235 ) ;
#208 = DIRECTION ( 'NONE',  ( 0.000000000000000000, -0.000000000000000000, -1.000000000000000000 ) ) ;
#209 = VERTEX_POINT ( 'NONE', #754 ) ;
#210 = EDGE_CURVE ( 'NONE', #120, #182, #535, .T. ) ;
#211 = ORIENTED_EDGE ( 'NONE', *, *, #797, .T. ) ;
#212 = CARTESIAN_POINT ( 'NONE',  ( 0.000000000000000000, 0.7000000000000000666, 3.700000000000000178 ) ) ;
#213 = SURFACE_STYLE_FILL_AREA ( #136 ) ;
#214 = PRESENTATION_LAYER_ASSIGNMENT (  '', '', ( #1008 ) ) ;
#215 = VECTOR ( 'NONE', #1073, 1000.000000000000000 ) ;
#216 = DIRECTION ( 'NONE',  ( -1.000000000000000000, 0.000000000000000000, -0.000000000000000000 ) ) ;
#217 = STYLED_ITEM ( 'NONE', ( #26 ), #359 ) ;
#218 = EDGE_LOOP ( 'NONE', ( #191, #835, #276, #9 ) ) ;
#219 = CARTESIAN_POINT ( 'NONE',  ( 2.712419157981264206, 0.7000000000000000666, 3.200000000000000178 ) ) ;
#220 = FACE_OUTER_BOUND ( 'NONE', #453, .T. ) ;
#221 = CARTESIAN_POINT ( 'NONE',  ( 2.712419157981264206, 0.000000000000000000, 3.700000000000000178 ) ) ;
#222 = SURFACE_SIDE_STYLE ('',( #1059 ) ) ;
#223 = CARTESIAN_POINT ( 'NONE',  ( -2.199934432279735397, -0.7000000000000000666, 3.200000000000000178 ) ) ;
#224 = ORIENTED_EDGE ( 'NONE', *, *, #411, .T. ) ;
#225 = CARTESIAN_POINT ( 'NONE',  ( 0.000000000000000000, -0.7000000000000000666, 3.700000000000000178 ) ) ;
#226 = SURFACE_SIDE_STYLE ('',( #213 ) ) ;
#227 = STYLED_ITEM ( 'NONE', ( #450 ), #775 ) ;
#228 = VECTOR ( 'NONE', #58, 1000.000000000000000 ) ;
#229 = CARTESIAN_POINT ( 'NONE',  ( 0.000000000000000000, 0.4500000000000005662, 1.000000000000000000 ) ) ;
#230 = EDGE_CURVE ( 'NONE', #71, #1193, #1182, .T. ) ;
#231 = DIRECTION ( 'NONE',  ( 0.000000000000000000, -1.000000000000000000, 0.000000000000000000 ) ) ;
#232 = DIRECTION ( 'NONE',  ( 0.000000000000000000, 0.000000000000000000, -1.000000000000000000 ) ) ;
#233 = CARTESIAN_POINT ( 'NONE',  ( 0.000000000000000000, 0.4500000000000005662, 0.000000000000000000 ) ) ;
#234 = CARTESIAN_POINT ( 'NONE',  ( 0.000000000000000000, 0.000000000000000000, 1.000000000000000000 ) ) ;
#235 = AXIS2_PLACEMENT_3D ( 'NONE', #212, #295, #682 ) ;
#236 =( NAMED_UNIT ( * ) PLANE_ANGLE_UNIT ( ) SI_UNIT ( $, .RADIAN. ) );
#237 = LINE ( 'NONE', #513, #1026 ) ;
#238 = VECTOR ( 'NONE', #846, 1000.000000000000000 ) ;
#239 = SURFACE_STYLE_USAGE ( .BOTH. , #501 ) ;
#240 = COLOUR_RGB ( '',0.2509803921568627416, 0.2509803921568627416, 0.2509803921568627416 ) ;
#241 = SURFACE_STYLE_FILL_AREA ( #635 ) ;
#242 = FILL_AREA_STYLE_COLOUR ( '', #1066 ) ;
#243 = CARTESIAN_POINT ( 'NONE',  ( -3.599901648419603806, -0.4499999999999994560, 0.000000000000000000 ) ) ;
#244 =( NAMED_UNIT ( * ) SI_UNIT ( $, .STERADIAN. ) SOLID_ANGLE_UNIT ( ) );
#245 =( LENGTH_UNIT ( ) NAMED_UNIT ( * ) SI_UNIT ( .MILLI., .METRE. ) );
#246 = CARTESIAN_POINT ( 'NONE',  ( 0.000000000000000000, -0.7000000000000000666, 3.700000000000000178 ) ) ;
#247 = EDGE_CURVE ( 'NONE', #79, #120, #910, .T. ) ;
#248 = PLANE ( 'NONE',  #769 ) ;
#249 = FILL_AREA_STYLE ('',( #619 ) ) ;
#250 = DIRECTION ( 'NONE',  ( 4.818676322157797375E-16, -1.000000000000000000, 0.000000000000000000 ) ) ;
#251 =( GEOMETRIC_REPRESENTATION_CONTEXT ( 3 ) GLOBAL_UNCERTAINTY_ASSIGNED_CONTEXT ( ( #363 ) ) GLOBAL_UNIT_ASSIGNED_CONTEXT ( ( #446, #546, #1188 ) ) REPRESENTATION_CONTEXT ( 'NONE', 'WORKASPACE' ) );
#252 = VECTOR ( 'NONE', #895, 1000.000000000000000 ) ;
#253 = LINE ( 'NONE', #356, #414 ) ;
#254 = EDGE_CURVE ( 'NONE', #928, #1125, #1024, .T. ) ;
#255 = DIRECTION ( 'NONE',  ( -1.000000000000000000, 0.000000000000000000, 0.000000000000000000 ) ) ;
#256 = ORIENTED_EDGE ( 'NONE', *, *, #774, .T. ) ;
#257 = CARTESIAN_POINT ( 'NONE',  ( 0.000000000000000000, 0.000000000000000000, 3.700000000000000178 ) ) ;
#258 = DIRECTION ( 'NONE',  ( 0.000000000000000000, 0.000000000000000000, -1.000000000000000000 ) ) ;
#259 = DIRECTION ( 'NONE',  ( 0.000000000000000000, 0.000000000000000000, 1.000000000000000000 ) ) ;
#260 =( LENGTH_UNIT ( ) NAMED_UNIT ( * ) SI_UNIT ( .MILLI., .METRE. ) );
#261 = VECTOR ( 'NONE', #43, 1000.000000000000000 ) ;
#262 = VERTEX_POINT ( 'NONE', #734 ) ;
#263 = DIRECTION ( 'NONE',  ( 0.000000000000000000, -0.000000000000000000, -1.000000000000000000 ) ) ;
#264 = FACE_OUTER_BOUND ( 'NONE', #190, .T. ) ;
#265 = ORIENTED_EDGE ( 'NONE', *, *, #881, .T. ) ;
#266 =( LENGTH_UNIT ( ) NAMED_UNIT ( * ) SI_UNIT ( .MILLI., .METRE. ) );
#267 = SURFACE_STYLE_FILL_AREA ( #355 ) ;
#268 = EDGE_LOOP ( 'NONE', ( #1029, #583, #478, #867 ) ) ;
#269 = ADVANCED_FACE ( 'NONE', ( #1098 ), #396, .F. ) ;
#270 = ORIENTED_EDGE ( 'NONE', *, *, #210, .T. ) ;
#271 = ORIENTED_EDGE ( 'NONE', *, *, #130, .F. ) ;
#272 = UNCERTAINTY_MEASURE_WITH_UNIT (LENGTH_MEASURE( 1.000000000000000082E-05 ), #311, 'distance_accuracy_value', 'NONE');
#273 = STYLED_ITEM ( 'NONE', ( #159 ), #699 ) ;
#274 = ORIENTED_EDGE ( 'NONE', *, *, #25, .F. ) ;
#275 = PRODUCT_DEFINITION_SHAPE ( 'NONE', 'NONE',  #153 ) ;
#276 = ORIENTED_EDGE ( 'NONE', *, *, #230, .T. ) ;
#277 = CARTESIAN_POINT ( 'NONE',  ( -0.000000000000000000, 0.7000000000000000666, 3.200000000000000178 ) ) ;
#278 = STYLED_ITEM ( 'NONE', ( #1085 ), #435 ) ;
#279 = APPLICATION_CONTEXT ( 'automotive_design' ) ;
#280 = ORIENTED_EDGE ( 'NONE', *, *, #178, .T. ) ;
#281 = EDGE_CURVE ( 'NONE', #746, #647, #572, .T. ) ;
#282 = LINE ( 'NONE', #202, #1004 ) ;
#283 = SURFACE_STYLE_USAGE ( .BOTH. , #747 ) ;
#284 = UNCERTAINTY_MEASURE_WITH_UNIT (LENGTH_MEASURE( 1.000000000000000082E-05 ), #72, 'distance_accuracy_value', 'NONE');
#285 = MECHANICAL_DESIGN_GEOMETRIC_PRESENTATION_REPRESENTATION (  '', ( #852 ), #748 ) ;
#286 = ORIENTED_EDGE ( 'NONE', *, *, #69, .T. ) ;
#287 = PRESENTATION_LAYER_ASSIGNMENT (  '', '', ( #1183 ) ) ;
#288 = CARTESIAN_POINT ( 'NONE',  ( 0.000000000000000000, -0.4499999999999994560, -0.000000000000000000 ) ) ;
#289 = EDGE_CURVE ( 'NONE', #4, #262, #383, .T. ) ;
#290 = CARTESIAN_POINT ( 'NONE',  ( 2.199934432279735397, 0.7000000000000000666, 3.700000000000000178 ) ) ;
#291 = DIRECTION ( 'NONE',  ( -3.097720492815727166E-16, 1.000000000000000000, -0.000000000000000000 ) ) ;
#292 = VERTEX_POINT ( 'NONE', #1146 ) ;
#293 = ORIENTED_EDGE ( 'NONE', *, *, #774, .F. ) ;
#294 = VECTOR ( 'NONE', #134, 1000.000000000000000 ) ;
#295 = DIRECTION ( 'NONE',  ( 0.000000000000000000, 1.000000000000000000, 0.000000000000000000 ) ) ;
#296 = COLOUR_RGB ( '',0.2509803921568627416, 0.2509803921568627416, 0.2509803921568627416 ) ;
#297 = CARTESIAN_POINT ( 'NONE',  ( 2.712419157981264206, -0.7000000000000000666, 3.700000000000000178 ) ) ;
#298 = ORIENTED_EDGE ( 'NONE', *, *, #864, .T. ) ;
#299 = DIRECTION ( 'NONE',  ( 0.000000000000000000, -1.000000000000000000, 0.000000000000000000 ) ) ;
#300 = PRESENTATION_STYLE_ASSIGNMENT (( #773 ) ) ;
#301 = EDGE_CURVE ( 'NONE', #563, #681, #949, .T. ) ;
#302 = ORIENTED_EDGE ( 'NONE', *, *, #625, .F. ) ;
#303 = CARTESIAN_POINT ( 'NONE',  ( 0.000000000000000000, -0.4499999999999994560, 1.000000000000000000 ) ) ;
#304 = VECTOR ( 'NONE', #499, 1000.000000000000000 ) ;
#305 = FILL_AREA_STYLE_COLOUR ( '', #488 ) ;
#306 =( LENGTH_UNIT ( ) NAMED_UNIT ( * ) SI_UNIT ( .MILLI., .METRE. ) );
#307 = DIRECTION ( 'NONE',  ( -1.000000000000000000, 0.000000000000000000, 0.000000000000000000 ) ) ;
#308 = CARTESIAN_POINT ( 'NONE',  ( -2.712419157981264206, 0.000000000000000000, 3.700000000000000178 ) ) ;
#309 = ORIENTED_EDGE ( 'NONE', *, *, #942, .T. ) ;
#310 = FACE_OUTER_BOUND ( 'NONE', #560, .T. ) ;
#311 =( LENGTH_UNIT ( ) NAMED_UNIT ( * ) SI_UNIT ( .MILLI., .METRE. ) );
#312 = LINE ( 'NONE', #51, #709 ) ;
#313 = MECHANICAL_DESIGN_GEOMETRIC_PRESENTATION_REPRESENTATION (  '', ( #552 ), #433 ) ;
#314 = DIRECTION ( 'NONE',  ( -1.000000000000000000, 0.000000000000000000, 0.000000000000000000 ) ) ;
#315 = AXIS2_PLACEMENT_3D ( 'NONE', #329, #701, #608 ) ;
#316 = DIRECTION ( 'NONE',  ( 0.000000000000000000, -0.000000000000000000, 1.000000000000000000 ) ) ;
#317 = VERTEX_POINT ( 'NONE', #1124 ) ;
#318 =( NAMED_UNIT ( * ) SI_UNIT ( $, .STERADIAN. ) SOLID_ANGLE_UNIT ( ) );
#319 = EDGE_CURVE ( 'NONE', #703, #746, #871, .T. ) ;
#320 = CARTESIAN_POINT ( 'NONE',  ( -1.499999999999999778, -0.7000000000000000666, 4.200000000000000178 ) ) ;
#321 = CARTESIAN_POINT ( 'NONE',  ( 2.712419157981264206, 0.7000000000000000666, 3.700000000000000178 ) ) ;
#322 = DIRECTION ( 'NONE',  ( -0.000000000000000000, 0.000000000000000000, 1.000000000000000000 ) ) ;
#323 = LINE ( 'NONE', #632, #944 ) ;
#324 = FACE_OUTER_BOUND ( 'NONE', #832, .T. ) ;
#325 = DIRECTION ( 'NONE',  ( 0.000000000000000000, -1.000000000000000000, 0.000000000000000000 ) ) ;
#326 = SURFACE_SIDE_STYLE ('',( #241 ) ) ;
#327 = STYLED_ITEM ( 'NONE', ( #1167 ), #695 ) ;
#328 = VECTOR ( 'NONE', #157, 1000.000000000000000 ) ;
#329 = CARTESIAN_POINT ( 'NONE',  ( 0.000000000000000000, 0.000000000000000000, 3.700000000000000178 ) ) ;
#330 = FILL_AREA_STYLE ('',( #422 ) ) ;
#331 =( LENGTH_UNIT ( ) NAMED_UNIT ( * ) SI_UNIT ( .MILLI., .METRE. ) );
#332 = DIRECTION ( 'NONE',  ( 0.000000000000000000, -1.000000000000000000, -0.000000000000000000 ) ) ;
#333 = LINE ( 'NONE', #143, #386 ) ;
#334 =( GEOMETRIC_REPRESENTATION_CONTEXT ( 3 ) GLOBAL_UNCERTAINTY_ASSIGNED_CONTEXT ( ( #90 ) ) GLOBAL_UNIT_ASSIGNED_CONTEXT ( ( #1048, #793, #388 ) ) REPRESENTATION_CONTEXT ( 'NONE', 'WORKASPACE' ) );
#335 = CARTESIAN_POINT ( 'NONE',  ( 2.199934432279735397, -0.7000000000000000666, 3.200000000000000178 ) ) ;
#336 = MECHANICAL_DESIGN_GEOMETRIC_PRESENTATION_REPRESENTATION (  '', ( #843 ), #1023 ) ;
#337 = CARTESIAN_POINT ( 'NONE',  ( -3.000000000000000000, -1.749999999999999778, 3.000000000000000000 ) ) ;
#338 = EDGE_CURVE ( 'NONE', #647, #391, #480, .T. ) ;
#339 = CARTESIAN_POINT ( 'NONE',  ( -3.599901648419603362, 0.4500000000000005662, 0.000000000000000000 ) ) ;
#340 = VECTOR ( 'NONE', #27, 1000.000000000000000 ) ;
#341 = DIRECTION ( 'NONE',  ( -0.000000000000000000, -0.000000000000000000, -1.000000000000000000 ) ) ;
#342 = CARTESIAN_POINT ( 'NONE',  ( 3.000000000000000000, -1.749999999999999778, 0.000000000000000000 ) ) ;
#343 = ADVANCED_FACE ( 'NONE', ( #1129 ), #676, .F. ) ;
#344 = FILL_AREA_STYLE ('',( #438 ) ) ;
#345 = FACE_OUTER_BOUND ( 'NONE', #757, .T. ) ;
#346 = VERTEX_POINT ( 'NONE', #865 ) ;
#347 = CARTESIAN_POINT ( 'NONE',  ( -2.199934432279735397, -0.7000000000000000666, 3.700000000000000178 ) ) ;
#348 =( GEOMETRIC_REPRESENTATION_CONTEXT ( 3 ) GLOBAL_UNCERTAINTY_ASSIGNED_CONTEXT ( ( #3 ) ) GLOBAL_UNIT_ASSIGNED_CONTEXT ( ( #732, #60, #922 ) ) REPRESENTATION_CONTEXT ( 'NONE', 'WORKASPACE' ) );
#349 = COLOUR_RGB ( '',0.2509803921568627416, 0.2509803921568627416, 0.2509803921568627416 ) ;
#350 = EDGE_CURVE ( 'NONE', #937, #95, #194, .T. ) ;
#351 = DIRECTION ( 'NONE',  ( -1.000000000000000000, 0.000000000000000000, 0.000000000000000000 ) ) ;
#352 =( NAMED_UNIT ( * ) PLANE_ANGLE_UNIT ( ) SI_UNIT ( $, .RADIAN. ) );
#353 = VERTEX_POINT ( 'NONE', #6 ) ;
#354 = PRESENTATION_STYLE_ASSIGNMENT (( #532 ) ) ;
#355 = FILL_AREA_STYLE ('',( #66 ) ) ;
#356 = CARTESIAN_POINT ( 'NONE',  ( -1.500000000000000000, 0.6999999999999998446, 3.200000000000000178 ) ) ;
#357 = PRESENTATION_LAYER_ASSIGNMENT (  '', '', ( #552 ) ) ;
#358 = VERTEX_POINT ( 'NONE', #1053 ) ;
#359 = ADVANCED_FACE ( 'NONE', ( #581 ), #847, .T. ) ;
#360 = DIRECTION ( 'NONE',  ( 0.000000000000000000, 0.000000000000000000, -1.000000000000000000 ) ) ;
#361 = DIRECTION ( 'NONE',  ( 3.097720492815727166E-16, -1.000000000000000000, 0.000000000000000000 ) ) ;
#362 = SURFACE_STYLE_USAGE ( .BOTH. , #455 ) ;
#363 = UNCERTAINTY_MEASURE_WITH_UNIT (LENGTH_MEASURE( 1.000000000000000082E-05 ), #446, 'distance_accuracy_value', 'NONE');
#364 = ORIENTED_EDGE ( 'NONE', *, *, #449, .F. ) ;
#365 = LINE ( 'NONE', #277, #596 ) ;
#366 = AXIS2_PLACEMENT_3D ( 'NONE', #454, #830, #361 ) ;
#367 = ORIENTED_EDGE ( 'NONE', *, *, #936, .F. ) ;
#368 = VERTEX_POINT ( 'NONE', #138 ) ;
#369 = DIRECTION ( 'NONE',  ( 0.000000000000000000, -0.000000000000000000, -1.000000000000000000 ) ) ;
#370 = PRODUCT_RELATED_PRODUCT_CATEGORY ( 'part', '', ( #107 ) ) ;
#371 = CARTESIAN_POINT ( 'NONE',  ( 0.000000000000000000, 0.4500000000000005662, 0.000000000000000000 ) ) ;
#372 = EDGE_CURVE ( 'NONE', #1109, #59, #715, .T. ) ;
#373 = UNCERTAINTY_MEASURE_WITH_UNIT (LENGTH_MEASURE( 1.000000000000000082E-05 ), #331, 'distance_accuracy_value', 'NONE');
#374 = VECTOR ( 'NONE', #1161, 1000.000000000000000 ) ;
#375 = MECHANICAL_DESIGN_GEOMETRIC_PRESENTATION_REPRESENTATION (  '', ( #1006 ), #436 ) ;
#376 = ORIENTED_EDGE ( 'NONE', *, *, #289, .T. ) ;
#377 = DIRECTION ( 'NONE',  ( 1.000000000000000000, -4.818676322157797375E-16, 0.000000000000000000 ) ) ;
#378 = AXIS2_PLACEMENT_3D ( 'NONE', #670, #1135, #768 ) ;
#379 = CARTESIAN_POINT ( 'NONE',  ( -3.000000000000000000, 1.750000000000000222, 3.000000000000000000 ) ) ;
#380 = EDGE_CURVE ( 'NONE', #569, #977, #237, .T. ) ;
#381 = ORIENTED_EDGE ( 'NONE', *, *, #906, .F. ) ;
#382 = EDGE_LOOP ( 'NONE', ( #14, #1203, #938, #298 ) ) ;
#383 = LINE ( 'NONE', #683, #458 ) ;
#384 = UNCERTAINTY_MEASURE_WITH_UNIT (LENGTH_MEASURE( 1.000000000000000082E-05 ), #402, 'distance_accuracy_value', 'NONE');
#385 = ORIENTED_EDGE ( 'NONE', *, *, #380, .F. ) ;
#386 = VECTOR ( 'NONE', #149, 1000.000000000000000 ) ;
#387 = CARTESIAN_POINT ( 'NONE',  ( 3.000000000000000000, -1.749999999999999778, 0.000000000000000000 ) ) ;
#388 =( NAMED_UNIT ( * ) SI_UNIT ( $, .STERADIAN. ) SOLID_ANGLE_UNIT ( ) );
#389 = FILL_AREA_STYLE_COLOUR ( '', #240 ) ;
#390 = ORIENTED_EDGE ( 'NONE', *, *, #955, .F. ) ;
#391 = VERTEX_POINT ( 'NONE', #335 ) ;
#392 =( GEOMETRIC_REPRESENTATION_CONTEXT ( 3 ) GLOBAL_UNCERTAINTY_ASSIGNED_CONTEXT ( ( #272 ) ) GLOBAL_UNIT_ASSIGNED_CONTEXT ( ( #311, #115, #23 ) ) REPRESENTATION_CONTEXT ( 'NONE', 'WORKASPACE' ) );
#393 = CARTESIAN_POINT ( 'NONE',  ( -2.712419157981264206, 0.7000000000000000666, 3.200000000000000178 ) ) ;
#394 = ADVANCED_FACE ( 'NONE', ( #889 ), #622, .T. ) ;
#395 = PRESENTATION_LAYER_ASSIGNMENT (  '', '', ( #85 ) ) ;
#396 = PLANE ( 'NONE',  #378 ) ;
#397 = ORIENTED_EDGE ( 'NONE', *, *, #947, .T. ) ;
#398 = CARTESIAN_POINT ( 'NONE',  ( -3.000000000000000000, -1.749999999999999778, 0.000000000000000000 ) ) ;
#399 = LINE ( 'NONE', #290, #811 ) ;
#400 = FACE_OUTER_BOUND ( 'NONE', #33, .T. ) ;
#401 =( LENGTH_UNIT ( ) NAMED_UNIT ( * ) SI_UNIT ( .MILLI., .METRE. ) );
#402 =( LENGTH_UNIT ( ) NAMED_UNIT ( * ) SI_UNIT ( .MILLI., .METRE. ) );
#403 = EDGE_LOOP ( 'NONE', ( #785, #1121, #256, #856 ) ) ;
#404 = CARTESIAN_POINT ( 'NONE',  ( -3.000000000000000000, 0.4500000000000005662, 0.000000000000000000 ) ) ;
#405 = STYLED_ITEM ( 'NONE', ( #158 ), #818 ) ;
#406 = VECTOR ( 'NONE', #525, 1000.000000000000000 ) ;
#407 = LINE ( 'NONE', #425, #1181 ) ;
#408 = DIRECTION ( 'NONE',  ( -1.000000000000000000, 0.000000000000000000, 0.000000000000000000 ) ) ;
#409 = CARTESIAN_POINT ( 'NONE',  ( 0.000000000000000000, -0.7000000000000000666, 3.700000000000000178 ) ) ;
#410 = PLANE ( 'NONE',  #792 ) ;
#411 = EDGE_CURVE ( 'NONE', #777, #4, #323, .T. ) ;
#412 = ORIENTED_EDGE ( 'NONE', *, *, #660, .T. ) ;
#413 = CARTESIAN_POINT ( 'NONE',  ( -2.712419157981264206, -0.7000000000000000666, 3.200000000000000178 ) ) ;
#414 = VECTOR ( 'NONE', #1107, 1000.000000000000000 ) ;
#415 = VECTOR ( 'NONE', #673, 1000.000000000000000 ) ;
#416 = PLANE ( 'NONE',  #623 ) ;
#417 = VECTOR ( 'NONE', #418, 1000.000000000000000 ) ;
#418 = DIRECTION ( 'NONE',  ( -0.000000000000000000, -0.000000000000000000, -1.000000000000000000 ) ) ;
#419 = CARTESIAN_POINT ( 'NONE',  ( 3.000000000000000000, -0.4499999999999994560, 0.000000000000000000 ) ) ;
#420 = FILL_AREA_STYLE_COLOUR ( '', #587 ) ;
#421 = DIRECTION ( 'NONE',  ( 0.000000000000000000, -0.000000000000000000, 1.000000000000000000 ) ) ;
#422 = FILL_AREA_STYLE_COLOUR ( '', #296 ) ;
#423 = CARTESIAN_POINT ( 'NONE',  ( -3.599901648419603806, -0.4499999999999994560, 1.000000000000000000 ) ) ;
#424 =( NAMED_UNIT ( * ) PLANE_ANGLE_UNIT ( ) SI_UNIT ( $, .RADIAN. ) );
#425 = CARTESIAN_POINT ( 'NONE',  ( -3.599901648419603806, -0.4499999999999994560, 1.000000000000000000 ) ) ;
#426 = VECTOR ( 'NONE', #258, 1000.000000000000000 ) ;
#427 = PLANE ( 'NONE',  #697 ) ;
#428 = PLANE ( 'NONE',  #175 ) ;
#429 = SURFACE_SIDE_STYLE ('',( #990 ) ) ;
#430 = LINE ( 'NONE', #1086, #44 ) ;
#431 = DIRECTION ( 'NONE',  ( 1.000000000000000000, 0.000000000000000000, 0.000000000000000000 ) ) ;
#432 = DIRECTION ( 'NONE',  ( 1.000000000000000000, 0.000000000000000000, 0.000000000000000000 ) ) ;
#433 =( GEOMETRIC_REPRESENTATION_CONTEXT ( 3 ) GLOBAL_UNCERTAINTY_ASSIGNED_CONTEXT ( ( #67 ) ) GLOBAL_UNIT_ASSIGNED_CONTEXT ( ( #809, #1062, #1087 ) ) REPRESENTATION_CONTEXT ( 'NONE', 'WORKASPACE' ) );
#434 = LINE ( 'NONE', #342, #1128 ) ;
#435 = ADVANCED_FACE ( 'NONE', ( #994 ), #416, .T. ) ;
#436 =( GEOMETRIC_REPRESENTATION_CONTEXT ( 3 ) GLOBAL_UNCERTAINTY_ASSIGNED_CONTEXT ( ( #655 ) ) GLOBAL_UNIT_ASSIGNED_CONTEXT ( ( #1117, #926, #1110 ) ) REPRESENTATION_CONTEXT ( 'NONE', 'WORKASPACE' ) );
#437 =( NAMED_UNIT ( * ) SI_UNIT ( $, .STERADIAN. ) SOLID_ANGLE_UNIT ( ) );
#438 = FILL_AREA_STYLE_COLOUR ( '', #677 ) ;
#439 = CARTESIAN_POINT ( 'NONE',  ( 3.599901648419604250, -0.4499999999999994560, 1.000000000000000000 ) ) ;
#440 = CARTESIAN_POINT ( 'NONE',  ( 3.000000000000000000, -1.749999999999999778, 3.000000000000000000 ) ) ;
#441 = DIRECTION ( 'NONE',  ( 1.000000000000000000, 0.000000000000000000, 0.000000000000000000 ) ) ;
#442 = EDGE_LOOP ( 'NONE', ( #658, #1141, #1017, #381 ) ) ;
#443 = DIRECTION ( 'NONE',  ( 0.000000000000000000, 0.000000000000000000, -1.000000000000000000 ) ) ;
#444 = FILL_AREA_STYLE_COLOUR ( '', #669 ) ;
#445 = ORIENTED_EDGE ( 'NONE', *, *, #193, .F. ) ;
#446 =( LENGTH_UNIT ( ) NAMED_UNIT ( * ) SI_UNIT ( .MILLI., .METRE. ) );
#447 = MECHANICAL_DESIGN_GEOMETRIC_PRESENTATION_REPRESENTATION (  '', ( #1183 ), #548 ) ;
#448 = LINE ( 'NONE', #1189, #1076 ) ;
#449 = EDGE_CURVE ( 'NONE', #928, #1140, #972, .T. ) ;
#450 = PRESENTATION_STYLE_ASSIGNMENT (( #523 ) ) ;
#451 = ORIENTED_EDGE ( 'NONE', *, *, #625, .T. ) ;
#452 = DIRECTION ( 'NONE',  ( -0.000000000000000000, 0.000000000000000000, 1.000000000000000000 ) ) ;
#453 = EDGE_LOOP ( 'NONE', ( #468, #672, #930, #731 ) ) ;
#454 = CARTESIAN_POINT ( 'NONE',  ( 1.500000000000000000, 0.6999999999999998446, 4.200000000000000178 ) ) ;
#455 = SURFACE_SIDE_STYLE ('',( #81 ) ) ;
#456 = PRESENTATION_LAYER_ASSIGNMENT (  '', '', ( #1191 ) ) ;
#457 = STYLED_ITEM ( 'NONE', ( #34 ), #114 ) ;
#458 = VECTOR ( 'NONE', #291, 1000.000000000000000 ) ;
#459 = ORIENTED_EDGE ( 'NONE', *, *, #1197, .F. ) ;
#460 = UNCERTAINTY_MEASURE_WITH_UNIT (LENGTH_MEASURE( 1.000000000000000082E-05 ), #185, 'distance_accuracy_value', 'NONE');
#461 = EDGE_LOOP ( 'NONE', ( #1186, #1111, #302, #1011 ) ) ;
#462 = ORIENTED_EDGE ( 'NONE', *, *, #1033, .F. ) ;
#463 = EDGE_CURVE ( 'NONE', #641, #346, #132, .T. ) ;
#464 = CARTESIAN_POINT ( 'NONE',  ( -2.199934432279735397, 0.7000000000000000666, 3.700000000000000178 ) ) ;
#465 = EDGE_CURVE ( 'NONE', #1125, #681, #981, .T. ) ;
#466 = AXIS2_PLACEMENT_3D ( 'NONE', #628, #531, #917 ) ;
#467 = ORIENTED_EDGE ( 'NONE', *, *, #301, .F. ) ;
#468 = ORIENTED_EDGE ( 'NONE', *, *, #541, .T. ) ;
#469 = FACE_OUTER_BOUND ( 'NONE', #382, .T. ) ;
#470 = EDGE_CURVE ( 'NONE', #358, #937, #430, .T. ) ;
#471 = UNCERTAINTY_MEASURE_WITH_UNIT (LENGTH_MEASURE( 1.000000000000000082E-05 ), #789, 'distance_accuracy_value', 'NONE');
#472 = VECTOR ( 'NONE', #951, 1000.000000000000000 ) ;
#473 = AXIS2_PLACEMENT_3D ( 'NONE', #257, #452, #432 ) ;
#474 = ORIENTED_EDGE ( 'NONE', *, *, #88, .F. ) ;
#475 = CARTESIAN_POINT ( 'NONE',  ( 2.199934432279735397, 0.7000000000000000666, 3.200000000000000178 ) ) ;
#476 = DIRECTION ( 'NONE',  ( 0.000000000000000000, -1.000000000000000000, 0.000000000000000000 ) ) ;
#477 = DIRECTION ( 'NONE',  ( -0.000000000000000000, -1.000000000000000000, -0.000000000000000000 ) ) ;
#478 = ORIENTED_EDGE ( 'NONE', *, *, #749, .F. ) ;
#479 = ORIENTED_EDGE ( 'NONE', *, *, #465, .T. ) ;
#480 = LINE ( 'NONE', #943, #621 ) ;
#481 = AXIS2_PLACEMENT_3D ( 'NONE', #962, #803, #492 ) ;
#482 = VERTEX_POINT ( 'NONE', #1159 ) ;
#483 = ADVANCED_FACE ( 'NONE', ( #634 ), #795, .F. ) ;
#484 = ORIENTED_EDGE ( 'NONE', *, *, #24, .T. ) ;
#485 = DIRECTION ( 'NONE',  ( 1.000000000000000000, 4.818676322157797375E-16, 0.000000000000000000 ) ) ;
#486 = SURFACE_STYLE_USAGE ( .BOTH. , #953 ) ;
#487 = ORIENTED_EDGE ( 'NONE', *, *, #1184, .F. ) ;
#488 = COLOUR_RGB ( '',0.2509803921568627416, 0.2509803921568627416, 0.2509803921568627416 ) ;
#489 = LINE ( 'NONE', #206, #770 ) ;
#490 = PRESENTATION_LAYER_ASSIGNMENT (  '', '', ( #843 ) ) ;
#491 = PRESENTATION_STYLE_ASSIGNMENT (( #1139 ) ) ;
#492 = DIRECTION ( 'NONE',  ( -0.000000000000000000, 0.000000000000000000, -1.000000000000000000 ) ) ;
#493 = PRESENTATION_LAYER_ASSIGNMENT (  '', '', ( #278 ) ) ;
#494 = AXIS2_PLACEMENT_3D ( 'NONE', #379, #1036, #208 ) ;
#495 = DIRECTION ( 'NONE',  ( -0.000000000000000000, -0.000000000000000000, -1.000000000000000000 ) ) ;
#496 = ORIENTED_EDGE ( 'NONE', *, *, #947, .F. ) ;
#497 = DIRECTION ( 'NONE',  ( -1.000000000000000000, 0.000000000000000000, 0.000000000000000000 ) ) ;
#498 = PLANE ( 'NONE',  #1077 ) ;
#499 = DIRECTION ( 'NONE',  ( 1.000000000000000000, 0.000000000000000000, 0.000000000000000000 ) ) ;
#500 = EDGE_CURVE ( 'NONE', #71, #95, #146, .T. ) ;
#501 = SURFACE_SIDE_STYLE ('',( #995 ) ) ;
#502 = ORIENTED_EDGE ( 'NONE', *, *, #606, .T. ) ;
#503 = SURFACE_STYLE_FILL_AREA ( #1156 ) ;
#504 = FACE_OUTER_BOUND ( 'NONE', #860, .T. ) ;
#505 = SURFACE_SIDE_STYLE ('',( #700 ) ) ;
#506 = ADVANCED_FACE ( 'NONE', ( #324 ), #1067, .T. ) ;
#507 = DIRECTION ( 'NONE',  ( 0.000000000000000000, -1.000000000000000000, 0.000000000000000000 ) ) ;
#508 = VERTEX_POINT ( 'NONE', #897 ) ;
#509 = DIRECTION ( 'NONE',  ( -1.000000000000000000, 0.000000000000000000, 0.000000000000000000 ) ) ;
#510 = LINE ( 'NONE', #1063, #820 ) ;
#511 = MECHANICAL_DESIGN_GEOMETRIC_PRESENTATION_REPRESENTATION (  '', ( #457 ), #720 ) ;
#512 = SURFACE_STYLE_FILL_AREA ( #878 ) ;
#513 = CARTESIAN_POINT ( 'NONE',  ( 3.000000000000000000, 0.000000000000000000, 1.000000000000000000 ) ) ;
#514 = FACE_BOUND ( 'NONE', #461, .T. ) ;
#515 = CARTESIAN_POINT ( 'NONE',  ( -1.499999999999999778, -0.7000000000000000666, 4.200000000000000178 ) ) ;
#516 = DIRECTION ( 'NONE',  ( 1.000000000000000000, 0.000000000000000000, 0.000000000000000000 ) ) ;
#517 = CARTESIAN_POINT ( 'NONE',  ( 3.599901648419603806, 0.4500000000000005662, 0.000000000000000000 ) ) ;
#518 = FILL_AREA_STYLE ('',( #145 ) ) ;
#519 = SHAPE_DEFINITION_REPRESENTATION ( #275, #699 ) ;
#520 = CARTESIAN_POINT ( 'NONE',  ( -1.500000000000000000, 0.6999999999999998446, 4.200000000000000178 ) ) ;
#521 = LINE ( 'NONE', #56, #294 ) ;
#522 = EDGE_CURVE ( 'NONE', #977, #209, #1166, .T. ) ;
#523 = SURFACE_STYLE_USAGE ( .BOTH. , #730 ) ;
#524 = AXIS2_PLACEMENT_3D ( 'NONE', #528, #1196, #540 ) ;
#525 = DIRECTION ( 'NONE',  ( 0.000000000000000000, 0.000000000000000000, -1.000000000000000000 ) ) ;
#526 = PRESENTATION_STYLE_ASSIGNMENT (( #601 ) ) ;
#527 = FILL_AREA_STYLE ('',( #168 ) ) ;
#528 = CARTESIAN_POINT ( 'NONE',  ( -3.000000000000000000, -1.749999999999999778, 3.000000000000000000 ) ) ;
#529 = DIRECTION ( 'NONE',  ( 1.000000000000000000, 0.000000000000000000, 0.000000000000000000 ) ) ;
#530 = LINE ( 'NONE', #135, #374 ) ;
#531 = DIRECTION ( 'NONE',  ( 1.000000000000000000, 0.000000000000000000, -0.000000000000000000 ) ) ;
#532 = SURFACE_STYLE_USAGE ( .BOTH. , #999 ) ;
#533 = PRESENTATION_LAYER_ASSIGNMENT (  '', '', ( #659 ) ) ;
#534 = CARTESIAN_POINT ( 'NONE',  ( 2.712419157981264206, 0.000000000000000000, 3.200000000000000178 ) ) ;
#535 = LINE ( 'NONE', #371, #739 ) ;
#536 = MECHANICAL_DESIGN_GEOMETRIC_PRESENTATION_REPRESENTATION (  '', ( #217 ), #1025 ) ;
#537 = SURFACE_STYLE_FILL_AREA ( #1174 ) ;
#538 = ORIENTED_EDGE ( 'NONE', *, *, #193, .T. ) ;
#539 = CARTESIAN_POINT ( 'NONE',  ( -3.599901648419603806, 1.734676083533636884E-15, -0.000000000000000000 ) ) ;
#540 = DIRECTION ( 'NONE',  ( 0.000000000000000000, -0.000000000000000000, 1.000000000000000000 ) ) ;
#541 = EDGE_CURVE ( 'NONE', #59, #391, #603, .T. ) ;
#542 = ORIENTED_EDGE ( 'NONE', *, *, #167, .T. ) ;
#543 = DIRECTION ( 'NONE',  ( 0.000000000000000000, 0.000000000000000000, -1.000000000000000000 ) ) ;
#544 = VERTEX_POINT ( 'NONE', #873 ) ;
#545 = DIRECTION ( 'NONE',  ( -4.818676322157797375E-16, -1.000000000000000000, 0.000000000000000000 ) ) ;
#546 =( NAMED_UNIT ( * ) PLANE_ANGLE_UNIT ( ) SI_UNIT ( $, .RADIAN. ) );
#547 = VECTOR ( 'NONE', #255, 1000.000000000000000 ) ;
#548 =( GEOMETRIC_REPRESENTATION_CONTEXT ( 3 ) GLOBAL_UNCERTAINTY_ASSIGNED_CONTEXT ( ( #927 ) ) GLOBAL_UNIT_ASSIGNED_CONTEXT ( ( #306, #993, #1169 ) ) REPRESENTATION_CONTEXT ( 'NONE', 'WORKASPACE' ) );
#549 = DIRECTION ( 'NONE',  ( 0.000000000000000000, -1.000000000000000000, 0.000000000000000000 ) ) ;
#550 = ORIENTED_EDGE ( 'NONE', *, *, #667, .F. ) ;
#551 = FILL_AREA_STYLE_COLOUR ( '', #755 ) ;
#552 = STYLED_ITEM ( 'NONE', ( #798 ), #1204 ) ;
#553 = VECTOR ( 'NONE', #948, 1000.000000000000000 ) ;
#554 = ADVANCED_FACE ( 'NONE', ( #32 ), #410, .F. ) ;
#555 = ORIENTED_EDGE ( 'NONE', *, *, #156, .T. ) ;
#556 =( GEOMETRIC_REPRESENTATION_CONTEXT ( 3 ) GLOBAL_UNCERTAINTY_ASSIGNED_CONTEXT ( ( #840 ) ) GLOBAL_UNIT_ASSIGNED_CONTEXT ( ( #99, #602, #105 ) ) REPRESENTATION_CONTEXT ( 'NONE', 'WORKASPACE' ) );
#557 = EDGE_CURVE ( 'NONE', #875, #564, #1060, .T. ) ;
#558 = VERTEX_POINT ( 'NONE', #1074 ) ;
#559 = FILL_AREA_STYLE ('',( #551 ) ) ;
#560 = EDGE_LOOP ( 'NONE', ( #762, #662, #657, #542 ) ) ;
#561 = UNCERTAINTY_MEASURE_WITH_UNIT (LENGTH_MEASURE( 1.000000000000000082E-05 ), #121, 'distance_accuracy_value', 'NONE');
#562 = ORIENTED_EDGE ( 'NONE', *, *, #955, .T. ) ;
#563 = VERTEX_POINT ( 'NONE', #223 ) ;
#564 = VERTEX_POINT ( 'NONE', #624 ) ;
#565 = EDGE_CURVE ( 'NONE', #1109, #647, #991, .T. ) ;
#566 = DIRECTION ( 'NONE',  ( 1.000000000000000000, 1.548860246407863583E-16, -0.000000000000000000 ) ) ;
#567 = PRESENTATION_LAYER_ASSIGNMENT (  '', '', ( #838 ) ) ;
#568 = MECHANICAL_DESIGN_GEOMETRIC_PRESENTATION_REPRESENTATION (  '', ( #1068 ), #859 ) ;
#569 = VERTEX_POINT ( 'NONE', #651 ) ;
#570 = CARTESIAN_POINT ( 'NONE',  ( 2.199934432279735397, -0.7000000000000000666, 3.700000000000000178 ) ) ;
#571 = CARTESIAN_POINT ( 'NONE',  ( 0.000000000000000000, 0.000000000000000000, 1.000000000000000000 ) ) ;
#572 = LINE ( 'NONE', #297, #742 ) ;
#573 = UNCERTAINTY_MEASURE_WITH_UNIT (LENGTH_MEASURE( 1.000000000000000082E-05 ), #155, 'distance_accuracy_value', 'NONE');
#574 = PRESENTATION_LAYER_ASSIGNMENT (  '', '', ( #273 ) ) ;
#575 = VECTOR ( 'NONE', #741, 1000.000000000000000 ) ;
#576 = CLOSED_SHELL ( 'NONE', ( #782, #775, #343, #642, #506, #114, #818, #269, #1028, #1204, #849, #844, #1040, #695, #122, #359, #1064, #1142, #735, #435, #996, #74, #1170, #554, #1057, #483, #1155, #394, #1012 ) ) ;
#577 = ORIENTED_EDGE ( 'NONE', *, *, #667, .T. ) ;
#578 = LINE ( 'NONE', #595, #199 ) ;
#579 = PRESENTATION_LAYER_ASSIGNMENT (  '', '', ( #814 ) ) ;
#580 = DIRECTION ( 'NONE',  ( 1.000000000000000000, 0.000000000000000000, -0.000000000000000000 ) ) ;
#581 = FACE_OUTER_BOUND ( 'NONE', #652, .T. ) ;
#582 = EDGE_CURVE ( 'NONE', #641, #544, #1002, .T. ) ;
#583 = ORIENTED_EDGE ( 'NONE', *, *, #924, .F. ) ;
#584 = LINE ( 'NONE', #96, #472 ) ;
#585 = PLANE ( 'NONE',  #694 ) ;
#586 = FILL_AREA_STYLE ('',( #592 ) ) ;
#587 = COLOUR_RGB ( '',0.2509803921568627416, 0.2509803921568627416, 0.2509803921568627416 ) ;
#588 = ORIENTED_EDGE ( 'NONE', *, *, #88, .T. ) ;
#589 = CARTESIAN_POINT ( 'NONE',  ( -3.000000000000000000, -1.749999999999999778, 3.200000000000000178 ) ) ;
#590 = SURFACE_SIDE_STYLE ('',( #940 ) ) ;
#591 =( LENGTH_UNIT ( ) NAMED_UNIT ( * ) SI_UNIT ( .MILLI., .METRE. ) );
#592 = FILL_AREA_STYLE_COLOUR ( '', #862 ) ;
#593 = ORIENTED_EDGE ( 'NONE', *, *, #1069, .T. ) ;
#594 = MECHANICAL_DESIGN_GEOMETRIC_PRESENTATION_REPRESENTATION (  '', ( #273 ), #828 ) ;
#595 = CARTESIAN_POINT ( 'NONE',  ( -3.000000000000000000, 0.000000000000000000, 1.000000000000000000 ) ) ;
#596 = VECTOR ( 'NONE', #834, 1000.000000000000000 ) ;
#597 = EDGE_CURVE ( 'NONE', #937, #1020, #169, .T. ) ;
#598 = SURFACE_STYLE_FILL_AREA ( #104 ) ;
#599 = VECTOR ( 'NONE', #307, 1000.000000000000000 ) ;
#600 =( GEOMETRIC_REPRESENTATION_CONTEXT ( 3 ) GLOBAL_UNCERTAINTY_ASSIGNED_CONTEXT ( ( #471 ) ) GLOBAL_UNIT_ASSIGNED_CONTEXT ( ( #789, #896, #805 ) ) REPRESENTATION_CONTEXT ( 'NONE', 'WORKASPACE' ) );
#601 = SURFACE_STYLE_USAGE ( .BOTH. , #505 ) ;
#602 =( NAMED_UNIT ( * ) PLANE_ANGLE_UNIT ( ) SI_UNIT ( $, .RADIAN. ) );
#603 = LINE ( 'NONE', #48, #97 ) ;
#604 = EDGE_LOOP ( 'NONE', ( #270, #925, #106, #743 ) ) ;
#605 = SURFACE_STYLE_FILL_AREA ( #613 ) ;
#606 = EDGE_CURVE ( 'NONE', #262, #346, #448, .T. ) ;
#607 = FILL_AREA_STYLE_COLOUR ( '', #349 ) ;
#608 = DIRECTION ( 'NONE',  ( 1.000000000000000000, 0.000000000000000000, 0.000000000000000000 ) ) ;
#609 = ORIENTED_EDGE ( 'NONE', *, *, #1103, .T. ) ;
#610 = CARTESIAN_POINT ( 'NONE',  ( 3.000000000000000000, -0.4499999999999994560, 1.000000000000000000 ) ) ;
#611 = PRESENTATION_LAYER_ASSIGNMENT (  '', '', ( #327 ) ) ;
#612 = DIRECTION ( 'NONE',  ( 0.000000000000000000, -0.000000000000000000, 1.000000000000000000 ) ) ;
#613 = FILL_AREA_STYLE ('',( #691 ) ) ;
#614 = DIRECTION ( 'NONE',  ( 1.000000000000000000, 0.000000000000000000, 0.000000000000000000 ) ) ;
#615 = DIRECTION ( 'NONE',  ( 0.000000000000000000, -1.000000000000000000, -0.000000000000000000 ) ) ;
#616 = PLANE ( 'NONE',  #83 ) ;
#617 = DIRECTION ( 'NONE',  ( 0.000000000000000000, 0.000000000000000000, -1.000000000000000000 ) ) ;
#618 = COLOUR_RGB ( '',0.7921568627450980005, 0.8196078431372548767, 0.9333333333333333481 ) ;
#619 = FILL_AREA_STYLE_COLOUR ( '', #935 ) ;
#620 = CARTESIAN_POINT ( 'NONE',  ( 1.500000000000000444, -0.7000000000000000666, 4.200000000000000178 ) ) ;
#621 = VECTOR ( 'NONE', #1045, 1000.000000000000000 ) ;
#622 = PLANE ( 'NONE',  #200 ) ;
#623 = AXIS2_PLACEMENT_3D ( 'NONE', #409, #800, #263 ) ;
#624 = CARTESIAN_POINT ( 'NONE',  ( 1.500000000000000000, 0.6999999999999998446, 4.200000000000000178 ) ) ;
#625 = EDGE_CURVE ( 'NONE', #346, #777, #253, .T. ) ;
#626 =( NAMED_UNIT ( * ) PLANE_ANGLE_UNIT ( ) SI_UNIT ( $, .RADIAN. ) );
#627 = CARTESIAN_POINT ( 'NONE',  ( -3.599901648419603362, 0.4500000000000005662, 1.000000000000000000 ) ) ;
#628 = CARTESIAN_POINT ( 'NONE',  ( -2.712419157981264206, 0.000000000000000000, 3.700000000000000178 ) ) ;
#629 = SURFACE_STYLE_FILL_AREA ( #249 ) ;
#630 = PRESENTATION_STYLE_ASSIGNMENT (( #37 ) ) ;
#631 = PRODUCT_DEFINITION_CONTEXT ( 'detailed design', #752, 'design' ) ;
#632 = CARTESIAN_POINT ( 'NONE',  ( -1.499999999999999778, -0.7000000000000000666, 3.200000000000000178 ) ) ;
#633 = APPLICATION_PROTOCOL_DEFINITION ( 'draft international standard', 'automotive_design', 1998, #752 ) ;
#634 = FACE_OUTER_BOUND ( 'NONE', #1113, .T. ) ;
#635 = FILL_AREA_STYLE ('',( #711 ) ) ;
#636 = VECTOR ( 'NONE', #545, 1000.000000000000000 ) ;
#637 = FACE_OUTER_BOUND ( 'NONE', #821, .T. ) ;
#638 = SURFACE_SIDE_STYLE ('',( #267 ) ) ;
#639 = FACE_OUTER_BOUND ( 'NONE', #1102, .T. ) ;
#640 = CARTESIAN_POINT ( 'NONE',  ( 1.500000000000000000, 0.6999999999999998446, 4.200000000000000178 ) ) ;
#641 = VERTEX_POINT ( 'NONE', #1180 ) ;
#642 = ADVANCED_FACE ( 'NONE', ( #639 ), #646, .F. ) ;
#643 = CARTESIAN_POINT ( 'NONE',  ( -3.000000000000000000, -0.4499999999999994560, 0.000000000000000000 ) ) ;
#644 = VECTOR ( 'NONE', #801, 1000.000000000000000 ) ;
#645 = VECTOR ( 'NONE', #141, 1000.000000000000000 ) ;
#646 = PLANE ( 'NONE',  #524 ) ;
#647 = VERTEX_POINT ( 'NONE', #815 ) ;
#648 = FILL_AREA_STYLE ('',( #242 ) ) ;
#649 = ORIENTED_EDGE ( 'NONE', *, *, #350, .F. ) ;
#650 = CARTESIAN_POINT ( 'NONE',  ( 3.000000000000000000, -0.4499999999999994560, 1.000000000000000000 ) ) ;
#651 = CARTESIAN_POINT ( 'NONE',  ( 3.000000000000000000, 0.4500000000000005662, 1.000000000000000000 ) ) ;
#652 = EDGE_LOOP ( 'NONE', ( #201, #265, #412, #271 ) ) ;
#653 = CARTESIAN_POINT ( 'NONE',  ( -1.500000000000000000, 0.6999999999999998446, 4.200000000000000178 ) ) ;
#654 = MECHANICAL_DESIGN_GEOMETRIC_PRESENTATION_REPRESENTATION (  '', ( #227 ), #91 ) ;
#655 = UNCERTAINTY_MEASURE_WITH_UNIT (LENGTH_MEASURE( 1.000000000000000082E-05 ), #1117, 'distance_accuracy_value', 'NONE');
#656 = EDGE_LOOP ( 'NONE', ( #929, #680, #1031, #102 ) ) ;
#657 = ORIENTED_EDGE ( 'NONE', *, *, #130, .T. ) ;
#658 = ORIENTED_EDGE ( 'NONE', *, *, #380, .T. ) ;
#659 = STYLED_ITEM ( 'NONE', ( #491 ), #1064 ) ;
#660 = EDGE_CURVE ( 'NONE', #368, #87, #1009, .T. ) ;
#661 = MANIFOLD_SOLID_BREP ( 'Boss-Extrude6', #576 ) ;
#662 = ORIENTED_EDGE ( 'NONE', *, *, #281, .F. ) ;
#663 = ORIENTED_EDGE ( 'NONE', *, *, #500, .F. ) ;
#664 = ORIENTED_EDGE ( 'NONE', *, *, #470, .T. ) ;
#665 = UNCERTAINTY_MEASURE_WITH_UNIT (LENGTH_MEASURE( 1.000000000000000082E-05 ), #152, 'distance_accuracy_value', 'NONE');
#666 = ORIENTED_EDGE ( 'NONE', *, *, #522, .F. ) ;
#667 = EDGE_CURVE ( 'NONE', #508, #1027, #1151, .T. ) ;
#668 = ORIENTED_EDGE ( 'NONE', *, *, #301, .T. ) ;
#669 = COLOUR_RGB ( '',0.2509803921568627416, 0.2509803921568627416, 0.2509803921568627416 ) ;
#670 = CARTESIAN_POINT ( 'NONE',  ( -1.500000000000000000, 0.6999999999999998446, 4.200000000000000178 ) ) ;
#671 = PRESENTATION_LAYER_ASSIGNMENT (  '', '', ( #12 ) ) ;
#672 = ORIENTED_EDGE ( 'NONE', *, *, #167, .F. ) ;
#673 = DIRECTION ( 'NONE',  ( -0.000000000000000000, -0.000000000000000000, -1.000000000000000000 ) ) ;
#674 = CARTESIAN_POINT ( 'NONE',  ( -2.712419157981264206, -0.7000000000000000666, 3.700000000000000178 ) ) ;
#675 = EDGE_CURVE ( 'NONE', #1038, #1154, #312, .T. ) ;
#676 = PLANE ( 'NONE',  #494 ) ;
#677 = COLOUR_RGB ( '',0.2509803921568627416, 0.2509803921568627416, 0.2509803921568627416 ) ;
#678 = AXIS2_PLACEMENT_3D ( 'NONE', #980, #259, #441 ) ;
#679 = COLOUR_RGB ( '',0.2509803921568627416, 0.2509803921568627416, 0.2509803921568627416 ) ;
#680 = ORIENTED_EDGE ( 'NONE', *, *, #65, .T. ) ;
#681 = VERTEX_POINT ( 'NONE', #413 ) ;
#682 = DIRECTION ( 'NONE',  ( 0.000000000000000000, -0.000000000000000000, 1.000000000000000000 ) ) ;
#683 = CARTESIAN_POINT ( 'NONE',  ( 1.500000000000000000, 0.6999999999999998446, 3.200000000000000178 ) ) ;
#684 = ORIENTED_EDGE ( 'NONE', *, *, #833, .T. ) ;
#685 = DIRECTION ( 'NONE',  ( -1.000000000000000000, -0.000000000000000000, -0.000000000000000000 ) ) ;
#686 = MECHANICAL_DESIGN_GEOMETRIC_PRESENTATION_REPRESENTATION (  '', ( #838 ), #1014 ) ;
#687 = EDGE_CURVE ( 'NONE', #133, #1020, #407, .T. ) ;
#688 = ORIENTED_EDGE ( 'NONE', *, *, #463, .T. ) ;
#689 = LINE ( 'NONE', #1047, #415 ) ;
#690 = DIRECTION ( 'NONE',  ( 0.000000000000000000, -1.000000000000000000, 0.000000000000000000 ) ) ;
#691 = FILL_AREA_STYLE_COLOUR ( '', #1049 ) ;
#692 = PLANE ( 'NONE',  #874 ) ;
#693 = ORIENTED_EDGE ( 'NONE', *, *, #565, .F. ) ;
#694 = AXIS2_PLACEMENT_3D ( 'NONE', #110, #485, #857 ) ;
#695 = ADVANCED_FACE ( 'NONE', ( #220 ), #887, .F. ) ;
#696 = SURFACE_STYLE_USAGE ( .BOTH. , #868 ) ;
#697 = AXIS2_PLACEMENT_3D ( 'NONE', #653, #566, #183 ) ;
#698 = DIRECTION ( 'NONE',  ( -0.000000000000000000, -0.000000000000000000, -1.000000000000000000 ) ) ;
#699 = ADVANCED_BREP_SHAPE_REPRESENTATION ( 'pulsador smd', ( #661, #678 ), #807 ) ;
#700 = SURFACE_STYLE_FILL_AREA ( #47 ) ;
#701 = DIRECTION ( 'NONE',  ( -0.000000000000000000, 0.000000000000000000, 1.000000000000000000 ) ) ;
#702 = DIRECTION ( 'NONE',  ( 0.000000000000000000, 0.000000000000000000, -1.000000000000000000 ) ) ;
#703 = VERTEX_POINT ( 'NONE', #321 ) ;
#704 = FILL_AREA_STYLE ('',( #708 ) ) ;
#705 =( LENGTH_UNIT ( ) NAMED_UNIT ( * ) SI_UNIT ( .MILLI., .METRE. ) );
#706 = DIRECTION ( 'NONE',  ( -0.000000000000000000, -0.000000000000000000, -1.000000000000000000 ) ) ;
#707 = PRODUCT_CONTEXT ( 'NONE', #279, 'mechanical' ) ;
#708 = FILL_AREA_STYLE_COLOUR ( '', #941 ) ;
#709 = VECTOR ( 'NONE', #698, 1000.000000000000000 ) ;
#710 = COLOUR_RGB ( '',0.2509803921568627416, 0.2509803921568627416, 0.2509803921568627416 ) ;
#711 = FILL_AREA_STYLE_COLOUR ( '', #958 ) ;
#712 = PRESENTATION_STYLE_ASSIGNMENT (( #976 ) ) ;
#713 = CARTESIAN_POINT ( 'NONE',  ( 0.000000000000000000, 0.000000000000000000, 4.200000000000000178 ) ) ;
#714 = EDGE_CURVE ( 'NONE', #317, #1027, #142, .T. ) ;
#715 = LINE ( 'NONE', #1164, #215 ) ;
#716 = CARTESIAN_POINT ( 'NONE',  ( 0.000000000000000000, 0.4500000000000005662, 1.000000000000000000 ) ) ;
#717 = SURFACE_STYLE_USAGE ( .BOTH. , #1079 ) ;
#718 = LINE ( 'NONE', #320, #858 ) ;
#719 = CARTESIAN_POINT ( 'NONE',  ( 2.712419157981264206, -0.7000000000000000666, 3.700000000000000178 ) ) ;
#720 =( GEOMETRIC_REPRESENTATION_CONTEXT ( 3 ) GLOBAL_UNCERTAINTY_ASSIGNED_CONTEXT ( ( #665 ) ) GLOBAL_UNIT_ASSIGNED_CONTEXT ( ( #152, #626, #891 ) ) REPRESENTATION_CONTEXT ( 'NONE', 'WORKASPACE' ) );
#721 = LINE ( 'NONE', #1007, #919 ) ;
#722 = DIRECTION ( 'NONE',  ( 1.000000000000000000, 0.000000000000000000, 0.000000000000000000 ) ) ;
#723 = MECHANICAL_DESIGN_GEOMETRIC_PRESENTATION_REPRESENTATION (  '', ( #1008 ), #556 ) ;
#724 = LINE ( 'NONE', #640, #983 ) ;
#725 = LINE ( 'NONE', #627, #1075 ) ;
#726 =( NAMED_UNIT ( * ) PLANE_ANGLE_UNIT ( ) SI_UNIT ( $, .RADIAN. ) );
#727 = LINE ( 'NONE', #827, #1145 ) ;
#728 = DIRECTION ( 'NONE',  ( -1.000000000000000000, -0.000000000000000000, -0.000000000000000000 ) ) ;
#729 = EDGE_CURVE ( 'NONE', #544, #875, #510, .T. ) ;
#730 = SURFACE_SIDE_STYLE ('',( #537 ) ) ;
#731 = ORIENTED_EDGE ( 'NONE', *, *, #1112, .T. ) ;
#732 =( LENGTH_UNIT ( ) NAMED_UNIT ( * ) SI_UNIT ( .MILLI., .METRE. ) );
#733 = FILL_AREA_STYLE_COLOUR ( '', #1190 ) ;
#734 = CARTESIAN_POINT ( 'NONE',  ( 1.500000000000000000, 0.6999999999999998446, 3.200000000000000178 ) ) ;
#735 = ADVANCED_FACE ( 'NONE', ( #400 ), #46, .F. ) ;
#736 = ORIENTED_EDGE ( 'NONE', *, *, #338, .T. ) ;
#737 = VECTOR ( 'NONE', #529, 1000.000000000000000 ) ;
#738 = PRESENTATION_STYLE_ASSIGNMENT (( #912 ) ) ;
#739 = VECTOR ( 'NONE', #351, 1000.000000000000000 ) ;
#740 = CARTESIAN_POINT ( 'NONE',  ( 3.000000000000000000, 0.4500000000000005662, 1.000000000000000000 ) ) ;
#741 = DIRECTION ( 'NONE',  ( 0.000000000000000000, -1.000000000000000000, 0.000000000000000000 ) ) ;
#742 = VECTOR ( 'NONE', #495, 1000.000000000000000 ) ;
#743 = ORIENTED_EDGE ( 'NONE', *, *, #247, .T. ) ;
#744 = PRESENTATION_STYLE_ASSIGNMENT (( #1176 ) ) ;
#745 =( NAMED_UNIT ( * ) PLANE_ANGLE_UNIT ( ) SI_UNIT ( $, .RADIAN. ) );
#746 = VERTEX_POINT ( 'NONE', #719 ) ;
#747 = SURFACE_SIDE_STYLE ('',( #837 ) ) ;
#748 =( GEOMETRIC_REPRESENTATION_CONTEXT ( 3 ) GLOBAL_UNCERTAINTY_ASSIGNED_CONTEXT ( ( #561 ) ) GLOBAL_UNIT_ASSIGNED_CONTEXT ( ( #121, #726, #170 ) ) REPRESENTATION_CONTEXT ( 'NONE', 'WORKASPACE' ) );
#749 = EDGE_CURVE ( 'NONE', #759, #558, #1010, .T. ) ;
#750 = ORIENTED_EDGE ( 'NONE', *, *, #797, .F. ) ;
#751 = EDGE_LOOP ( 'NONE', ( #467, #274, #28, #397 ) ) ;
#752 = APPLICATION_CONTEXT ( 'automotive_design' ) ;
#753 = PLANE ( 'NONE',  #61 ) ;
#754 = CARTESIAN_POINT ( 'NONE',  ( 3.599901648419604250, -0.4499999999999994560, 1.000000000000000000 ) ) ;
#755 = COLOUR_RGB ( '',0.2509803921568627416, 0.2509803921568627416, 0.2509803921568627416 ) ;
#756 = MECHANICAL_DESIGN_GEOMETRIC_PRESENTATION_REPRESENTATION (  '', ( #278 ), #600 ) ;
#757 = EDGE_LOOP ( 'NONE', ( #954, #1005, #664, #93, #663, #918, #845, #286 ) ) ;
#758 = VECTOR ( 'NONE', #477, 1000.000000000000000 ) ;
#759 = VERTEX_POINT ( 'NONE', #148 ) ;
#760 = FILL_AREA_STYLE_COLOUR ( '', #116 ) ;
#761 = PRESENTATION_STYLE_ASSIGNMENT (( #776 ) ) ;
#762 = ORIENTED_EDGE ( 'NONE', *, *, #338, .F. ) ;
#763 = LINE ( 'NONE', #1138, #181 ) ;
#764 = COLOUR_RGB ( '',0.7921568627450980005, 0.8196078431372548767, 0.9333333333333333481 ) ;
#765 = VECTOR ( 'NONE', #614, 1000.000000000000000 ) ;
#766 = ORIENTED_EDGE ( 'NONE', *, *, #942, .F. ) ;
#767 = FACE_BOUND ( 'NONE', #932, .T. ) ;
#768 = DIRECTION ( 'NONE',  ( 0.000000000000000000, -0.000000000000000000, -1.000000000000000000 ) ) ;
#769 = AXIS2_PLACEMENT_3D ( 'NONE', #1157, #332, #232 ) ;
#770 = VECTOR ( 'NONE', #685, 1000.000000000000000 ) ;
#771 = ORIENTED_EDGE ( 'NONE', *, *, #936, .T. ) ;
#772 = LINE ( 'NONE', #960, #1078 ) ;
#773 = SURFACE_STYLE_USAGE ( .BOTH. , #1132 ) ;
#774 = EDGE_CURVE ( 'NONE', #1038, #945, #163, .T. ) ;
#775 = ADVANCED_FACE ( 'NONE', ( #345 ), #1081, .F. ) ;
#776 = SURFACE_STYLE_USAGE ( .BOTH. , #124 ) ;
#777 = VERTEX_POINT ( 'NONE', #1101 ) ;
#778 = DIRECTION ( 'NONE',  ( -1.000000000000000000, 0.000000000000000000, 0.000000000000000000 ) ) ;
#779 = CARTESIAN_POINT ( 'NONE',  ( 3.000000000000000000, 1.750000000000000222, 3.000000000000000000 ) ) ;
#780 = DIRECTION ( 'NONE',  ( 1.000000000000000000, 0.000000000000000000, 0.000000000000000000 ) ) ;
#781 =( LENGTH_UNIT ( ) NAMED_UNIT ( * ) SI_UNIT ( .MILLI., .METRE. ) );
#782 = ADVANCED_FACE ( 'NONE', ( #264 ), #824, .F. ) ;
#783 = CARTESIAN_POINT ( 'NONE',  ( 0.000000000000000000, 0.000000000000000000, 0.000000000000000000 ) ) ;
#784 =( GEOMETRIC_REPRESENTATION_CONTEXT ( 3 ) GLOBAL_UNCERTAINTY_ASSIGNED_CONTEXT ( ( #1108 ) ) GLOBAL_UNIT_ASSIGNED_CONTEXT ( ( #401, #236, #1152 ) ) REPRESENTATION_CONTEXT ( 'NONE', 'WORKASPACE' ) );
#785 = ORIENTED_EDGE ( 'NONE', *, *, #1103, .F. ) ;
#786 =( NAMED_UNIT ( * ) SI_UNIT ( $, .STERADIAN. ) SOLID_ANGLE_UNIT ( ) );
#787 =( GEOMETRIC_REPRESENTATION_CONTEXT ( 3 ) GLOBAL_UNCERTAINTY_ASSIGNED_CONTEXT ( ( #848 ) ) GLOBAL_UNIT_ASSIGNED_CONTEXT ( ( #260, #745, #437 ) ) REPRESENTATION_CONTEXT ( 'NONE', 'WORKASPACE' ) );
#788 = LINE ( 'NONE', #229, #765 ) ;
#789 =( LENGTH_UNIT ( ) NAMED_UNIT ( * ) SI_UNIT ( .MILLI., .METRE. ) );
#790 = DIRECTION ( 'NONE',  ( 0.000000000000000000, 0.000000000000000000, -1.000000000000000000 ) ) ;
#791 = ORIENTED_EDGE ( 'NONE', *, *, #372, .F. ) ;
#792 = AXIS2_PLACEMENT_3D ( 'NONE', #716, #615, #702 ) ;
#793 =( NAMED_UNIT ( * ) PLANE_ANGLE_UNIT ( ) SI_UNIT ( $, .RADIAN. ) );
#794 = CARTESIAN_POINT ( 'NONE',  ( 0.000000000000000000, 0.4500000000000005662, 1.000000000000000000 ) ) ;
#795 = PLANE ( 'NONE',  #1195 ) ;
#796 = CARTESIAN_POINT ( 'NONE',  ( 0.000000000000000000, 0.000000000000000000, 3.200000000000000178 ) ) ;
#797 = EDGE_CURVE ( 'NONE', #569, #508, #813, .T. ) ;
#798 = PRESENTATION_STYLE_ASSIGNMENT (( #57 ) ) ;
#799 = SURFACE_SIDE_STYLE ('',( #605 ) ) ;
#800 = DIRECTION ( 'NONE',  ( 0.000000000000000000, -1.000000000000000000, 0.000000000000000000 ) ) ;
#801 = DIRECTION ( 'NONE',  ( 1.000000000000000000, 0.000000000000000000, 0.000000000000000000 ) ) ;
#802 = AXIS2_PLACEMENT_3D ( 'NONE', #440, #1018, #1096 ) ;
#803 = DIRECTION ( 'NONE',  ( 1.000000000000000000, 0.000000000000000000, -0.000000000000000000 ) ) ;
#804 = UNCERTAINTY_MEASURE_WITH_UNIT (LENGTH_MEASURE( 1.000000000000000082E-05 ), #245, 'distance_accuracy_value', 'NONE');
#805 =( NAMED_UNIT ( * ) SI_UNIT ( $, .STERADIAN. ) SOLID_ANGLE_UNIT ( ) );
#806 = DIRECTION ( 'NONE',  ( -0.000000000000000000, 1.000000000000000000, 0.000000000000000000 ) ) ;
#807 =( GEOMETRIC_REPRESENTATION_CONTEXT ( 3 ) GLOBAL_UNCERTAINTY_ASSIGNED_CONTEXT ( ( #1001 ) ) GLOBAL_UNIT_ASSIGNED_CONTEXT ( ( #45, #424, #147 ) ) REPRESENTATION_CONTEXT ( 'NONE', 'WORKASPACE' ) );
#808 = VECTOR ( 'NONE', #151, 1000.000000000000000 ) ;
#809 =( LENGTH_UNIT ( ) NAMED_UNIT ( * ) SI_UNIT ( .MILLI., .METRE. ) );
#810 = LINE ( 'NONE', #439, #406 ) ;
#811 = VECTOR ( 'NONE', #16, 1000.000000000000000 ) ;
#812 = FACE_OUTER_BOUND ( 'NONE', #442, .T. ) ;
#813 = LINE ( 'NONE', #740, #426 ) ;
#814 = STYLED_ITEM ( 'NONE', ( #1178 ), #269 ) ;
#815 = CARTESIAN_POINT ( 'NONE',  ( 2.712419157981264206, -0.7000000000000000666, 3.200000000000000178 ) ) ;
#816 = EDGE_CURVE ( 'NONE', #1027, #1206, #913, .T. ) ;
#817 =( NAMED_UNIT ( * ) SI_UNIT ( $, .STERADIAN. ) SOLID_ANGLE_UNIT ( ) );
#818 = ADVANCED_FACE ( 'NONE', ( #166 ), #80, .F. ) ;
#819 = DIRECTION ( 'NONE',  ( -0.000000000000000000, -0.000000000000000000, -1.000000000000000000 ) ) ;
#820 = VECTOR ( 'NONE', #516, 1000.000000000000000 ) ;
#821 = EDGE_LOOP ( 'NONE', ( #451, #487, #851, #688 ) ) ;
#822 = VECTOR ( 'NONE', #706, 1000.000000000000000 ) ;
#823 = FILL_AREA_STYLE ('',( #894 ) ) ;
#824 = PLANE ( 'NONE',  #802 ) ;
#825 = SURFACE_STYLE_FILL_AREA ( #1097 ) ;
#826 = EDGE_LOOP ( 'NONE', ( #293, #186, #126, #78 ) ) ;
#827 = CARTESIAN_POINT ( 'NONE',  ( 3.000000000000000000, -1.749999999999999778, 3.000000000000000000 ) ) ;
#828 =( GEOMETRIC_REPRESENTATION_CONTEXT ( 3 ) GLOBAL_UNCERTAINTY_ASSIGNED_CONTEXT ( ( #804 ) ) GLOBAL_UNIT_ASSIGNED_CONTEXT ( ( #245, #1171, #139 ) ) REPRESENTATION_CONTEXT ( 'NONE', 'WORKASPACE' ) );
#829 = VECTOR ( 'NONE', #509, 1000.000000000000000 ) ;
#830 = DIRECTION ( 'NONE',  ( -1.000000000000000000, -3.097720492815727166E-16, 0.000000000000000000 ) ) ;
#831 = VECTOR ( 'NONE', #1172, 1000.000000000000000 ) ;
#832 = EDGE_LOOP ( 'NONE', ( #1095, #766, #649, #882, #1105, #911, #921, #836, #474, #577, #855, #164 ) ) ;
#833 = EDGE_CURVE ( 'NONE', #353, #180, #434, .T. ) ;
#834 = DIRECTION ( 'NONE',  ( 1.000000000000000000, 0.000000000000000000, 0.000000000000000000 ) ) ;
#835 = ORIENTED_EDGE ( 'NONE', *, *, #8, .T. ) ;
#836 = ORIENTED_EDGE ( 'NONE', *, *, #992, .F. ) ;
#837 = SURFACE_STYLE_FILL_AREA ( #559 ) ;
#838 = STYLED_ITEM ( 'NONE', ( #1071 ), #661 ) ;
#839 =( NAMED_UNIT ( * ) PLANE_ANGLE_UNIT ( ) SI_UNIT ( $, .RADIAN. ) );
#840 = UNCERTAINTY_MEASURE_WITH_UNIT (LENGTH_MEASURE( 1.000000000000000082E-05 ), #99, 'distance_accuracy_value', 'NONE');
#841 = ORIENTED_EDGE ( 'NONE', *, *, #557, .F. ) ;
#842 = ORIENTED_EDGE ( 'NONE', *, *, #986, .T. ) ;
#843 = STYLED_ITEM ( 'NONE', ( #354 ), #1028 ) ;
#844 = ADVANCED_FACE ( 'NONE', ( #1163 ), #428, .T. ) ;
#845 = ORIENTED_EDGE ( 'NONE', *, *, #924, .T. ) ;
#846 = DIRECTION ( 'NONE',  ( 0.000000000000000000, 1.000000000000000000, 0.000000000000000000 ) ) ;
#847 = PLANE ( 'NONE',  #315 ) ;
#848 = UNCERTAINTY_MEASURE_WITH_UNIT (LENGTH_MEASURE( 1.000000000000000082E-05 ), #260, 'distance_accuracy_value', 'NONE');
#849 = ADVANCED_FACE ( 'NONE', ( #131 ), #692, .T. ) ;
#850 = ORIENTED_EDGE ( 'NONE', *, *, #1120, .F. ) ;
#851 = ORIENTED_EDGE ( 'NONE', *, *, #582, .F. ) ;
#852 = STYLED_ITEM ( 'NONE', ( #712 ), #735 ) ;
#853 = SURFACE_STYLE_FILL_AREA ( #117 ) ;
#854 = VECTOR ( 'NONE', #408, 1000.000000000000000 ) ;
#855 = ORIENTED_EDGE ( 'NONE', *, *, #816, .T. ) ;
#856 = ORIENTED_EDGE ( 'NONE', *, *, #25, .T. ) ;
#857 = DIRECTION ( 'NONE',  ( -4.818676322157797375E-16, 1.000000000000000000, 0.000000000000000000 ) ) ;
#858 = VECTOR ( 'NONE', #985, 1000.000000000000000 ) ;
#859 =( GEOMETRIC_REPRESENTATION_CONTEXT ( 3 ) GLOBAL_UNCERTAINTY_ASSIGNED_CONTEXT ( ( #284 ) ) GLOBAL_UNIT_ASSIGNED_CONTEXT ( ( #72, #1194, #900 ) ) REPRESENTATION_CONTEXT ( 'NONE', 'WORKASPACE' ) );
#860 = EDGE_LOOP ( 'NONE', ( #462, #188, #1015, #82 ) ) ;
#861 = CARTESIAN_POINT ( 'NONE',  ( -3.000000000000000000, 0.4500000000000005662, 1.000000000000000000 ) ) ;
#862 = COLOUR_RGB ( '',0.2509803921568627416, 0.2509803921568627416, 0.2509803921568627416 ) ;
#863 = CARTESIAN_POINT ( 'NONE',  ( 3.599901648419603806, 0.4500000000000005662, 1.000000000000000000 ) ) ;
#864 = EDGE_CURVE ( 'NONE', #703, #1109, #1052, .T. ) ;
#865 = CARTESIAN_POINT ( 'NONE',  ( -1.500000000000000000, 0.6999999999999998446, 3.200000000000000178 ) ) ;
#866 =( NAMED_UNIT ( * ) SI_UNIT ( $, .STERADIAN. ) SOLID_ANGLE_UNIT ( ) );
#867 = ORIENTED_EDGE ( 'NONE', *, *, #1120, .T. ) ;
#868 = SURFACE_SIDE_STYLE ('',( #503 ) ) ;
#869 =( NAMED_UNIT ( * ) PLANE_ANGLE_UNIT ( ) SI_UNIT ( $, .RADIAN. ) );
#870 = CARTESIAN_POINT ( 'NONE',  ( 0.000000000000000000, 0.7000000000000000666, 3.700000000000000178 ) ) ;
#871 = LINE ( 'NONE', #19, #1136 ) ;
#872 = VECTOR ( 'NONE', #250, 1000.000000000000000 ) ;
#873 = CARTESIAN_POINT ( 'NONE',  ( -1.499999999999999778, -0.7000000000000000666, 4.200000000000000178 ) ) ;
#874 = AXIS2_PLACEMENT_3D ( 'NONE', #713, #322, #780 ) ;
#875 = VERTEX_POINT ( 'NONE', #620 ) ;
#876 = SURFACE_STYLE_FILL_AREA ( #704 ) ;
#877 = CARTESIAN_POINT ( 'NONE',  ( -2.199934432279735397, 0.000000000000000000, 3.200000000000000178 ) ) ;
#878 = FILL_AREA_STYLE ('',( #53 ) ) ;
#879 = DIRECTION ( 'NONE',  ( 0.000000000000000000, 0.000000000000000000, -1.000000000000000000 ) ) ;
#880 = VECTOR ( 'NONE', #819, 1000.000000000000000 ) ;
#881 = EDGE_CURVE ( 'NONE', #703, #368, #123, .T. ) ;
#882 = ORIENTED_EDGE ( 'NONE', *, *, #597, .T. ) ;
#883 = PRESENTATION_LAYER_ASSIGNMENT (  '', '', ( #198 ) ) ;
#884 = MECHANICAL_DESIGN_GEOMETRIC_PRESENTATION_REPRESENTATION (  '', ( #98 ), #1153 ) ;
#885 = CARTESIAN_POINT ( 'NONE',  ( 3.599901648419603806, 1.734676083533636884E-15, 1.000000000000000000 ) ) ;
#886 = CARTESIAN_POINT ( 'NONE',  ( 3.599901648419604250, -0.4499999999999994560, 0.000000000000000000 ) ) ;
#887 = PLANE ( 'NONE',  #481 ) ;
#888 = VECTOR ( 'NONE', #507, 1000.000000000000000 ) ;
#889 = FACE_OUTER_BOUND ( 'NONE', #1148, .T. ) ;
#890 = DIRECTION ( 'NONE',  ( -3.097720492815727166E-16, 1.000000000000000000, -0.000000000000000000 ) ) ;
#891 =( NAMED_UNIT ( * ) SI_UNIT ( $, .STERADIAN. ) SOLID_ANGLE_UNIT ( ) );
#892 = DIRECTION ( 'NONE',  ( 0.000000000000000000, 1.000000000000000000, 0.000000000000000000 ) ) ;
#893 =( NAMED_UNIT ( * ) PLANE_ANGLE_UNIT ( ) SI_UNIT ( $, .RADIAN. ) );
#894 = FILL_AREA_STYLE_COLOUR ( '', #161 ) ;
#895 = DIRECTION ( 'NONE',  ( -0.000000000000000000, -0.000000000000000000, -1.000000000000000000 ) ) ;
#896 =( NAMED_UNIT ( * ) PLANE_ANGLE_UNIT ( ) SI_UNIT ( $, .RADIAN. ) );
#897 = CARTESIAN_POINT ( 'NONE',  ( 3.000000000000000000, 0.4500000000000007327, 0.000000000000000000 ) ) ;
#898 = DIRECTION ( 'NONE',  ( 1.000000000000000000, 0.000000000000000000, -0.000000000000000000 ) ) ;
#899 = EDGE_CURVE ( 'NONE', #945, #1140, #988, .T. ) ;
#900 =( NAMED_UNIT ( * ) SI_UNIT ( $, .STERADIAN. ) SOLID_ANGLE_UNIT ( ) );
#901 = SURFACE_STYLE_USAGE ( .BOTH. , #62 ) ;
#902 = PLANE ( 'NONE',  #1133 ) ;
#903 = PRESENTATION_LAYER_ASSIGNMENT (  '', '', ( #1006 ) ) ;
#904 = CARTESIAN_POINT ( 'NONE',  ( 3.000000000000000000, -1.749999999999999778, 3.200000000000000178 ) ) ;
#905 = CARTESIAN_POINT ( 'NONE',  ( 3.599901648419603806, 1.734676083533636884E-15, 0.000000000000000000 ) ) ;
#906 = EDGE_CURVE ( 'NONE', #569, #317, #788, .T. ) ;
#907 = AXIS2_PLACEMENT_3D ( 'NONE', #783, #790, #216 ) ;
#908 = SURFACE_STYLE_USAGE ( .BOTH. , #429 ) ;
#909 = SURFACE_SIDE_STYLE ('',( #825 ) ) ;
#910 = LINE ( 'NONE', #70, #196 ) ;
#911 = ORIENTED_EDGE ( 'NONE', *, *, #210, .F. ) ;
#912 = SURFACE_STYLE_USAGE ( .BOTH. , #920 ) ;
#913 = LINE ( 'NONE', #905, #872 ) ;
#914 = APPLICATION_PROTOCOL_DEFINITION ( 'draft international standard', 'automotive_design', 1998, #279 ) ;
#915 = SURFACE_SIDE_STYLE ('',( #998 ) ) ;
#916 = VECTOR ( 'NONE', #1158, 1000.000000000000000 ) ;
#917 = DIRECTION ( 'NONE',  ( -0.000000000000000000, 0.000000000000000000, -1.000000000000000000 ) ) ;
#918 = ORIENTED_EDGE ( 'NONE', *, *, #8, .F. ) ;
#919 = VECTOR ( 'NONE', #341, 1000.000000000000000 ) ;
#920 = SURFACE_SIDE_STYLE ('',( #629 ) ) ;
#921 = ORIENTED_EDGE ( 'NONE', *, *, #69, .F. ) ;
#922 =( NAMED_UNIT ( * ) SI_UNIT ( $, .STERADIAN. ) SOLID_ANGLE_UNIT ( ) );
#923 = FILL_AREA_STYLE ('',( #73 ) ) ;
#924 = EDGE_CURVE ( 'NONE', #558, #1137, #978, .T. ) ;
#925 = ORIENTED_EDGE ( 'NONE', *, *, #1200, .F. ) ;
#926 =( NAMED_UNIT ( * ) PLANE_ANGLE_UNIT ( ) SI_UNIT ( $, .RADIAN. ) );
#927 = UNCERTAINTY_MEASURE_WITH_UNIT (LENGTH_MEASURE( 1.000000000000000082E-05 ), #306, 'distance_accuracy_value', 'NONE');
#928 = VERTEX_POINT ( 'NONE', #1084 ) ;
#929 = ORIENTED_EDGE ( 'NONE', *, *, #557, .T. ) ;
#930 = ORIENTED_EDGE ( 'NONE', *, *, #660, .F. ) ;
#931 = PRESENTATION_STYLE_ASSIGNMENT (( #283 ) ) ;
#932 = EDGE_LOOP ( 'NONE', ( #609, #668, #1037, #21 ) ) ;
#933 = ORIENTED_EDGE ( 'NONE', *, *, #31, .F. ) ;
#934 = COLOUR_RGB ( '',0.2509803921568627416, 0.2509803921568627416, 0.2509803921568627416 ) ;
#935 = COLOUR_RGB ( '',0.2509803921568627416, 0.2509803921568627416, 0.2509803921568627416 ) ;
#936 = EDGE_CURVE ( 'NONE', #209, #1206, #810, .T. ) ;
#937 = VERTEX_POINT ( 'NONE', #643 ) ;
#938 = ORIENTED_EDGE ( 'NONE', *, *, #881, .F. ) ;
#939 = ORIENTED_EDGE ( 'NONE', *, *, #864, .F. ) ;
#940 = SURFACE_STYLE_FILL_AREA ( #1035 ) ;
#941 = COLOUR_RGB ( '',1.000000000000000000, 1.000000000000000000, 1.000000000000000000 ) ;
#942 = EDGE_CURVE ( 'NONE', #95, #353, #1175, .T. ) ;
#943 = CARTESIAN_POINT ( 'NONE',  ( -0.000000000000000000, -0.7000000000000000666, 3.200000000000000178 ) ) ;
#944 = VECTOR ( 'NONE', #722, 1000.000000000000000 ) ;
#945 = VERTEX_POINT ( 'NONE', #347 ) ;
#946 = DIRECTION ( 'NONE',  ( 1.000000000000000000, 0.000000000000000000, 0.000000000000000000 ) ) ;
#947 = EDGE_CURVE ( 'NONE', #1140, #681, #721, .T. ) ;
#948 = DIRECTION ( 'NONE',  ( -0.000000000000000000, -0.000000000000000000, -1.000000000000000000 ) ) ;
#949 = LINE ( 'NONE', #964, #599 ) ;
#950 = ORIENTED_EDGE ( 'NONE', *, *, #1184, .T. ) ;
#951 = DIRECTION ( 'NONE',  ( -0.000000000000000000, -1.000000000000000000, -0.000000000000000000 ) ) ;
#952 = PRESENTATION_LAYER_ASSIGNMENT (  '', '', ( #129 ) ) ;
#953 = SURFACE_SIDE_STYLE ('',( #13 ) ) ;
#954 = ORIENTED_EDGE ( 'NONE', *, *, #247, .F. ) ;
#955 = EDGE_CURVE ( 'NONE', #1193, #353, #727, .T. ) ;
#956 = DIRECTION ( 'NONE',  ( 4.818676322157797375E-16, 1.000000000000000000, 0.000000000000000000 ) ) ;
#957 = CARTESIAN_POINT ( 'NONE',  ( -3.000000000000000000, 1.750000000000000222, 0.000000000000000000 ) ) ;
#958 = COLOUR_RGB ( '',0.2509803921568627416, 0.2509803921568627416, 0.2509803921568627416 ) ;
#959 = ORIENTED_EDGE ( 'NONE', *, *, #500, .T. ) ;
#960 = CARTESIAN_POINT ( 'NONE',  ( 0.000000000000000000, 0.4500000000000005662, 1.000000000000000000 ) ) ;
#961 = MECHANICAL_DESIGN_GEOMETRIC_PRESENTATION_REPRESENTATION (  '', ( #814 ), #1119 ) ;
#962 = CARTESIAN_POINT ( 'NONE',  ( 2.199934432279735397, 0.000000000000000000, 3.700000000000000178 ) ) ;
#963 = DIRECTION ( 'NONE',  ( -0.000000000000000000, 0.000000000000000000, -1.000000000000000000 ) ) ;
#964 = CARTESIAN_POINT ( 'NONE',  ( -0.000000000000000000, -0.7000000000000000666, 3.200000000000000178 ) ) ;
#965 = CARTESIAN_POINT ( 'NONE',  ( 0.000000000000000000, -0.4499999999999994560, 1.000000000000000000 ) ) ;
#966 = ORIENTED_EDGE ( 'NONE', *, *, #319, .T. ) ;
#967 = PLANE ( 'NONE',  #1041 ) ;
#968 = CARTESIAN_POINT ( 'NONE',  ( 1.500000000000000444, -0.7000000000000000666, 4.200000000000000178 ) ) ;
#969 = DIRECTION ( 'NONE',  ( 1.000000000000000000, 0.000000000000000000, -0.000000000000000000 ) ) ;
#970 = EDGE_CURVE ( 'NONE', #1193, #759, #165, .T. ) ;
#971 = SURFACE_STYLE_USAGE ( .BOTH. , #222 ) ;
#972 = LINE ( 'NONE', #308, #340 ) ;
#973 = MECHANICAL_DESIGN_GEOMETRIC_PRESENTATION_REPRESENTATION (  '', ( #12 ), #784 ) ;
#974 = ORIENTED_EDGE ( 'NONE', *, *, #470, .F. ) ;
#975 = DIRECTION ( 'NONE',  ( 0.000000000000000000, 0.000000000000000000, -1.000000000000000000 ) ) ;
#976 = SURFACE_STYLE_USAGE ( .BOTH. , #226 ) ;
#977 = VERTEX_POINT ( 'NONE', #650 ) ;
#978 = LINE ( 'NONE', #144, #252 ) ;
#979 = DIRECTION ( 'NONE',  ( 0.000000000000000000, -1.000000000000000000, 0.000000000000000000 ) ) ;
#980 = CARTESIAN_POINT ( 'NONE',  ( 0.000000000000000000, 0.000000000000000000, 0.000000000000000000 ) ) ;
#981 = LINE ( 'NONE', #55, #888 ) ;
#982 = MECHANICAL_DESIGN_GEOMETRIC_PRESENTATION_REPRESENTATION (  '', ( #198 ), #787 ) ;
#983 = VECTOR ( 'NONE', #162, 1000.000000000000000 ) ;
#984 = LINE ( 'NONE', #610, #645 ) ;
#985 = DIRECTION ( 'NONE',  ( -0.000000000000000000, -0.000000000000000000, -1.000000000000000000 ) ) ;
#986 = EDGE_CURVE ( 'NONE', #182, #1020, #172, .T. ) ;
#987 = DIRECTION ( 'NONE',  ( -1.000000000000000000, 0.000000000000000000, -0.000000000000000000 ) ) ;
#988 = LINE ( 'NONE', #1065, #854 ) ;
#989 = DIRECTION ( 'NONE',  ( -0.000000000000000000, 1.000000000000000000, 0.000000000000000000 ) ) ;
#990 = SURFACE_STYLE_FILL_AREA ( #527 ) ;
#991 = LINE ( 'NONE', #534, #575 ) ;
#992 = EDGE_CURVE ( 'NONE', #292, #1137, #333, .T. ) ;
#993 =( NAMED_UNIT ( * ) PLANE_ANGLE_UNIT ( ) SI_UNIT ( $, .RADIAN. ) );
#994 = FACE_OUTER_BOUND ( 'NONE', #751, .T. ) ;
#995 = SURFACE_STYLE_FILL_AREA ( #330 ) ;
#996 = ADVANCED_FACE ( 'NONE', ( #64 ), #1089, .T. ) ;
#997 = FACE_OUTER_BOUND ( 'NONE', #1050, .T. ) ;
#998 = SURFACE_STYLE_FILL_AREA ( #648 ) ;
#999 = SURFACE_SIDE_STYLE ('',( #1187 ) ) ;
#1000 = SURFACE_STYLE_USAGE ( .BOTH. , #638 ) ;
#1001 = UNCERTAINTY_MEASURE_WITH_UNIT (LENGTH_MEASURE( 1.000000000000000082E-05 ), #45, 'distance_accuracy_value', 'NONE');
#1002 = LINE ( 'NONE', #1090, #808 ) ;
#1003 = CARTESIAN_POINT ( 'NONE',  ( -3.000000000000000000, -1.749999999999999778, 3.200000000000000178 ) ) ;
#1004 = VECTOR ( 'NONE', #15, 1000.000000000000000 ) ;
#1005 = ORIENTED_EDGE ( 'NONE', *, *, #24, .F. ) ;
#1006 = STYLED_ITEM ( 'NONE', ( #931 ), #1040 ) ;
#1007 = CARTESIAN_POINT ( 'NONE',  ( -2.712419157981264206, -0.7000000000000000666, 3.700000000000000178 ) ) ;
#1008 = STYLED_ITEM ( 'NONE', ( #761 ), #343 ) ;
#1009 = LINE ( 'NONE', #173, #1144 ) ;
#1010 = LINE ( 'NONE', #1094, #547 ) ;
#1011 = ORIENTED_EDGE ( 'NONE', *, *, #606, .F. ) ;
#1012 = ADVANCED_FACE ( 'NONE', ( #812 ), #1168, .F. ) ;
#1013 = ORIENTED_EDGE ( 'NONE', *, *, #541, .F. ) ;
#1014 =( GEOMETRIC_REPRESENTATION_CONTEXT ( 3 ) GLOBAL_UNCERTAINTY_ASSIGNED_CONTEXT ( ( #1201 ) ) GLOBAL_UNIT_ASSIGNED_CONTEXT ( ( #705, #893, #1162 ) ) REPRESENTATION_CONTEXT ( 'NONE', 'WORKASPACE' ) );
#1015 = ORIENTED_EDGE ( 'NONE', *, *, #50, .T. ) ;
#1016 =( NAMED_UNIT ( * ) PLANE_ANGLE_UNIT ( ) SI_UNIT ( $, .RADIAN. ) );
#1017 = ORIENTED_EDGE ( 'NONE', *, *, #178, .F. ) ;
#1018 = DIRECTION ( 'NONE',  ( -1.000000000000000000, 0.000000000000000000, 0.000000000000000000 ) ) ;
#1019 = ORIENTED_EDGE ( 'NONE', *, *, #714, .F. ) ;
#1020 = VERTEX_POINT ( 'NONE', #243 ) ;
#1021 = MECHANICAL_DESIGN_GEOMETRIC_PRESENTATION_REPRESENTATION (  '', ( #1191 ), #334 ) ;
#1022 = PLANE ( 'NONE',  #1118 ) ;
#1023 =( GEOMETRIC_REPRESENTATION_CONTEXT ( 3 ) GLOBAL_UNCERTAINTY_ASSIGNED_CONTEXT ( ( #101 ) ) GLOBAL_UNIT_ASSIGNED_CONTEXT ( ( #266, #1016, #94 ) ) REPRESENTATION_CONTEXT ( 'NONE', 'WORKASPACE' ) );
#1024 = LINE ( 'NONE', #1092, #880 ) ;
#1025 =( GEOMETRIC_REPRESENTATION_CONTEXT ( 3 ) GLOBAL_UNCERTAINTY_ASSIGNED_CONTEXT ( ( #189 ) ) GLOBAL_UNIT_ASSIGNED_CONTEXT ( ( #781, #38, #244 ) ) REPRESENTATION_CONTEXT ( 'NONE', 'WORKASPACE' ) );
#1026 = VECTOR ( 'NONE', #979, 1000.000000000000000 ) ;
#1027 = VERTEX_POINT ( 'NONE', #517 ) ;
#1028 = ADVANCED_FACE ( 'NONE', ( #637 ), #427, .F. ) ;
#1029 = ORIENTED_EDGE ( 'NONE', *, *, #992, .T. ) ;
#1030 = ORIENTED_EDGE ( 'NONE', *, *, #565, .T. ) ;
#1031 = ORIENTED_EDGE ( 'NONE', *, *, #582, .T. ) ;
#1032 = ORIENTED_EDGE ( 'NONE', *, *, #463, .F. ) ;
#1033 = EDGE_CURVE ( 'NONE', #1125, #1154, #365, .T. ) ;
#1034 = PRESENTATION_LAYER_ASSIGNMENT (  '', '', ( #852 ) ) ;
#1035 = FILL_AREA_STYLE ('',( #760 ) ) ;
#1036 = DIRECTION ( 'NONE',  ( 0.000000000000000000, -1.000000000000000000, 0.000000000000000000 ) ) ;
#1037 = ORIENTED_EDGE ( 'NONE', *, *, #465, .F. ) ;
#1038 = VERTEX_POINT ( 'NONE', #464 ) ;
#1039 = FACE_OUTER_BOUND ( 'NONE', #1061, .T. ) ;
#1040 = ADVANCED_FACE ( 'NONE', ( #469 ), #1022, .F. ) ;
#1041 = AXIS2_PLACEMENT_3D ( 'NONE', #796, #1070, #898 ) ;
#1042 = ORIENTED_EDGE ( 'NONE', *, *, #156, .F. ) ;
#1043 = LINE ( 'NONE', #303, #1100 ) ;
#1044 = CARTESIAN_POINT ( 'NONE',  ( -2.199934432279735397, 0.7000000000000000666, 3.200000000000000178 ) ) ;
#1045 = DIRECTION ( 'NONE',  ( -1.000000000000000000, 0.000000000000000000, 0.000000000000000000 ) ) ;
#1046 = ORIENTED_EDGE ( 'NONE', *, *, #687, .T. ) ;
#1047 = CARTESIAN_POINT ( 'NONE',  ( -2.199934432279735397, -0.7000000000000000666, 3.700000000000000178 ) ) ;
#1048 =( LENGTH_UNIT ( ) NAMED_UNIT ( * ) SI_UNIT ( .MILLI., .METRE. ) );
#1049 = COLOUR_RGB ( '',0.2509803921568627416, 0.2509803921568627416, 0.2509803921568627416 ) ;
#1050 = EDGE_LOOP ( 'NONE', ( #224, #86, #171, #950 ) ) ;
#1051 = ORIENTED_EDGE ( 'NONE', *, *, #970, .F. ) ;
#1052 = LINE ( 'NONE', #1072, #822 ) ;
#1053 = CARTESIAN_POINT ( 'NONE',  ( -3.000000000000000000, -0.4499999999999994560, 1.000000000000000000 ) ) ;
#1054 = AXIS2_PLACEMENT_3D ( 'NONE', #234, #360, #987 ) ;
#1055 = EDGE_LOOP ( 'NONE', ( #502, #1032, #1130, #538 ) ) ;
#1056 = FACE_OUTER_BOUND ( 'NONE', #218, .T. ) ;
#1057 = ADVANCED_FACE ( 'NONE', ( #192 ), #753, .F. ) ;
#1058 = LINE ( 'NONE', #877, #17 ) ;
#1059 = SURFACE_STYLE_FILL_AREA ( #518 ) ;
#1060 = LINE ( 'NONE', #140, #1099 ) ;
#1061 = EDGE_LOOP ( 'NONE', ( #842, #92, #459, #84 ) ) ;
#1062 =( NAMED_UNIT ( * ) PLANE_ANGLE_UNIT ( ) SI_UNIT ( $, .RADIAN. ) );
#1063 = CARTESIAN_POINT ( 'NONE',  ( -1.499999999999999778, -0.7000000000000000666, 4.200000000000000178 ) ) ;
#1064 = ADVANCED_FACE ( 'NONE', ( #1 ), #498, .T. ) ;
#1065 = CARTESIAN_POINT ( 'NONE',  ( 0.000000000000000000, -0.7000000000000000666, 3.700000000000000178 ) ) ;
#1066 = COLOUR_RGB ( '',0.2509803921568627416, 0.2509803921568627416, 0.2509803921568627416 ) ;
#1067 = PLANE ( 'NONE',  #907 ) ;
#1068 = STYLED_ITEM ( 'NONE', ( #738 ), #996 ) ;
#1069 = EDGE_CURVE ( 'NONE', #875, #4, #11, .T. ) ;
#1070 = DIRECTION ( 'NONE',  ( 0.000000000000000000, 0.000000000000000000, 1.000000000000000000 ) ) ;
#1071 = PRESENTATION_STYLE_ASSIGNMENT (( #362 ) ) ;
#1072 = CARTESIAN_POINT ( 'NONE',  ( 2.712419157981264206, 0.7000000000000000666, 3.700000000000000178 ) ) ;
#1073 = DIRECTION ( 'NONE',  ( -1.000000000000000000, 0.000000000000000000, 0.000000000000000000 ) ) ;
#1074 = CARTESIAN_POINT ( 'NONE',  ( -3.000000000000000000, 1.750000000000000222, 3.200000000000000178 ) ) ;
#1075 = VECTOR ( 'NONE', #975, 1000.000000000000000 ) ;
#1076 = VECTOR ( 'NONE', #728, 1000.000000000000000 ) ;
#1077 = AXIS2_PLACEMENT_3D ( 'NONE', #1143, #580, #1150 ) ;
#1078 = VECTOR ( 'NONE', #497, 1000.000000000000000 ) ;
#1079 = SURFACE_SIDE_STYLE ('',( #876 ) ) ;
#1080 = FACE_OUTER_BOUND ( 'NONE', #195, .T. ) ;
#1081 = PLANE ( 'NONE',  #174 ) ;
#1082 = MECHANICAL_DESIGN_GEOMETRIC_PRESENTATION_REPRESENTATION (  '', ( #85 ), #63 ) ;
#1083 = DIRECTION ( 'NONE',  ( -0.000000000000000000, -0.000000000000000000, -1.000000000000000000 ) ) ;
#1084 = CARTESIAN_POINT ( 'NONE',  ( -2.712419157981264206, 0.7000000000000000666, 3.700000000000000178 ) ) ;
#1085 = PRESENTATION_STYLE_ASSIGNMENT (( #971 ) ) ;
#1086 = CARTESIAN_POINT ( 'NONE',  ( -3.000000000000000000, -0.4499999999999994560, 1.000000000000000000 ) ) ;
#1087 =( NAMED_UNIT ( * ) SI_UNIT ( $, .STERADIAN. ) SOLID_ANGLE_UNIT ( ) );
#1088 = CARTESIAN_POINT ( 'NONE',  ( -2.199934432279735397, 0.000000000000000000, 3.700000000000000178 ) ) ;
#1089 = PLANE ( 'NONE',  #473 ) ;
#1090 = CARTESIAN_POINT ( 'NONE',  ( -1.500000000000000000, 0.6999999999999998446, 4.200000000000000178 ) ) ;
#1091 = PRESENTATION_LAYER_ASSIGNMENT (  '', '', ( #405 ) ) ;
#1092 = CARTESIAN_POINT ( 'NONE',  ( -2.712419157981264206, 0.7000000000000000666, 3.700000000000000178 ) ) ;
#1093 = PRESENTATION_LAYER_ASSIGNMENT (  '', '', ( #1068 ) ) ;
#1094 = CARTESIAN_POINT ( 'NONE',  ( 3.000000000000000000, 1.750000000000000222, 3.200000000000000178 ) ) ;
#1095 = ORIENTED_EDGE ( 'NONE', *, *, #833, .F. ) ;
#1096 = DIRECTION ( 'NONE',  ( 0.000000000000000000, 0.000000000000000000, 1.000000000000000000 ) ) ;
#1097 = FILL_AREA_STYLE ('',( #733 ) ) ;
#1098 = FACE_OUTER_BOUND ( 'NONE', #1055, .T. ) ;
#1099 = VECTOR ( 'NONE', #890, 1000.000000000000000 ) ;
#1100 = VECTOR ( 'NONE', #778, 1000.000000000000000 ) ;
#1101 = CARTESIAN_POINT ( 'NONE',  ( -1.499999999999999778, -0.7000000000000000666, 3.200000000000000178 ) ) ;
#1102 = EDGE_LOOP ( 'NONE', ( #309, #390, #1126, #959 ) ) ;
#1103 = EDGE_CURVE ( 'NONE', #1154, #563, #1058, .T. ) ;
#1104 = SURFACE_STYLE_USAGE ( .BOTH. , #909 ) ;
#1105 = ORIENTED_EDGE ( 'NONE', *, *, #986, .F. ) ;
#1106 = DIRECTION ( 'NONE',  ( -1.000000000000000000, 0.000000000000000000, -0.000000000000000000 ) ) ;
#1107 = DIRECTION ( 'NONE',  ( 1.548860246407863583E-16, -1.000000000000000000, 0.000000000000000000 ) ) ;
#1108 = UNCERTAINTY_MEASURE_WITH_UNIT (LENGTH_MEASURE( 1.000000000000000082E-05 ), #401, 'distance_accuracy_value', 'NONE');
#1109 = VERTEX_POINT ( 'NONE', #219 ) ;
#1110 =( NAMED_UNIT ( * ) SI_UNIT ( $, .STERADIAN. ) SOLID_ANGLE_UNIT ( ) );
#1111 = ORIENTED_EDGE ( 'NONE', *, *, #411, .F. ) ;
#1112 = EDGE_CURVE ( 'NONE', #368, #59, #399, .T. ) ;
#1113 = EDGE_LOOP ( 'NONE', ( #1199, #367, #666, #555 ) ) ;
#1114 = EDGE_LOOP ( 'NONE', ( #693, #939, #966, #1122 ) ) ;
#1115 = ORIENTED_EDGE ( 'NONE', *, *, #31, .T. ) ;
#1116 = PRODUCT_DEFINITION_FORMATION_WITH_SPECIFIED_SOURCE ( 'ANY', '', #107, .NOT_KNOWN. ) ;
#1117 =( LENGTH_UNIT ( ) NAMED_UNIT ( * ) SI_UNIT ( .MILLI., .METRE. ) );
#1118 = AXIS2_PLACEMENT_3D ( 'NONE', #89, #476, #369 ) ;
#1119 =( GEOMETRIC_REPRESENTATION_CONTEXT ( 3 ) GLOBAL_UNCERTAINTY_ASSIGNED_CONTEXT ( ( #460 ) ) GLOBAL_UNIT_ASSIGNED_CONTEXT ( ( #185, #839, #817 ) ) REPRESENTATION_CONTEXT ( 'NONE', 'WORKASPACE' ) );
#1120 = EDGE_CURVE ( 'NONE', #759, #292, #35, .T. ) ;
#1121 = ORIENTED_EDGE ( 'NONE', *, *, #675, .F. ) ;
#1122 = ORIENTED_EDGE ( 'NONE', *, *, #281, .T. ) ;
#1123 = DIRECTION ( 'NONE',  ( 0.000000000000000000, 0.000000000000000000, -1.000000000000000000 ) ) ;
#1124 = CARTESIAN_POINT ( 'NONE',  ( 3.599901648419603806, 0.4500000000000005662, 1.000000000000000000 ) ) ;
#1125 = VERTEX_POINT ( 'NONE', #393 ) ;
#1126 = ORIENTED_EDGE ( 'NONE', *, *, #230, .F. ) ;
#1127 = PLANE ( 'NONE',  #40 ) ;
#1128 = VECTOR ( 'NONE', #30, 1000.000000000000000 ) ;
#1129 = FACE_OUTER_BOUND ( 'NONE', #268, .T. ) ;
#1130 = ORIENTED_EDGE ( 'NONE', *, *, #65, .F. ) ;
#1131 = DIRECTION ( 'NONE',  ( 0.000000000000000000, 1.000000000000000000, 0.000000000000000000 ) ) ;
#1132 = SURFACE_SIDE_STYLE ('',( #598 ) ) ;
#1133 = AXIS2_PLACEMENT_3D ( 'NONE', #515, #892, #612 ) ;
#1134 = PRESENTATION_LAYER_ASSIGNMENT (  '', '', ( #98 ) ) ;
#1135 = DIRECTION ( 'NONE',  ( 0.000000000000000000, -1.000000000000000000, 0.000000000000000000 ) ) ;
#1136 = VECTOR ( 'NONE', #111, 1000.000000000000000 ) ;
#1137 = VERTEX_POINT ( 'NONE', #957 ) ;
#1138 = CARTESIAN_POINT ( 'NONE',  ( -3.000000000000000000, 1.750000000000000222, 3.200000000000000178 ) ) ;
#1139 = SURFACE_STYLE_USAGE ( .BOTH. , #590 ) ;
#1140 = VERTEX_POINT ( 'NONE', #674 ) ;
#1141 = ORIENTED_EDGE ( 'NONE', *, *, #522, .T. ) ;
#1142 = ADVANCED_FACE ( 'NONE', ( #504 ), #207, .T. ) ;
#1143 = CARTESIAN_POINT ( 'NONE',  ( -2.199934432279735397, 0.000000000000000000, 3.700000000000000178 ) ) ;
#1144 = VECTOR ( 'NONE', #549, 1000.000000000000000 ) ;
#1145 = VECTOR ( 'NONE', #1083, 1000.000000000000000 ) ;
#1146 = CARTESIAN_POINT ( 'NONE',  ( 3.000000000000000000, 1.750000000000000222, 0.000000000000000000 ) ) ;
#1147 = CARTESIAN_POINT ( 'NONE',  ( 0.000000000000000000, -0.4499999999999994560, 1.000000000000000000 ) ) ;
#1148 = EDGE_LOOP ( 'NONE', ( #550, #750, #119, #1198 ) ) ;
#1149 = DIRECTION ( 'NONE',  ( 0.000000000000000000, -0.000000000000000000, -1.000000000000000000 ) ) ;
#1150 = DIRECTION ( 'NONE',  ( -0.000000000000000000, 0.000000000000000000, -1.000000000000000000 ) ) ;
#1151 = LINE ( 'NONE', #233, #304 ) ;
#1152 =( NAMED_UNIT ( * ) SI_UNIT ( $, .STERADIAN. ) SOLID_ANGLE_UNIT ( ) );
#1153 =( GEOMETRIC_REPRESENTATION_CONTEXT ( 3 ) GLOBAL_UNCERTAINTY_ASSIGNED_CONTEXT ( ( #373 ) ) GLOBAL_UNIT_ASSIGNED_CONTEXT ( ( #331, #127, #318 ) ) REPRESENTATION_CONTEXT ( 'NONE', 'WORKASPACE' ) );
#1154 = VERTEX_POINT ( 'NONE', #1044 ) ;
#1155 = ADVANCED_FACE ( 'NONE', ( #203 ), #585, .T. ) ;
#1156 = FILL_AREA_STYLE ('',( #49 ) ) ;
#1157 = CARTESIAN_POINT ( 'NONE',  ( 0.000000000000000000, -0.4499999999999994560, 1.000000000000000000 ) ) ;
#1158 = DIRECTION ( 'NONE',  ( 0.000000000000000000, 0.000000000000000000, -1.000000000000000000 ) ) ;
#1159 = CARTESIAN_POINT ( 'NONE',  ( -3.599901648419603362, 0.4500000000000005662, 1.000000000000000000 ) ) ;
#1160 = LINE ( 'NONE', #246, #829 ) ;
#1161 = DIRECTION ( 'NONE',  ( -4.818676322157797375E-16, -1.000000000000000000, 0.000000000000000000 ) ) ;
#1162 =( NAMED_UNIT ( * ) SI_UNIT ( $, .STERADIAN. ) SOLID_ANGLE_UNIT ( ) );
#1163 = FACE_OUTER_BOUND ( 'NONE', #1114, .T. ) ;
#1164 = CARTESIAN_POINT ( 'NONE',  ( 0.000000000000000000, 0.7000000000000000666, 3.200000000000000178 ) ) ;
#1165 = VECTOR ( 'NONE', #1179, 1000.000000000000000 ) ;
#1166 = LINE ( 'NONE', #1147, #644 ) ;
#1167 = PRESENTATION_STYLE_ASSIGNMENT (( #36 ) ) ;
#1168 = PLANE ( 'NONE',  #1054 ) ;
#1169 =( NAMED_UNIT ( * ) SI_UNIT ( $, .STERADIAN. ) SOLID_ANGLE_UNIT ( ) );
#1170 = ADVANCED_FACE ( 'NONE', ( #1080 ), #248, .T. ) ;
#1171 =( NAMED_UNIT ( * ) PLANE_ANGLE_UNIT ( ) SI_UNIT ( $, .RADIAN. ) );
#1172 = DIRECTION ( 'NONE',  ( -0.000000000000000000, -0.000000000000000000, -1.000000000000000000 ) ) ;
#1173 = LINE ( 'NONE', #885, #261 ) ;
#1174 = FILL_AREA_STYLE ('',( #444 ) ) ;
#1175 = LINE ( 'NONE', #52, #328 ) ;
#1176 = SURFACE_STYLE_USAGE ( .BOTH. , #915 ) ;
#1177 = DIRECTION ( 'NONE',  ( -1.000000000000000000, 0.000000000000000000, 0.000000000000000000 ) ) ;
#1178 = PRESENTATION_STYLE_ASSIGNMENT (( #901 ) ) ;
#1179 = DIRECTION ( 'NONE',  ( 0.000000000000000000, -1.000000000000000000, 0.000000000000000000 ) ) ;
#1180 = CARTESIAN_POINT ( 'NONE',  ( -1.500000000000000000, 0.6999999999999998446, 4.200000000000000178 ) ) ;
#1181 = VECTOR ( 'NONE', #617, 1000.000000000000000 ) ;
#1182 = LINE ( 'NONE', #1003, #737 ) ;
#1183 = STYLED_ITEM ( 'NONE', ( #630 ), #849 ) ;
#1184 = EDGE_CURVE ( 'NONE', #544, #777, #718, .T. ) ;
#1185 = CARTESIAN_POINT ( 'NONE',  ( -3.000000000000000000, -1.749999999999999778, 3.000000000000000000 ) ) ;
#1186 = ORIENTED_EDGE ( 'NONE', *, *, #289, .F. ) ;
#1187 = SURFACE_STYLE_FILL_AREA ( #823 ) ;
#1188 =( NAMED_UNIT ( * ) SI_UNIT ( $, .STERADIAN. ) SOLID_ANGLE_UNIT ( ) );
#1189 = CARTESIAN_POINT ( 'NONE',  ( -1.500000000000000000, 0.6999999999999998446, 3.200000000000000178 ) ) ;
#1190 = COLOUR_RGB ( '',0.2509803921568627416, 0.2509803921568627416, 0.2509803921568627416 ) ;
#1191 = STYLED_ITEM ( 'NONE', ( #300 ), #1142 ) ;
#1192 = PRESENTATION_LAYER_ASSIGNMENT (  '', '', ( #457 ) ) ;
#1193 = VERTEX_POINT ( 'NONE', #154 ) ;
#1194 =( NAMED_UNIT ( * ) PLANE_ANGLE_UNIT ( ) SI_UNIT ( $, .RADIAN. ) );
#1195 = AXIS2_PLACEMENT_3D ( 'NONE', #965, #806, #316 ) ;
#1196 = DIRECTION ( 'NONE',  ( 0.000000000000000000, 1.000000000000000000, 0.000000000000000000 ) ) ;
#1197 = EDGE_CURVE ( 'NONE', #482, #133, #530, .T. ) ;
#1198 = ORIENTED_EDGE ( 'NONE', *, *, #714, .T. ) ;
#1199 = ORIENTED_EDGE ( 'NONE', *, *, #100, .T. ) ;
#1200 = EDGE_CURVE ( 'NONE', #482, #182, #725, .T. ) ;
#1201 = UNCERTAINTY_MEASURE_WITH_UNIT (LENGTH_MEASURE( 1.000000000000000082E-05 ), #705, 'distance_accuracy_value', 'NONE');
#1202 = EDGE_LOOP ( 'NONE', ( #376, #445, #841, #593 ) ) ;
#1203 = ORIENTED_EDGE ( 'NONE', *, *, #1112, .F. ) ;
#1204 = ADVANCED_FACE ( 'NONE', ( #997 ), #902, .F. ) ;
#1205 = SURFACE_STYLE_FILL_AREA ( #344 ) ;
#1206 = VERTEX_POINT ( 'NONE', #886 ) ;
#1207 = CARTESIAN_POINT ( 'NONE',  ( -3.599901648419603806, 1.734676083533636884E-15, 1.000000000000000000 ) ) ;
ENDSEC;
END-ISO-10303-21;
