ISO-10303-21;
HEADER;
FILE_DESCRIPTION (( 'STEP AP214' ),
    '1' );
FILE_NAME ('C6B50F79-DFD9-4367-B93A-B22A225F10D9.STEP',
    '2023-06-22T00:46:07',
    ( '' ),
    ( '' ),
    'SwSTEP 2.0',
    'SolidWorks 2022',
    '' );
FILE_SCHEMA (( 'AUTOMOTIVE_DESIGN' ));
ENDSEC;

DATA;
#1 = ORIENTED_EDGE ( 'NONE', *, *, #997, .T. ) ;
#2 = LINE ( 'NONE', #768, #543 ) ;
#3 = ORIENTED_EDGE ( 'NONE', *, *, #1164, .T. ) ;
#4 = EDGE_CURVE ( 'NONE', #27, #890, #42, .T. ) ;
#5 = AXIS2_PLACEMENT_3D ( 'NONE', #991, #1159, #142 ) ;
#6 = SURFACE_SIDE_STYLE ('',( #849 ) ) ;
#7 = VECTOR ( 'NONE', #275, 1000.000000000000000 ) ;
#8 = CLOSED_SHELL ( 'NONE', ( #732, #935, #553, #790, #764, #814 ) ) ;
#9 = CARTESIAN_POINT ( 'NONE',  ( 0.9499999999999996225, 0.5500000000000000444, -0.6249999999999998890 ) ) ;
#10 = DIRECTION ( 'NONE',  ( -2.282530889443173431E-16, 2.168404344971012812E-15, -1.000000000000000000 ) ) ;
#11 = AXIS2_PLACEMENT_3D ( 'NONE', #796, #435, #1171 ) ;
#12 = ORIENTED_EDGE ( 'NONE', *, *, #1218, .F. ) ;
#13 = CARTESIAN_POINT ( 'NONE',  ( -0.6000000000000004219, -0.001000000000000132727, 0.4750000000000002554 ) ) ;
#14 = ORIENTED_EDGE ( 'NONE', *, *, #245, .T. ) ;
#15 = CARTESIAN_POINT ( 'NONE',  ( 0.8499999999999997558, -0.001000000000000566408, -0.6249999999999998890 ) ) ;
#16 = UNCERTAINTY_MEASURE_WITH_UNIT (LENGTH_MEASURE( 1.000000000000000082E-05 ), #1105, 'distance_accuracy_value', 'NONE');
#17 = EDGE_CURVE ( 'NONE', #1095, #482, #413, .T. ) ;
#18 = DIRECTION ( 'NONE',  ( -0.0000000000000000000, 1.000000000000000000, -0.0000000000000000000 ) ) ;
#19 = FILL_AREA_STYLE ('',( #861 ) ) ;
#20 = ORIENTED_EDGE ( 'NONE', *, *, #1114, .T. ) ;
#21 = LINE ( 'NONE', #604, #371 ) ;
#22 = VERTEX_POINT ( 'NONE', #144 ) ;
#23 = CARTESIAN_POINT ( 'NONE',  ( -2.225999600319681360, 0.5500000000000004885, 0.6250000000000001110 ) ) ;
#24 = DIRECTION ( 'NONE',  ( -0.0000000000000000000, -1.000000000000000000, -0.0000000000000000000 ) ) ;
#25 = LINE ( 'NONE', #1225, #748 ) ;
#26 = EDGE_CURVE ( 'NONE', #917, #1014, #781, .T. ) ;
#27 = VERTEX_POINT ( 'NONE', #1079 ) ;
#28 = CARTESIAN_POINT ( 'NONE',  ( 2.225999600319680916, 0.6000000000000004219, -0.6250000000000004441 ) ) ;
#29 = VERTEX_POINT ( 'NONE', #52 ) ;
#30 = COLOUR_RGB ( '',0.8980392156862745390, 0.9176470588235293713, 0.9294117647058823817 ) ;
#31 = CARTESIAN_POINT ( 'NONE',  ( 0.9499999999999996225, 0.5500000000000000444, 0.6250000000000001110 ) ) ;
#32 = VECTOR ( 'NONE', #607, 1000.000000000000000 ) ;
#33 = CARTESIAN_POINT ( 'NONE',  ( -0.9500000000000000666, 0.05000000000000021094, 0.6250000000000001110 ) ) ;
#34 = LINE ( 'NONE', #496, #621 ) ;
#35 = VECTOR ( 'NONE', #889, 1000.000000000000000 ) ;
#36 = CARTESIAN_POINT ( 'NONE',  ( -0.9500000000000000666, 0.04999999999999999584, 0.6250000000000002220 ) ) ;
#37 = AXIS2_PLACEMENT_3D ( 'NONE', #192, #1050, #677 ) ;
#38 = EDGE_CURVE ( 'NONE', #890, #828, #686, .T. ) ;
#39 = DIRECTION ( 'NONE',  ( -1.000000000000000000, 2.710505431213760592E-16, 0.0000000000000000000 ) ) ;
#40 = VERTEX_POINT ( 'NONE', #36 ) ;
#41 = CARTESIAN_POINT ( 'NONE',  ( 1.000000000000000000, -5.877471754111438635E-32, -0.6250000000000004441 ) ) ;
#42 = LINE ( 'NONE', #422, #853 ) ;
#43 = PLANE ( 'NONE',  #235 ) ;
#44 = EDGE_LOOP ( 'NONE', ( #247, #177, #287, #499, #297, #563, #437, #581 ) ) ;
#45 = ADVANCED_FACE ( 'NONE', ( #417 ), #787, .F. ) ;
#46 = LINE ( 'NONE', #1186, #256 ) ;
#47 = VERTEX_POINT ( 'NONE', #1160 ) ;
#48 = VECTOR ( 'NONE', #1203, 1000.000000000000000 ) ;
#49 = CARTESIAN_POINT ( 'NONE',  ( 1.850999600319680916, 0.5999999999999999778, -0.6249999999999994449 ) ) ;
#50 = ORIENTED_EDGE ( 'NONE', *, *, #139, .F. ) ;
#51 = FACE_OUTER_BOUND ( 'NONE', #1029, .T. ) ;
#52 = CARTESIAN_POINT ( 'NONE',  ( 0.8499999999999999778, 0.5999999999999995337, -0.4749999999999999778 ) ) ;
#53 = AXIS2_PLACEMENT_3D ( 'NONE', #1116, #1040, #1120 ) ;
#54 = DIRECTION ( 'NONE',  ( 1.000000000000000000, -2.710505431213760592E-16, 0.0000000000000000000 ) ) ;
#55 = ORIENTED_EDGE ( 'NONE', *, *, #997, .F. ) ;
#56 = STYLED_ITEM ( 'NONE', ( #883 ), #322 ) ;
#57 = CARTESIAN_POINT ( 'NONE',  ( -0.5999999999999999778, 0.5999999999999998668, -0.4749999999999998113 ) ) ;
#58 = CARTESIAN_POINT ( 'NONE',  ( -0.9500000000000002887, 0.5500000000000000444, -0.6249999999999996669 ) ) ;
#59 = EDGE_CURVE ( 'NONE', #22, #944, #804, .T. ) ;
#60 = LINE ( 'NONE', #1023, #1002 ) ;
#61 = EDGE_LOOP ( 'NONE', ( #112, #793, #884, #299 ) ) ;
#62 = DIRECTION ( 'NONE',  ( -2.282530889443167515E-16, 0.0000000000000000000, -1.000000000000000000 ) ) ;
#63 = FILL_AREA_STYLE_COLOUR ( '', #395 ) ;
#64 = EDGE_CURVE ( 'NONE', #857, #463, #171, .T. ) ;
#65 = VERTEX_POINT ( 'NONE', #1222 ) ;
#66 = LINE ( 'NONE', #174, #432 ) ;
#67 = LINE ( 'NONE', #447, #881 ) ;
#68 = VECTOR ( 'NONE', #894, 1000.000000000000000 ) ;
#69 = VECTOR ( 'NONE', #1072, 1000.000000000000000 ) ;
#70 = ORIENTED_EDGE ( 'NONE', *, *, #1182, .T. ) ;
#71 = EDGE_CURVE ( 'NONE', #898, #29, #466, .T. ) ;
#72 = LINE ( 'NONE', #1015, #959 ) ;
#73 = COLOUR_RGB ( '',0.8431372549019607865, 0.8156862745098039102, 0.7529411764705882248 ) ;
#74 = ORIENTED_EDGE ( 'NONE', *, *, #1114, .F. ) ;
#75 = LINE ( 'NONE', #443, #165 ) ;
#76 = EDGE_CURVE ( 'NONE', #871, #698, #115, .T. ) ;
#77 = CARTESIAN_POINT ( 'NONE',  ( 1.000000000000000666, 0.6000000000000004219, 0.6250000000000000000 ) ) ;
#78 = ORIENTED_EDGE ( 'NONE', *, *, #671, .F. ) ;
#79 = FACE_OUTER_BOUND ( 'NONE', #633, .T. ) ;
#80 = FACE_OUTER_BOUND ( 'NONE', #876, .T. ) ;
#81 = ORIENTED_EDGE ( 'NONE', *, *, #191, .T. ) ;
#82 = FACE_OUTER_BOUND ( 'NONE', #566, .T. ) ;
#83 = VECTOR ( 'NONE', #897, 1000.000000000000000 ) ;
#84 = FACE_OUTER_BOUND ( 'NONE', #579, .T. ) ;
#85 = VECTOR ( 'NONE', #480, 1000.000000000000000 ) ;
#86 = UNCERTAINTY_MEASURE_WITH_UNIT (LENGTH_MEASURE( 1.000000000000000082E-05 ), #966, 'distance_accuracy_value', 'NONE');
#87 = CARTESIAN_POINT ( 'NONE',  ( 1.850999600319680471, 0.5999999999999999778, 0.6250000000000006661 ) ) ;
#88 = CARTESIAN_POINT ( 'NONE',  ( -0.9500000000000002887, 0.5500000000000001554, -0.6249999999999998890 ) ) ;
#89 = EDGE_CURVE ( 'NONE', #187, #1212, #746, .T. ) ;
#90 = ORIENTED_EDGE ( 'NONE', *, *, #619, .T. ) ;
#91 = PLANE ( 'NONE',  #339 ) ;
#92 = ORIENTED_EDGE ( 'NONE', *, *, #1169, .T. ) ;
#93 = LINE ( 'NONE', #15, #724 ) ;
#94 = CARTESIAN_POINT ( 'NONE',  ( -1.000000000000000222, 0.6000000000000000888, 0.6250000000000002220 ) ) ;
#95 = CARTESIAN_POINT ( 'NONE',  ( 1.000000000000000444, 0.6000000000000000888, 0.6250000000000000000 ) ) ;
#96 = EDGE_CURVE ( 'NONE', #698, #390, #583, .T. ) ;
#97 = EDGE_LOOP ( 'NONE', ( #1010, #1, #725, #196 ) ) ;
#98 = CARTESIAN_POINT ( 'NONE',  ( -0.8500000000000001998, -0.001000000000000132727, -0.4749999999999999778 ) ) ;
#99 = ORIENTED_EDGE ( 'NONE', *, *, #253, .T. ) ;
#100 = FILL_AREA_STYLE_COLOUR ( '', #30 ) ;
#101 = CARTESIAN_POINT ( 'NONE',  ( -0.9500000000000000666, 0.5500000000000000444, 0.6250000000000003331 ) ) ;
#102 = ORIENTED_EDGE ( 'NONE', *, *, #277, .T. ) ;
#103 = CARTESIAN_POINT ( 'NONE',  ( 0.9500000000000001776, 0.05000000000000021094, 0.6249999999999998890 ) ) ;
#104 = VERTEX_POINT ( 'NONE', #664 ) ;
#105 = EDGE_CURVE ( 'NONE', #525, #898, #560, .T. ) ;
#106 = PLANE ( 'NONE',  #1038 ) ;
#107 = AXIS2_PLACEMENT_3D ( 'NONE', #441, #280, #1178 ) ;
#108 = FACE_OUTER_BOUND ( 'NONE', #1128, .T. ) ;
#109 = CARTESIAN_POINT ( 'NONE',  ( 0.8500000000000001998, 0.5999999999999995337, 0.4750000000000003109 ) ) ;
#110 = ORIENTED_EDGE ( 'NONE', *, *, #1077, .T. ) ;
#111 = DIRECTION ( 'NONE',  ( 2.710505431213760592E-16, 1.000000000000000000, 4.701977403289148390E-32 ) ) ;
#112 = ORIENTED_EDGE ( 'NONE', *, *, #1062, .T. ) ;
#113 = CARTESIAN_POINT ( 'NONE',  ( 0.8499999999999999778, -0.001000000000000566408, 0.4750000000000003109 ) ) ;
#114 = EDGE_CURVE ( 'NONE', #65, #390, #1215, .T. ) ;
#115 = LINE ( 'NONE', #957, #1004 ) ;
#116 = CARTESIAN_POINT ( 'NONE',  ( 0.9499999999999996225, 0.5500000000000000444, -0.6249999999999998890 ) ) ;
#117 = EDGE_LOOP ( 'NONE', ( #847, #937, #343, #385 ) ) ;
#118 = CARTESIAN_POINT ( 'NONE',  ( -0.6000000000000001998, 0.04999999999999991257, 0.6250000000000001110 ) ) ;
#119 = ORIENTED_EDGE ( 'NONE', *, *, #513, .F. ) ;
#120 = CARTESIAN_POINT ( 'NONE',  ( 2.225999600319681360, 0.5500000000000004885, 0.6249999999999995559 ) ) ;
#121 = PRODUCT_DEFINITION_FORMATION_WITH_SPECIFIED_SOURCE ( 'ANY', '', #337, .NOT_KNOWN. ) ;
#122 = LINE ( 'NONE', #1201, #936 ) ;
#123 = VERTEX_POINT ( 'NONE', #101 ) ;
#124 = CARTESIAN_POINT ( 'NONE',  ( -0.5999999999999999778, 0.5999999999999999778, -0.4749999999999998113 ) ) ;
#125 = EDGE_LOOP ( 'NONE', ( #547, #335, #1106, #318 ) ) ;
#126 = DIRECTION ( 'NONE',  ( -1.000000000000000000, 0.0000000000000000000, 2.282530889443167515E-16 ) ) ;
#127 = VECTOR ( 'NONE', #631, 1000.000000000000000 ) ;
#128 =( NAMED_UNIT ( * ) PLANE_ANGLE_UNIT ( ) SI_UNIT ( $, .RADIAN. ) );
#129 = VECTOR ( 'NONE', #972, 1000.000000000000000 ) ;
#130 = ADVANCED_FACE ( 'NONE', ( #108 ), #1124, .F. ) ;
#131 = ORIENTED_EDGE ( 'NONE', *, *, #386, .T. ) ;
#132 = VECTOR ( 'NONE', #1055, 1000.000000000000000 ) ;
#133 = LINE ( 'NONE', #217, #1207 ) ;
#134 = ORIENTED_EDGE ( 'NONE', *, *, #38, .F. ) ;
#135 = CARTESIAN_POINT ( 'NONE',  ( -0.6000000000000000888, 0.5500000000000000444, -0.4749999999999998113 ) ) ;
#136 = DIRECTION ( 'NONE',  ( -1.000000000000000000, 0.0000000000000000000, 2.282530889443167515E-16 ) ) ;
#137 = APPLICATION_CONTEXT ( 'automotive_design' ) ;
#138 = ORIENTED_EDGE ( 'NONE', *, *, #720, .F. ) ;
#139 = EDGE_CURVE ( 'NONE', #520, #1054, #590, .T. ) ;
#140 = CARTESIAN_POINT ( 'NONE',  ( -0.5999999999999999778, 0.5500000000000000444, -0.6249999999999998890 ) ) ;
#141 = ORIENTED_EDGE ( 'NONE', *, *, #619, .F. ) ;
#142 = DIRECTION ( 'NONE',  ( 0.0000000000000000000, 0.0000000000000000000, 1.000000000000000000 ) ) ;
#143 = UNCERTAINTY_MEASURE_WITH_UNIT (LENGTH_MEASURE( 1.000000000000000082E-05 ), #1181, 'distance_accuracy_value', 'NONE');
#144 = CARTESIAN_POINT ( 'NONE',  ( -0.8500000000000001998, 0.5999999999999999778, 0.4750000000000003109 ) ) ;
#145 = DIRECTION ( 'NONE',  ( -1.000000000000000000, 4.336808689942017736E-16, -2.168404344971008868E-16 ) ) ;
#146 = VERTEX_POINT ( 'NONE', #1056 ) ;
#147 = DIRECTION ( 'NONE',  ( -1.000000000000000000, 0.0000000000000000000, 4.701977403289149484E-32 ) ) ;
#148 = EDGE_CURVE ( 'NONE', #960, #857, #576, .T. ) ;
#149 = LINE ( 'NONE', #517, #1192 ) ;
#150 = VECTOR ( 'NONE', #721, 1000.000000000000000 ) ;
#151 = CARTESIAN_POINT ( 'NONE',  ( -0.8499999999999999778, 0.5999999999999999778, -0.6249999999999998890 ) ) ;
#152 = VERTEX_POINT ( 'NONE', #1035 ) ;
#153 = AXIS2_PLACEMENT_3D ( 'NONE', #873, #1064, #999 ) ;
#154 = CARTESIAN_POINT ( 'NONE',  ( -0.9500000000000002887, 0.04999999999999996808, -0.6249999999999998890 ) ) ;
#155 = ADVANCED_FACE ( 'NONE', ( #489 ), #1133, .F. ) ;
#156 = DIRECTION ( 'NONE',  ( -2.282530889443167022E-16, -4.701977403289150032E-32, -1.000000000000000000 ) ) ;
#157 = EDGE_LOOP ( 'NONE', ( #1089, #729, #492, #1071, #1082, #485, #232, #1024 ) ) ;
#158 = LINE ( 'NONE', #537, #1188 ) ;
#159 = ADVANCED_FACE ( 'NONE', ( #850 ), #495, .F. ) ;
#160 = ORIENTED_EDGE ( 'NONE', *, *, #671, .T. ) ;
#161 = CARTESIAN_POINT ( 'NONE',  ( -0.9500000000000002887, 0.5500000000000000444, -0.6249999999999996669 ) ) ;
#162 = FILL_AREA_STYLE ('',( #1012 ) ) ;
#163 = ORIENTED_EDGE ( 'NONE', *, *, #1086, .F. ) ;
#164 = EDGE_CURVE ( 'NONE', #420, #408, #941, .T. ) ;
#165 = VECTOR ( 'NONE', #820, 1000.000000000000000 ) ;
#166 = ORIENTED_EDGE ( 'NONE', *, *, #451, .F. ) ;
#167 = CLOSED_SHELL ( 'NONE', ( #1009, #848, #262, #971, #1026, #503 ) ) ;
#168 = DIRECTION ( 'NONE',  ( -1.734723475976807094E-16, 0.0000000000000000000, 1.000000000000000000 ) ) ;
#169 = VECTOR ( 'NONE', #136, 1000.000000000000000 ) ;
#170 = FACE_OUTER_BOUND ( 'NONE', #194, .T. ) ;
#171 = LINE ( 'NONE', #802, #608 ) ;
#172 = PLANE ( 'NONE',  #1057 ) ;
#173 = ORIENTED_EDGE ( 'NONE', *, *, #71, .T. ) ;
#174 = CARTESIAN_POINT ( 'NONE',  ( -0.9500000000000000666, 0.04999999999999999584, -0.6250000000000000000 ) ) ;
#175 = CARTESIAN_POINT ( 'NONE',  ( 0.5999999999999998668, 0.5500000000000000444, 0.4750000000000002554 ) ) ;
#176 = DIRECTION ( 'NONE',  ( 1.000000000000000000, 0.0000000000000000000, 0.0000000000000000000 ) ) ;
#177 = ORIENTED_EDGE ( 'NONE', *, *, #901, .T. ) ;
#178 = PLANE ( 'NONE',  #735 ) ;
#179 = DIRECTION ( 'NONE',  ( 2.710505431213760592E-16, 1.000000000000000000, 4.701977403289148390E-32 ) ) ;
#180 = EDGE_CURVE ( 'NONE', #719, #587, #285, .T. ) ;
#181 = CARTESIAN_POINT ( 'NONE',  ( 0.5999999999999999778, 0.5999999999999996447, -0.4749999999999998113 ) ) ;
#182 = STYLED_ITEM ( 'NONE', ( #888 ), #481 ) ;
#183 = PLANE ( 'NONE',  #107 ) ;
#184 = ORIENTED_EDGE ( 'NONE', *, *, #1034, .F. ) ;
#185 = AXIS2_PLACEMENT_3D ( 'NONE', #682, #592, #1157 ) ;
#186 = DIRECTION ( 'NONE',  ( 2.710505431213760592E-16, -1.000000000000000000, -1.088878977603803073E-31 ) ) ;
#187 = VERTEX_POINT ( 'NONE', #295 ) ;
#188 = PRESENTATION_LAYER_ASSIGNMENT (  '', '', ( #1209 ) ) ;
#189 = DIRECTION ( 'NONE',  ( -0.0000000000000000000, -1.000000000000000000, -0.0000000000000000000 ) ) ;
#190 = VECTOR ( 'NONE', #653, 1000.000000000000000 ) ;
#191 = EDGE_CURVE ( 'NONE', #1143, #187, #473, .T. ) ;
#192 = CARTESIAN_POINT ( 'NONE',  ( -0.6000000000000001998, 0.5999999999999999778, 0.6250000000000002220 ) ) ;
#193 = CARTESIAN_POINT ( 'NONE',  ( 0.8500000000000001998, 0.5999999999999995337, 0.6250000000000003331 ) ) ;
#194 = EDGE_LOOP ( 'NONE', ( #92, #1121, #692, #733 ) ) ;
#195 = PLANE ( 'NONE',  #1132 ) ;
#196 = ORIENTED_EDGE ( 'NONE', *, *, #114, .F. ) ;
#197 = DIRECTION ( 'NONE',  ( 1.000000000000000000, 0.0000000000000000000, -4.701977403289150032E-32 ) ) ;
#198 = DIRECTION ( 'NONE',  ( -1.000000000000000000, 0.0000000000000000000, 2.282530889443167515E-16 ) ) ;
#199 = CARTESIAN_POINT ( 'NONE',  ( 0.9499999999999996225, 0.04999999999999999584, 0.6250000000000002220 ) ) ;
#200 = ADVANCED_FACE ( 'NONE', ( #410 ), #779, .F. ) ;
#201 = ORIENTED_EDGE ( 'NONE', *, *, #164, .T. ) ;
#202 = DIRECTION ( 'NONE',  ( 4.017254365419974609E-16, -2.163653586757409554E-46, 1.000000000000000000 ) ) ;
#203 = ORIENTED_EDGE ( 'NONE', *, *, #17, .F. ) ;
#204 = LINE ( 'NONE', #669, #818 ) ;
#205 = AXIS2_PLACEMENT_3D ( 'NONE', #831, #1210, #1118 ) ;
#206 = DIRECTION ( 'NONE',  ( 0.0000000000000000000, 1.000000000000000000, 2.168404344971012812E-15 ) ) ;
#207 = EDGE_LOOP ( 'NONE', ( #281, #1137, #70, #1198 ) ) ;
#208 = EDGE_CURVE ( 'NONE', #390, #624, #399, .T. ) ;
#209 = LINE ( 'NONE', #423, #562 ) ;
#210 = EDGE_LOOP ( 'NONE', ( #454, #630, #574, #833 ) ) ;
#211 = DIRECTION ( 'NONE',  ( -0.0000000000000000000, -0.0000000000000000000, -1.000000000000000000 ) ) ;
#212 = AXIS2_PLACEMENT_3D ( 'NONE', #918, #452, #455 ) ;
#213 = CARTESIAN_POINT ( 'NONE',  ( -1.000000000000000222, 0.0000000000000000000, 0.6250000000000002220 ) ) ;
#214 = SURFACE_STYLE_USAGE ( .BOTH. , #308 ) ;
#215 = VECTOR ( 'NONE', #24, 1000.000000000000000 ) ;
#216 = ORIENTED_EDGE ( 'NONE', *, *, #328, .F. ) ;
#217 = CARTESIAN_POINT ( 'NONE',  ( -1.000000000000000444, 0.6000000000000004219, 0.6250000000000002220 ) ) ;
#218 = EDGE_LOOP ( 'NONE', ( #666, #276, #591, #216 ) ) ;
#219 = SURFACE_STYLE_USAGE ( .BOTH. , #6 ) ;
#220 = EDGE_CURVE ( 'NONE', #104, #862, #1140, .T. ) ;
#221 = CARTESIAN_POINT ( 'NONE',  ( 0.8499999999999999778, -0.001000000000000566408, 0.6250000000000003331 ) ) ;
#222 = DIRECTION ( 'NONE',  ( 1.734723475976806848E-16, 0.0000000000000000000, -1.000000000000000000 ) ) ;
#223 = ORIENTED_EDGE ( 'NONE', *, *, #1013, .T. ) ;
#224 = PLANE ( 'NONE',  #913 ) ;
#225 = EDGE_LOOP ( 'NONE', ( #976, #134, #378, #78 ) ) ;
#226 = LINE ( 'NONE', #601, #932 ) ;
#227 = EDGE_CURVE ( 'NONE', #123, #527, #1091, .T. ) ;
#228 = FILL_AREA_STYLE ('',( #340 ) ) ;
#229 = APPLICATION_PROTOCOL_DEFINITION ( 'draft international standard', 'automotive_design', 1998, #137 ) ;
#230 = ORIENTED_EDGE ( 'NONE', *, *, #1104, .F. ) ;
#231 = LINE ( 'NONE', #989, #757 ) ;
#232 = ORIENTED_EDGE ( 'NONE', *, *, #859, .F. ) ;
#233 = CARTESIAN_POINT ( 'NONE',  ( 0.6000000000000003109, 0.5999999999999999778, 0.6250000000000004441 ) ) ;
#234 = VECTOR ( 'NONE', #872, 1000.000000000000000 ) ;
#235 = AXIS2_PLACEMENT_3D ( 'NONE', #1067, #1060, #891 ) ;
#236 = DIRECTION ( 'NONE',  ( 1.000000000000000000, 3.761581922631326594E-31, -4.017254365419974609E-16 ) ) ;
#237 = ADVANCED_FACE ( 'NONE', ( #51 ), #1076, .F. ) ;
#238 = AXIS2_PLACEMENT_3D ( 'NONE', #860, #948, #206 ) ;
#239 = VERTEX_POINT ( 'NONE', #427 ) ;
#240 = CARTESIAN_POINT ( 'NONE',  ( -2.225999600319680916, 0.6000000000000004219, -0.6249999999999998890 ) ) ;
#241 = ORIENTED_EDGE ( 'NONE', *, *, #1182, .F. ) ;
#242 = PLANE ( 'NONE',  #5 ) ;
#243 = LINE ( 'NONE', #977, #785 ) ;
#244 = ORIENTED_EDGE ( 'NONE', *, *, #943, .F. ) ;
#245 = EDGE_CURVE ( 'NONE', #709, #123, #801, .T. ) ;
#246 = DIRECTION ( 'NONE',  ( 1.274473528905961335E-47, 4.701977403289149484E-32, -1.000000000000000000 ) ) ;
#247 = ORIENTED_EDGE ( 'NONE', *, *, #494, .T. ) ;
#248 = CARTESIAN_POINT ( 'NONE',  ( -1.000000000000000222, 0.6000000000000000888, 0.6250000000000002220 ) ) ;
#249 = DIRECTION ( 'NONE',  ( 1.734723475976807094E-16, 0.0000000000000000000, 1.000000000000000000 ) ) ;
#250 = EDGE_LOOP ( 'NONE', ( #291, #660, #1102, #946, #163, #969, #1141, #1052 ) ) ;
#251 = FACE_OUTER_BOUND ( 'NONE', #207, .T. ) ;
#252 = ORIENTED_EDGE ( 'NONE', *, *, #743, .T. ) ;
#253 = EDGE_CURVE ( 'NONE', #862, #890, #609, .T. ) ;
#254 = DIRECTION ( 'NONE',  ( -0.0000000000000000000, -1.000000000000000000, -0.0000000000000000000 ) ) ;
#255 = DIRECTION ( 'NONE',  ( 0.0000000000000000000, 0.0000000000000000000, 1.000000000000000000 ) ) ;
#256 = VECTOR ( 'NONE', #1107, 1000.000000000000000 ) ;
#257 = VECTOR ( 'NONE', #491, 1000.000000000000000 ) ;
#258 = ORIENTED_EDGE ( 'NONE', *, *, #906, .F. ) ;
#259 = PRESENTATION_LAYER_ASSIGNMENT (  '', '', ( #56 ) ) ;
#260 = DIRECTION ( 'NONE',  ( 1.000000000000000000, -4.336808689942017736E-16, 6.505213034913026604E-16 ) ) ;
#261 =( NAMED_UNIT ( * ) PLANE_ANGLE_UNIT ( ) SI_UNIT ( $, .RADIAN. ) );
#262 = ADVANCED_FACE ( 'NONE', ( #622 ), #352, .F. ) ;
#263 = VERTEX_POINT ( 'NONE', #321 ) ;
#264 = FACE_OUTER_BOUND ( 'NONE', #990, .T. ) ;
#265 = PRESENTATION_STYLE_ASSIGNMENT (( #919 ) ) ;
#266 = EDGE_CURVE ( 'NONE', #360, #47, #149, .T. ) ;
#267 = ORIENTED_EDGE ( 'NONE', *, *, #895, .T. ) ;
#268 = STYLED_ITEM ( 'NONE', ( #1152 ), #524 ) ;
#269 = CARTESIAN_POINT ( 'NONE',  ( 0.6000000000000001998, 0.02500000000000002567, -1.369518533665901051E-16 ) ) ;
#270 = CARTESIAN_POINT ( 'NONE',  ( 0.8499999999999998668, 0.5500000000000001554, -0.6249999999999998890 ) ) ;
#271 = VECTOR ( 'NONE', #346, 1000.000000000000000 ) ;
#272 = VECTOR ( 'NONE', #1094, 1000.000000000000000 ) ;
#273 = ORIENTED_EDGE ( 'NONE', *, *, #712, .T. ) ;
#274 = CARTESIAN_POINT ( 'NONE',  ( -1.000000000000000222, 0.6000000000000000888, -0.6250000000000000000 ) ) ;
#275 = DIRECTION ( 'NONE',  ( 2.282530889443167022E-16, 4.701977403289149484E-32, 1.000000000000000000 ) ) ;
#276 = ORIENTED_EDGE ( 'NONE', *, *, #1006, .F. ) ;
#277 = EDGE_CURVE ( 'NONE', #47, #960, #902, .T. ) ;
#278 = CARTESIAN_POINT ( 'NONE',  ( -1.000000000000000222, -5.877471754111438635E-32, -0.6250000000000002220 ) ) ;
#279 = CARTESIAN_POINT ( 'NONE',  ( -0.6000000000000001998, 0.02500000000000002567, 0.0000000000000000000 ) ) ;
#280 = DIRECTION ( 'NONE',  ( 0.0000000000000000000, -1.000000000000000000, 4.701977403289150032E-32 ) ) ;
#281 = ORIENTED_EDGE ( 'NONE', *, *, #412, .T. ) ;
#282 = DIRECTION ( 'NONE',  ( 2.710505431213760592E-16, 1.000000000000000000, 4.701977403289148390E-32 ) ) ;
#283 = ORIENTED_EDGE ( 'NONE', *, *, #875, .F. ) ;
#284 = CARTESIAN_POINT ( 'NONE',  ( 0.9499999999999996225, 0.5500000000000000444, 0.6250000000000001110 ) ) ;
#285 = LINE ( 'NONE', #94, #564 ) ;
#286 = DIRECTION ( 'NONE',  ( 1.274473528905961335E-47, 4.701977403289149484E-32, -1.000000000000000000 ) ) ;
#287 = ORIENTED_EDGE ( 'NONE', *, *, #1077, .F. ) ;
#288 =( GEOMETRIC_REPRESENTATION_CONTEXT ( 3 ) GLOBAL_UNCERTAINTY_ASSIGNED_CONTEXT ( ( #754 ) ) GLOBAL_UNIT_ASSIGNED_CONTEXT ( ( #425, #508, #998 ) ) REPRESENTATION_CONTEXT ( 'NONE', 'WORKASPACE' ) );
#289 = VECTOR ( 'NONE', #202, 1000.000000000000000 ) ;
#290 = DIRECTION ( 'NONE',  ( 0.0000000000000000000, -0.0000000000000000000, -1.000000000000000000 ) ) ;
#291 = ORIENTED_EDGE ( 'NONE', *, *, #636, .T. ) ;
#292 = VECTOR ( 'NONE', #388, 1000.000000000000000 ) ;
#293 = CARTESIAN_POINT ( 'NONE',  ( -0.6000000000000000888, 0.5500000000000000444, -0.4749999999999998113 ) ) ;
#294 = EDGE_CURVE ( 'NONE', #239, #916, #510, .T. ) ;
#295 = CARTESIAN_POINT ( 'NONE',  ( 0.9499999999999996225, 0.04999999999999999584, -0.6250000000000000000 ) ) ;
#296 = DIRECTION ( 'NONE',  ( -0.0000000000000000000, -0.0000000000000000000, -1.000000000000000000 ) ) ;
#297 = ORIENTED_EDGE ( 'NONE', *, *, #1045, .T. ) ;
#298 = CARTESIAN_POINT ( 'NONE',  ( -0.6000000000000001998, -0.001000000000000241147, -0.4749999999999998113 ) ) ;
#299 = ORIENTED_EDGE ( 'NONE', *, *, #426, .F. ) ;
#300 = LINE ( 'NONE', #648, #706 ) ;
#301 = CARTESIAN_POINT ( 'NONE',  ( 0.9500000000000001776, 0.5500000000000000444, -0.6250000000000001110 ) ) ;
#302 = EDGE_CURVE ( 'NONE', #1217, #624, #243, .T. ) ;
#303 = ORIENTED_EDGE ( 'NONE', *, *, #636, .F. ) ;
#304 = DIRECTION ( 'NONE',  ( -1.000000000000000000, 2.710505431213760592E-16, 0.0000000000000000000 ) ) ;
#305 = ORIENTED_EDGE ( 'NONE', *, *, #180, .F. ) ;
#306 = DIRECTION ( 'NONE',  ( -1.000000000000000000, -0.0000000000000000000, -0.0000000000000000000 ) ) ;
#307 = DIRECTION ( 'NONE',  ( -1.000000000000000000, 3.761581922631326594E-31, -1.734723475976807094E-16 ) ) ;
#308 = SURFACE_SIDE_STYLE ('',( #772 ) ) ;
#309 = ORIENTED_EDGE ( 'NONE', *, *, #164, .F. ) ;
#310 = FACE_OUTER_BOUND ( 'NONE', #97, .T. ) ;
#311 = EDGE_LOOP ( 'NONE', ( #738, #854, #761, #99 ) ) ;
#312 = DIRECTION ( 'NONE',  ( 2.710505431213760592E-16, 1.000000000000000000, 0.0000000000000000000 ) ) ;
#313 = AXIS2_PLACEMENT_3D ( 'NONE', #161, #1195, #912 ) ;
#314 = DIRECTION ( 'NONE',  ( -2.282530889443167515E-16, -4.701977403289150032E-32, -1.000000000000000000 ) ) ;
#315 = VECTOR ( 'NONE', #1204, 1000.000000000000000 ) ;
#316 = DIRECTION ( 'NONE',  ( 4.017254365419974609E-16, 0.0000000000000000000, 1.000000000000000000 ) ) ;
#317 = DIRECTION ( 'NONE',  ( 1.000000000000000000, -2.710505431213760592E-16, -0.0000000000000000000 ) ) ;
#318 = ORIENTED_EDGE ( 'NONE', *, *, #931, .F. ) ;
#319 = EDGE_CURVE ( 'NONE', #463, #907, #992, .T. ) ;
#320 = CARTESIAN_POINT ( 'NONE',  ( -0.9500000000000002887, 0.05000000000000002359, -0.6249999999999996669 ) ) ;
#321 = CARTESIAN_POINT ( 'NONE',  ( -0.9500000000000002887, 0.04999999999999996808, -0.6249999999999998890 ) ) ;
#322 = MANIFOLD_SOLID_BREP ( 'Extruir2', #8 ) ;
#323 = CARTESIAN_POINT ( 'NONE',  ( -0.8500000000000001998, 0.5999999999999999778, 0.6250000000000003331 ) ) ;
#324 = LINE ( 'NONE', #49, #507 ) ;
#325 = VERTEX_POINT ( 'NONE', #1108 ) ;
#326 = MANIFOLD_SOLID_BREP ( 'Extruir4[2]', #702 ) ;
#327 = CARTESIAN_POINT ( 'NONE',  ( -1.000000000000000222, 0.6000000000000000888, -0.6250000000000000000 ) ) ;
#328 = EDGE_CURVE ( 'NONE', #806, #862, #122, .T. ) ;
#329 = MANIFOLD_SOLID_BREP ( 'Extruir3', #167 ) ;
#330 = CARTESIAN_POINT ( 'NONE',  ( 0.9499999999999996225, 0.5500000000000000444, 0.6250000000000001110 ) ) ;
#331 = DIRECTION ( 'NONE',  ( 1.000000000000000000, 0.0000000000000000000, 0.0000000000000000000 ) ) ;
#332 = COLOUR_RGB ( '',0.8980392156862745390, 0.9176470588235293713, 0.9294117647058823817 ) ;
#333 = EDGE_LOOP ( 'NONE', ( #921, #545, #309, #979 ) ) ;
#334 = DIRECTION ( 'NONE',  ( -1.000000000000000000, -2.710505431213760592E-16, 2.282530889443167515E-16 ) ) ;
#335 = ORIENTED_EDGE ( 'NONE', *, *, #654, .T. ) ;
#336 = VECTOR ( 'NONE', #189, 1000.000000000000000 ) ;
#337 = PRODUCT ( 'C6B50F79-DFD9-4367-B93A-B22A225F10D9', 'C6B50F79-DFD9-4367-B93A-B22A225F10D9', '', ( #705 ) ) ;
#338 = LINE ( 'NONE', #500, #234 ) ;
#339 = AXIS2_PLACEMENT_3D ( 'NONE', #1136, #477, #1047 ) ;
#340 = FILL_AREA_STYLE_COLOUR ( '', #73 ) ;
#341 = VECTOR ( 'NONE', #1087, 1000.000000000000000 ) ;
#342 = ADVANCED_FACE ( 'NONE', ( #830 ), #538, .F. ) ;
#343 = ORIENTED_EDGE ( 'NONE', *, *, #208, .T. ) ;
#344 = LINE ( 'NONE', #797, #782 ) ;
#345 = VERTEX_POINT ( 'NONE', #644 ) ;
#346 = DIRECTION ( 'NONE',  ( 2.710505431213760592E-16, 1.000000000000000000, 4.701977403289148390E-32 ) ) ;
#347 = EDGE_CURVE ( 'NONE', #828, #1054, #67, .T. ) ;
#348 = ORIENTED_EDGE ( 'NONE', *, *, #105, .T. ) ;
#349 = DIRECTION ( 'NONE',  ( -1.000000000000000000, 3.761581922631326594E-31, -1.734723475976807094E-16 ) ) ;
#350 = ORIENTED_EDGE ( 'NONE', *, *, #743, .F. ) ;
#351 = LINE ( 'NONE', #1096, #448 ) ;
#352 = PLANE ( 'NONE',  #153 ) ;
#353 =( NAMED_UNIT ( * ) PLANE_ANGLE_UNIT ( ) SI_UNIT ( $, .RADIAN. ) );
#354 = VECTOR ( 'NONE', #411, 1000.000000000000000 ) ;
#355 = DIRECTION ( 'NONE',  ( -1.000000000000000000, 0.0000000000000000000, -1.734723475976807587E-16 ) ) ;
#356 = ADVANCED_FACE ( 'NONE', ( #635 ), #542, .F. ) ;
#357 = CARTESIAN_POINT ( 'NONE',  ( -0.8500000000000000888, 0.5500000000000001554, -0.6249999999999998890 ) ) ;
#358 =( NAMED_UNIT ( * ) PLANE_ANGLE_UNIT ( ) SI_UNIT ( $, .RADIAN. ) );
#359 = VECTOR ( 'NONE', #317, 1000.000000000000000 ) ;
#360 = VERTEX_POINT ( 'NONE', #1022 ) ;
#361 = VECTOR ( 'NONE', #306, 1000.000000000000000 ) ;
#362 = LINE ( 'NONE', #57, #852 ) ;
#363 = EDGE_CURVE ( 'NONE', #1014, #1135, #731, .T. ) ;
#364 = ORIENTED_EDGE ( 'NONE', *, *, #610, .T. ) ;
#365 = CARTESIAN_POINT ( 'NONE',  ( 2.225999600319680916, 0.5500000000000004885, -0.6250000000000004441 ) ) ;
#366 = ADVANCED_FACE ( 'NONE', ( #170 ), #575, .F. ) ;
#367 = ORIENTED_EDGE ( 'NONE', *, *, #697, .F. ) ;
#368 = LINE ( 'NONE', #647, #289 ) ;
#369 = LINE ( 'NONE', #436, #869 ) ;
#370 = ADVANCED_FACE ( 'NONE', ( #493 ), #472, .T. ) ;
#371 = VECTOR ( 'NONE', #981, 1000.000000000000000 ) ;
#372 = VERTEX_POINT ( 'NONE', #293 ) ;
#373 = DIRECTION ( 'NONE',  ( 0.0000000000000000000, -0.0000000000000000000, 1.000000000000000000 ) ) ;
#374 = VECTOR ( 'NONE', #249, 1000.000000000000000 ) ;
#375 = CARTESIAN_POINT ( 'NONE',  ( -1.000000000000000444, -1.626303258728256651E-16, 0.6250000000000002220 ) ) ;
#376 = CARTESIAN_POINT ( 'NONE',  ( 0.8499999999999999778, -0.001000000000000566408, 0.6250000000000003331 ) ) ;
#377 = EDGE_CURVE ( 'NONE', #709, #497, #866, .T. ) ;
#378 = ORIENTED_EDGE ( 'NONE', *, *, #4, .F. ) ;
#379 = CARTESIAN_POINT ( 'NONE',  ( -0.6000000000000001998, 0.5500000000000000444, 0.4750000000000003664 ) ) ;
#380 = CARTESIAN_POINT ( 'NONE',  ( -0.6000000000000003109, 0.5500000000000000444, 0.4750000000000002554 ) ) ;
#381 = DIRECTION ( 'NONE',  ( 0.0000000000000000000, 0.0000000000000000000, 1.000000000000000000 ) ) ;
#382 = CARTESIAN_POINT ( 'NONE',  ( 0.6000000000000001998, 0.5999999999999996447, 0.4750000000000002554 ) ) ;
#383 = ORIENTED_EDGE ( 'NONE', *, *, #1211, .T. ) ;
#384 = DIRECTION ( 'NONE',  ( -2.710505431213760592E-16, 1.000000000000000000, 1.088878977603803073E-31 ) ) ;
#385 = ORIENTED_EDGE ( 'NONE', *, *, #302, .F. ) ;
#386 = EDGE_CURVE ( 'NONE', #1212, #40, #955, .T. ) ;
#387 = CARTESIAN_POINT ( 'NONE',  ( 1.000000000000000444, 0.0000000000000000000, 0.6250000000000000000 ) ) ;
#388 = DIRECTION ( 'NONE',  ( 0.0000000000000000000, -1.000000000000000000, 0.0000000000000000000 ) ) ;
#389 = DIRECTION ( 'NONE',  ( -4.017254365419974609E-16, 2.163653586757409554E-46, -1.000000000000000000 ) ) ;
#390 = VERTEX_POINT ( 'NONE', #1117 ) ;
#391 = VECTOR ( 'NONE', #778, 1000.000000000000000 ) ;
#392 = VECTOR ( 'NONE', #457, 1000.000000000000000 ) ;
#393 = PLANE ( 'NONE',  #1153 ) ;
#394 = ORIENTED_EDGE ( 'NONE', *, *, #245, .F. ) ;
#395 = COLOUR_RGB ( '',0.8980392156862745390, 0.9176470588235293713, 0.9294117647058823817 ) ;
#396 = DIRECTION ( 'NONE',  ( -2.710505431213760592E-16, -1.000000000000000000, 0.0000000000000000000 ) ) ;
#397 = ADVANCED_FACE ( 'NONE', ( #858 ), #106, .F. ) ;
#398 = VECTOR ( 'NONE', #923, 1000.000000000000000 ) ;
#399 = LINE ( 'NONE', #765, #292 ) ;
#400 = EDGE_LOOP ( 'NONE', ( #911, #201, #658, #445 ) ) ;
#401 = CARTESIAN_POINT ( 'NONE',  ( -0.9500000000000002887, 0.5500000000000000444, -0.6249999999999998890 ) ) ;
#402 = ORIENTED_EDGE ( 'NONE', *, *, #690, .T. ) ;
#403 = CARTESIAN_POINT ( 'NONE',  ( 0.8500000000000000888, 0.5500000000000001554, 0.6250000000000003331 ) ) ;
#404 = CARTESIAN_POINT ( 'NONE',  ( 0.9499999999999996225, 0.04999999999999999584, -0.6250000000000000000 ) ) ;
#405 =( NAMED_UNIT ( * ) SI_UNIT ( $, .STERADIAN. ) SOLID_ANGLE_UNIT ( ) );
#406 = EDGE_LOOP ( 'NONE', ( #430, #603, #798, #258 ) ) ;
#407 = LINE ( 'NONE', #28, #930 ) ;
#408 = VERTEX_POINT ( 'NONE', #375 ) ;
#409 = DIRECTION ( 'NONE',  ( 1.000000000000000000, 3.761581922631326594E-31, -4.017254365419974609E-16 ) ) ;
#410 = FACE_OUTER_BOUND ( 'NONE', #311, .T. ) ;
#411 = DIRECTION ( 'NONE',  ( 0.0000000000000000000, 0.0000000000000000000, 1.000000000000000000 ) ) ;
#412 = EDGE_CURVE ( 'NONE', #1135, #239, #929, .T. ) ;
#413 = LINE ( 'NONE', #1165, #341 ) ;
#414 = ORIENTED_EDGE ( 'NONE', *, *, #513, .T. ) ;
#415 = VECTOR ( 'NONE', #1081, 1000.000000000000000 ) ;
#416 = CARTESIAN_POINT ( 'NONE',  ( 0.6000000000000003109, 0.5999999999999999778, 0.6250000000000001110 ) ) ;
#417 = FACE_OUTER_BOUND ( 'NONE', #406, .T. ) ;
#418 = EDGE_CURVE ( 'NONE', #758, #263, #300, .T. ) ;
#419 = CARTESIAN_POINT ( 'NONE',  ( 0.9500000000000001776, 0.04999999999999996808, -0.6250000000000001110 ) ) ;
#420 = VERTEX_POINT ( 'NONE', #1032 ) ;
#421 = LINE ( 'NONE', #120, #68 ) ;
#422 = CARTESIAN_POINT ( 'NONE',  ( 0.6000000000000000888, 0.3000000000000000444, -0.6250000000000000000 ) ) ;
#423 = CARTESIAN_POINT ( 'NONE',  ( 1.000000000000000666, 0.6000000000000004219, 0.6250000000000000000 ) ) ;
#424 = ORIENTED_EDGE ( 'NONE', *, *, #773, .T. ) ;
#425 =( LENGTH_UNIT ( ) NAMED_UNIT ( * ) SI_UNIT ( .MILLI., .METRE. ) );
#426 = EDGE_CURVE ( 'NONE', #1109, #152, #93, .T. ) ;
#427 = CARTESIAN_POINT ( 'NONE',  ( 0.8500000000000000888, 0.5500000000000001554, 0.6249999999999998890 ) ) ;
#428 = PRESENTATION_LAYER_ASSIGNMENT (  '', '', ( #268 ) ) ;
#429 = ORIENTED_EDGE ( 'NONE', *, *, #319, .T. ) ;
#430 = ORIENTED_EDGE ( 'NONE', *, *, #363, .T. ) ;
#431 = PRODUCT_DEFINITION_CONTEXT ( 'detailed design', #137, 'design' ) ;
#432 = VECTOR ( 'NONE', #726, 1000.000000000000000 ) ;
#433 = DIRECTION ( 'NONE',  ( 4.017254365419974609E-16, 0.0000000000000000000, 1.000000000000000000 ) ) ;
#434 = MECHANICAL_DESIGN_GEOMETRIC_PRESENTATION_REPRESENTATION (  '', ( #1209 ), #984 ) ;
#435 = DIRECTION ( 'NONE',  ( 2.168404344971008868E-16, -1.175494350822288192E-32, -1.000000000000000000 ) ) ;
#436 = CARTESIAN_POINT ( 'NONE',  ( 1.850999600319680916, 0.5500000000000000444, -0.6249999999999994449 ) ) ;
#437 = ORIENTED_EDGE ( 'NONE', *, *, #277, .F. ) ;
#438 = PLANE ( 'NONE',  #212 ) ;
#439 = CARTESIAN_POINT ( 'NONE',  ( -0.6000000000000001998, 0.3000000000000000444, -0.6249999999999998890 ) ) ;
#440 = ADVANCED_FACE ( 'NONE', ( #84 ), #1138, .F. ) ;
#441 = CARTESIAN_POINT ( 'NONE',  ( -0.9500000000000002887, 0.04999999999999991257, -0.6249999999999998890 ) ) ;
#442 = ORIENTED_EDGE ( 'NONE', *, *, #105, .F. ) ;
#443 = CARTESIAN_POINT ( 'NONE',  ( 0.5999999999999997558, -0.001000000000000457988, -0.4749999999999998113 ) ) ;
#444 = EDGE_CURVE ( 'NONE', #758, #672, #558, .T. ) ;
#445 = ORIENTED_EDGE ( 'NONE', *, *, #180, .T. ) ;
#446 = LINE ( 'NONE', #154, #657 ) ;
#447 = CARTESIAN_POINT ( 'NONE',  ( 0.6000000000000003109, 0.3000000000000001554, 0.6249999999999994449 ) ) ;
#448 = VECTOR ( 'NONE', #900, 1000.000000000000000 ) ;
#449 = EDGE_LOOP ( 'NONE', ( #904, #769, #3, #515 ) ) ;
#450 = AXIS2_PLACEMENT_3D ( 'NONE', #1017, #460, #909 ) ;
#451 = EDGE_CURVE ( 'NONE', #29, #152, #204, .T. ) ;
#452 = DIRECTION ( 'NONE',  ( 1.000000000000000000, 0.0000000000000000000, -2.282530889443167022E-16 ) ) ;
#453 =( LENGTH_UNIT ( ) NAMED_UNIT ( * ) SI_UNIT ( .MILLI., .METRE. ) );
#454 = ORIENTED_EDGE ( 'NONE', *, *, #468, .T. ) ;
#455 = DIRECTION ( 'NONE',  ( 2.282530889443167022E-16, 0.0000000000000000000, 1.000000000000000000 ) ) ;
#456 = EDGE_CURVE ( 'NONE', #1135, #1205, #964, .T. ) ;
#457 = DIRECTION ( 'NONE',  ( 2.282530889443167022E-16, -4.701977403289150579E-32, 1.000000000000000000 ) ) ;
#458 = ORIENTED_EDGE ( 'NONE', *, *, #1190, .T. ) ;
#459 = PLANE ( 'NONE',  #799 ) ;
#460 = DIRECTION ( 'NONE',  ( 0.0000000000000000000, 1.000000000000000000, -4.701977403289149484E-32 ) ) ;
#461 = EDGE_CURVE ( 'NONE', #146, #819, #1214, .T. ) ;
#462 = PLANE ( 'NONE',  #205 ) ;
#463 = VERTEX_POINT ( 'NONE', #1221 ) ;
#464 = CARTESIAN_POINT ( 'NONE',  ( -0.9500000000000000666, 0.5500000000000000444, 0.6250000000000003331 ) ) ;
#465 = CARTESIAN_POINT ( 'NONE',  ( -2.225999600319680916, 0.5500000000000004885, -0.6249999999999998890 ) ) ;
#466 = LINE ( 'NONE', #181, #1176 ) ;
#467 = CARTESIAN_POINT ( 'NONE',  ( -0.8500000000000000888, 0.5500000000000001554, -0.6249999999999998890 ) ) ;
#468 = EDGE_CURVE ( 'NONE', #527, #1212, #1122, .T. ) ;
#469 = EDGE_LOOP ( 'NONE', ( #674, #987, #429, #383 ) ) ;
#470 = PLANE ( 'NONE',  #1016 ) ;
#471 = ORIENTED_EDGE ( 'NONE', *, *, #1202, .T. ) ;
#472 = PLANE ( 'NONE',  #511 ) ;
#473 = LINE ( 'NONE', #9, #215 ) ;
#474 = DIRECTION ( 'NONE',  ( -2.282530889443167022E-16, 4.701977403289150032E-32, -1.000000000000000000 ) ) ;
#475 = ORIENTED_EDGE ( 'NONE', *, *, #468, .F. ) ;
#476 = ADVANCED_FACE ( 'NONE', ( #568 ), #940, .T. ) ;
#477 = DIRECTION ( 'NONE',  ( 1.141265444721583757E-16, -0.0000000000000000000, 1.000000000000000000 ) ) ;
#478 = EDGE_LOOP ( 'NONE', ( #160, #967, #223, #512 ) ) ;
#479 = FILL_AREA_STYLE ('',( #100 ) ) ;
#480 = DIRECTION ( 'NONE',  ( 4.701977403289149484E-32, 4.701977403289149484E-32, 1.000000000000000000 ) ) ;
#481 = MANIFOLD_SOLID_BREP ( 'Extruir4[1]', #544 ) ;
#482 = VERTEX_POINT ( 'NONE', #794 ) ;
#483 = VECTOR ( 'NONE', #667, 1000.000000000000000 ) ;
#484 = CARTESIAN_POINT ( 'NONE',  ( 0.9500000000000001776, 0.5500000000000001554, 0.6249999999999998890 ) ) ;
#485 = ORIENTED_EDGE ( 'NONE', *, *, #319, .F. ) ;
#486 = VECTOR ( 'NONE', #316, 1000.000000000000000 ) ;
#487 = MECHANICAL_DESIGN_GEOMETRIC_PRESENTATION_REPRESENTATION (  '', ( #737 ), #961 ) ;
#488 = DIRECTION ( 'NONE',  ( -1.073240866447125706E-47, 1.000000000000000000, -4.701977403289149484E-32 ) ) ;
#489 = FACE_OUTER_BOUND ( 'NONE', #157, .T. ) ;
#490 = EDGE_LOOP ( 'NONE', ( #81, #1068, #593, #367 ) ) ;
#491 = DIRECTION ( 'NONE',  ( 2.710505431213760592E-16, 1.000000000000000000, 4.701977403289148390E-32 ) ) ;
#492 = ORIENTED_EDGE ( 'NONE', *, *, #444, .F. ) ;
#493 = FACE_OUTER_BOUND ( 'NONE', #469, .T. ) ;
#494 = EDGE_CURVE ( 'NONE', #360, #345, #947, .T. ) ;
#495 = PLANE ( 'NONE',  #238 ) ;
#496 = CARTESIAN_POINT ( 'NONE',  ( -0.8500000000000003109, 0.5500000000000001554, 0.6250000000000003331 ) ) ;
#497 = VERTEX_POINT ( 'NONE', #320 ) ;
#498 = DIRECTION ( 'NONE',  ( 0.0000000000000000000, -1.000000000000000000, 0.0000000000000000000 ) ) ;
#499 = ORIENTED_EDGE ( 'NONE', *, *, #910, .T. ) ;
#500 = CARTESIAN_POINT ( 'NONE',  ( -0.8500000000000001998, -0.001000000000000132727, -0.6249999999999998890 ) ) ;
#501 = SURFACE_STYLE_FILL_AREA ( #228 ) ;
#502 = CARTESIAN_POINT ( 'NONE',  ( 2.225999600319681360, 0.5500000000000004885, 0.6249999999999995559 ) ) ;
#503 = ADVANCED_FACE ( 'NONE', ( #594 ), #1168, .T. ) ;
#504 = ORIENTED_EDGE ( 'NONE', *, *, #875, .T. ) ;
#505 = CARTESIAN_POINT ( 'NONE',  ( -0.8500000000000001998, -0.001000000000000132727, -0.6249999999999998890 ) ) ;
#506 = ORIENTED_EDGE ( 'NONE', *, *, #821, .T. ) ;
#507 = VECTOR ( 'NONE', #693, 1000.000000000000000 ) ;
#508 =( NAMED_UNIT ( * ) PLANE_ANGLE_UNIT ( ) SI_UNIT ( $, .RADIAN. ) );
#509 = VECTOR ( 'NONE', #670, 1000.000000000000000 ) ;
#510 = LINE ( 'NONE', #221, #129 ) ;
#511 = AXIS2_PLACEMENT_3D ( 'NONE', #279, #770, #763 ) ;
#512 = ORIENTED_EDGE ( 'NONE', *, *, #139, .T. ) ;
#513 = EDGE_CURVE ( 'NONE', #1126, #239, #421, .T. ) ;
#514 = CARTESIAN_POINT ( 'NONE',  ( 0.8499999999999997558, -0.001000000000000566408, -0.4749999999999999778 ) ) ;
#515 = ORIENTED_EDGE ( 'NONE', *, *, #773, .F. ) ;
#516 = DIRECTION ( 'NONE',  ( -1.000000000000000000, 2.710505431213760592E-16, -6.505213034913025618E-16 ) ) ;
#517 = CARTESIAN_POINT ( 'NONE',  ( -0.9500000000000000666, 0.5500000000000001554, 0.6250000000000001110 ) ) ;
#518 = ORIENTED_EDGE ( 'NONE', *, *, #712, .F. ) ;
#519 = DIRECTION ( 'NONE',  ( -1.000000000000000000, 0.0000000000000000000, 1.141265444721583757E-16 ) ) ;
#520 = VERTEX_POINT ( 'NONE', #882 ) ;
#521 = EDGE_CURVE ( 'NONE', #672, #1041, #338, .T. ) ;
#522 = CARTESIAN_POINT ( 'NONE',  ( -0.6000000000000001998, -0.001000000000000241147, -0.4749999999999998113 ) ) ;
#523 =( GEOMETRIC_REPRESENTATION_CONTEXT ( 3 ) GLOBAL_UNCERTAINTY_ASSIGNED_CONTEXT ( ( #86 ) ) GLOBAL_UNIT_ASSIGNED_CONTEXT ( ( #966, #353, #531 ) ) REPRESENTATION_CONTEXT ( 'NONE', 'WORKASPACE' ) );
#524 = ADVANCED_BREP_SHAPE_REPRESENTATION ( 'C6B50F79-DFD9-4367-B93A-B22A225F10D9', ( #322, #329, #481, #326, #775 ), #950 ) ;
#525 = VERTEX_POINT ( 'NONE', #800 ) ;
#526 = FACE_OUTER_BOUND ( 'NONE', #117, .T. ) ;
#527 = VERTEX_POINT ( 'NONE', #31 ) ;
#528 = VECTOR ( 'NONE', #745, 1000.000000000000000 ) ;
#529 = VECTOR ( 'NONE', #176, 1000.000000000000000 ) ;
#530 = DIRECTION ( 'NONE',  ( 0.0000000000000000000, -1.000000000000000000, 0.0000000000000000000 ) ) ;
#531 =( NAMED_UNIT ( * ) SI_UNIT ( $, .STERADIAN. ) SOLID_ANGLE_UNIT ( ) );
#532 = LINE ( 'NONE', #649, #529 ) ;
#533 = ORIENTED_EDGE ( 'NONE', *, *, #89, .T. ) ;
#534 = CARTESIAN_POINT ( 'NONE',  ( -0.5999999999999999778, 0.5500000000000000444, -0.6249999999999998890 ) ) ;
#535 = APPLICATION_CONTEXT ( 'automotive_design' ) ;
#536 = EDGE_LOOP ( 'NONE', ( #131, #1119, #688, #533 ) ) ;
#537 = CARTESIAN_POINT ( 'NONE',  ( 0.6000000000000003109, 0.0000000000000000000, 0.6250000000000001110 ) ) ;
#538 = PLANE ( 'NONE',  #450 ) ;
#539 = EDGE_CURVE ( 'NONE', #482, #27, #620, .T. ) ;
#540 = ORIENTED_EDGE ( 'NONE', *, *, #559, .F. ) ;
#541 = CARTESIAN_POINT ( 'NONE',  ( 0.9499999999999996225, 0.5500000000000000444, -0.6249999999999998890 ) ) ;
#542 = PLANE ( 'NONE',  #762 ) ;
#543 = VECTOR ( 'NONE', #922, 1000.000000000000000 ) ;
#544 = CLOSED_SHELL ( 'NONE', ( #1069, #342, #476, #571, #838, #155, #440, #159, #130, #370, #978, #809, #795, #366 ) ) ;
#545 = ORIENTED_EDGE ( 'NONE', *, *, #1045, .F. ) ;
#546 = VECTOR ( 'NONE', #1070, 1000.000000000000000 ) ;
#547 = ORIENTED_EDGE ( 'NONE', *, *, #461, .T. ) ;
#548 = ADVANCED_FACE ( 'NONE', ( #1163 ), #1149, .F. ) ;
#549 = CARTESIAN_POINT ( 'NONE',  ( 0.6000000000000000888, 0.5999999999999999778, -0.6249999999999996669 ) ) ;
#550 =( NAMED_UNIT ( * ) SI_UNIT ( $, .STERADIAN. ) SOLID_ANGLE_UNIT ( ) );
#551 = LINE ( 'NONE', #88, #83 ) ;
#552 = DIRECTION ( 'NONE',  ( -1.000000000000000000, -2.710505431213760592E-16, 2.282530889443167515E-16 ) ) ;
#553 = ADVANCED_FACE ( 'NONE', ( #1085 ), #242, .F. ) ;
#554 = SURFACE_STYLE_FILL_AREA ( #162 ) ;
#555 = FACE_OUTER_BOUND ( 'NONE', #813, .T. ) ;
#556 = ORIENTED_EDGE ( 'NONE', *, *, #610, .F. ) ;
#557 = DIRECTION ( 'NONE',  ( -1.000000000000000000, 0.0000000000000000000, 2.168404344971008868E-16 ) ) ;
#558 = LINE ( 'NONE', #465, #132 ) ;
#559 = EDGE_CURVE ( 'NONE', #372, #953, #786, .T. ) ;
#560 = LINE ( 'NONE', #1145, #1083 ) ;
#561 = DIRECTION ( 'NONE',  ( 1.000000000000000000, 0.0000000000000000000, 1.734723475976807094E-16 ) ) ;
#562 = VECTOR ( 'NONE', #498, 1000.000000000000000 ) ;
#563 = ORIENTED_EDGE ( 'NONE', *, *, #148, .F. ) ;
#564 = VECTOR ( 'NONE', #655, 1000.000000000000000 ) ;
#565 = PLANE ( 'NONE',  #606 ) ;
#566 = EDGE_LOOP ( 'NONE', ( #1001, #424, #90, #540 ) ) ;
#567 = VECTOR ( 'NONE', #1043, 1000.000000000000000 ) ;
#568 = FACE_OUTER_BOUND ( 'NONE', #1148, .T. ) ;
#569 = DIRECTION ( 'NONE',  ( -4.017254365419974116E-16, 0.0000000000000000000, -1.000000000000000000 ) ) ;
#570 = CARTESIAN_POINT ( 'NONE',  ( 0.8500000000000000888, 0.5500000000000001554, 0.4750000000000003109 ) ) ;
#571 = ADVANCED_FACE ( 'NONE', ( #710 ), #1090, .T. ) ;
#572 = ORIENTED_EDGE ( 'NONE', *, *, #1104, .T. ) ;
#573 = LINE ( 'NONE', #98, #877 ) ;
#574 = ORIENTED_EDGE ( 'NONE', *, *, #191, .F. ) ;
#575 = PLANE ( 'NONE',  #1084 ) ;
#576 = LINE ( 'NONE', #684, #1037 ) ;
#577 = CARTESIAN_POINT ( 'NONE',  ( 0.6000000000000000888, 0.5500000000000000444, 0.6250000000000004441 ) ) ;
#578 = EDGE_CURVE ( 'NONE', #806, #828, #226, .T. ) ;
#579 = EDGE_LOOP ( 'NONE', ( #694, #12, #774, #141, #1194, #845, #305, #110 ) ) ;
#580 = FACE_OUTER_BOUND ( 'NONE', #125, .T. ) ;
#581 = ORIENTED_EDGE ( 'NONE', *, *, #266, .F. ) ;
#582 = CARTESIAN_POINT ( 'NONE',  ( -0.9500000000000002887, 0.5500000000000000444, -0.6249999999999996669 ) ) ;
#583 = LINE ( 'NONE', #755, #567 ) ;
#584 = ORIENTED_EDGE ( 'NONE', *, *, #412, .F. ) ;
#585 = AXIS2_PLACEMENT_3D ( 'NONE', #376, #54, #1088 ) ;
#586 = LINE ( 'NONE', #962, #257 ) ;
#587 = VERTEX_POINT ( 'NONE', #327 ) ;
#588 = EDGE_CURVE ( 'NONE', #65, #1217, #1074, .T. ) ;
#589 = CARTESIAN_POINT ( 'NONE',  ( -0.8500000000000004219, -0.001000000000000132727, 0.6250000000000003331 ) ) ;
#590 = LINE ( 'NONE', #1224, #1155 ) ;
#591 = ORIENTED_EDGE ( 'NONE', *, *, #220, .T. ) ;
#592 = DIRECTION ( 'NONE',  ( -3.761581922631326594E-31, -1.000000000000000000, -6.525304467998535223E-47 ) ) ;
#593 = ORIENTED_EDGE ( 'NONE', *, *, #377, .F. ) ;
#594 = FACE_OUTER_BOUND ( 'NONE', #767, .T. ) ;
#595 = EDGE_CURVE ( 'NONE', #372, #1039, #985, .T. ) ;
#596 = DIRECTION ( 'NONE',  ( 0.0000000000000000000, 1.000000000000000000, -0.0000000000000000000 ) ) ;
#597 = CARTESIAN_POINT ( 'NONE',  ( -0.6000000000000001998, 0.5999999999999999778, 0.4750000000000002554 ) ) ;
#598 = ORIENTED_EDGE ( 'NONE', *, *, #26, .T. ) ;
#599 = CARTESIAN_POINT ( 'NONE',  ( 0.9499999999999996225, 0.5500000000000000444, 0.6250000000000001110 ) ) ;
#600 = ORIENTED_EDGE ( 'NONE', *, *, #76, .T. ) ;
#601 = CARTESIAN_POINT ( 'NONE',  ( 0.9500000000000001776, 0.05000000000000021094, 0.6249999999999998890 ) ) ;
#602 = EDGE_CURVE ( 'NONE', #187, #497, #46, .T. ) ;
#603 = ORIENTED_EDGE ( 'NONE', *, *, #456, .T. ) ;
#604 = CARTESIAN_POINT ( 'NONE',  ( -0.8500000000000004219, -0.001000000000000132727, 0.6250000000000003331 ) ) ;
#605 = VERTEX_POINT ( 'NONE', #549 ) ;
#606 = AXIS2_PLACEMENT_3D ( 'NONE', #1142, #659, #304 ) ;
#607 = DIRECTION ( 'NONE',  ( 3.761581922631327032E-31, -1.000000000000000000, 6.525304467998537167E-47 ) ) ;
#608 = VECTOR ( 'NONE', #1092, 1000.000000000000000 ) ;
#609 = LINE ( 'NONE', #986, #169 ) ;
#610 = EDGE_CURVE ( 'NONE', #637, #605, #72, .T. ) ;
#611 = ORIENTED_EDGE ( 'NONE', *, *, #632, .T. ) ;
#612 = CARTESIAN_POINT ( 'NONE',  ( 0.5999999999999999778, 0.5999999999999996447, -0.4749999999999998113 ) ) ;
#613 = ORIENTED_EDGE ( 'NONE', *, *, #302, .T. ) ;
#614 = CARTESIAN_POINT ( 'NONE',  ( 0.8499999999999997558, -0.001000000000000566408, -0.6249999999999998890 ) ) ;
#615 =( NAMED_UNIT ( * ) SI_UNIT ( $, .STERADIAN. ) SOLID_ANGLE_UNIT ( ) );
#616 = EDGE_LOOP ( 'NONE', ( #572, #652, #119, #506, #879, #841, #50, #1066 ) ) ;
#617 = PLANE ( 'NONE',  #1080 ) ;
#618 = EDGE_LOOP ( 'NONE', ( #1058, #283, #784, #350, #650, #414, #584, #1115 ) ) ;
#619 = EDGE_CURVE ( 'NONE', #325, #953, #362, .T. ) ;
#620 = LINE ( 'NONE', #41, #391 ) ;
#621 = VECTOR ( 'NONE', #286, 1000.000000000000000 ) ;
#622 = FACE_OUTER_BOUND ( 'NONE', #1179, .T. ) ;
#623 = PLANE ( 'NONE',  #585 ) ;
#624 = VERTEX_POINT ( 'NONE', #734 ) ;
#625 = LINE ( 'NONE', #541, #127 ) ;
#626 = EDGE_CURVE ( 'NONE', #47, #263, #905, .T. ) ;
#627 = VECTOR ( 'NONE', #254, 1000.000000000000000 ) ;
#628 = SURFACE_STYLE_USAGE ( .BOTH. , #716 ) ;
#629 = AXIS2_PLACEMENT_3D ( 'NONE', #933, #381, #965 ) ;
#630 = ORIENTED_EDGE ( 'NONE', *, *, #89, .F. ) ;
#631 = DIRECTION ( 'NONE',  ( -1.000000000000000000, 0.0000000000000000000, 1.141265444721583757E-16 ) ) ;
#632 = EDGE_CURVE ( 'NONE', #497, #40, #66, .T. ) ;
#633 = EDGE_LOOP ( 'NONE', ( #963, #14, #892, #679 ) ) ;
#634 = CARTESIAN_POINT ( 'NONE',  ( -0.5999999999999999778, 0.5999999999999999778, -0.6249999999999998890 ) ) ;
#635 = FACE_OUTER_BOUND ( 'NONE', #1162, .T. ) ;
#636 = EDGE_CURVE ( 'NONE', #372, #819, #815, .T. ) ;
#637 = VERTEX_POINT ( 'NONE', #715 ) ;
#638 = DIRECTION ( 'NONE',  ( -1.000000000000000000, -2.710505431213760592E-16, 2.282530889443167515E-16 ) ) ;
#639 = VECTOR ( 'NONE', #145, 1000.000000000000000 ) ;
#640 = DIRECTION ( 'NONE',  ( 1.000000000000000000, -2.710505431213760592E-16, -0.0000000000000000000 ) ) ;
#641 = PRODUCT_DEFINITION ( 'UNKNOWN', '', #121, #431 ) ;
#642 = ORIENTED_EDGE ( 'NONE', *, *, #96, .F. ) ;
#643 = CARTESIAN_POINT ( 'NONE',  ( -0.9500000000000002887, 0.5500000000000000444, -0.6249999999999996669 ) ) ;
#644 = CARTESIAN_POINT ( 'NONE',  ( -0.8500000000000003109, 0.5500000000000001554, 0.6250000000000003331 ) ) ;
#645 = LINE ( 'NONE', #827, #48 ) ;
#646 = ORIENTED_EDGE ( 'NONE', *, *, #1190, .F. ) ;
#647 = CARTESIAN_POINT ( 'NONE',  ( 0.6000000000000003109, 0.5999999999999999778, 0.6250000000000012212 ) ) ;
#648 = CARTESIAN_POINT ( 'NONE',  ( -0.9500000000000002887, 0.5500000000000000444, -0.6249999999999998890 ) ) ;
#649 = CARTESIAN_POINT ( 'NONE',  ( -1.000000000000000444, -1.626303258728256651E-16, 0.6250000000000002220 ) ) ;
#650 = ORIENTED_EDGE ( 'NONE', *, *, #1006, .T. ) ;
#651 = LINE ( 'NONE', #278, #69 ) ;
#652 = ORIENTED_EDGE ( 'NONE', *, *, #294, .F. ) ;
#653 = DIRECTION ( 'NONE',  ( -0.0000000000000000000, -1.000000000000000000, -0.0000000000000000000 ) ) ;
#654 = EDGE_CURVE ( 'NONE', #819, #1093, #351, .T. ) ;
#655 = DIRECTION ( 'NONE',  ( -4.701977403289149484E-32, 4.701977403289150032E-32, -1.000000000000000000 ) ) ;
#656 = LINE ( 'NONE', #193, #893 ) ;
#657 = VECTOR ( 'NONE', #1100, 1000.000000000000000 ) ;
#658 = ORIENTED_EDGE ( 'NONE', *, *, #910, .F. ) ;
#659 = DIRECTION ( 'NONE',  ( 2.710505431213760592E-16, 1.000000000000000000, 4.701977403289149484E-32 ) ) ;
#660 = ORIENTED_EDGE ( 'NONE', *, *, #461, .F. ) ;
#661 = AXIS2_PLACEMENT_3D ( 'NONE', #1144, #662, #676 ) ;
#662 = DIRECTION ( 'NONE',  ( -2.710505431213760592E-16, -1.000000000000000000, -4.701977403289148390E-32 ) ) ;
#663 = ADVANCED_FACE ( 'NONE', ( #1008 ), #438, .T. ) ;
#664 = CARTESIAN_POINT ( 'NONE',  ( 0.9500000000000001776, 0.5500000000000000444, -0.6250000000000001110 ) ) ;
#665 = CARTESIAN_POINT ( 'NONE',  ( -0.6000000000000001998, 0.04999999999999991257, -0.6249999999999998890 ) ) ;
#666 = ORIENTED_EDGE ( 'NONE', *, *, #821, .F. ) ;
#667 = DIRECTION ( 'NONE',  ( 0.0000000000000000000, -1.000000000000000000, 0.0000000000000000000 ) ) ;
#668 = ORIENTED_EDGE ( 'NONE', *, *, #1202, .F. ) ;
#669 = CARTESIAN_POINT ( 'NONE',  ( 0.8499999999999999778, 0.5999999999999995337, -0.6249999999999998890 ) ) ;
#670 = DIRECTION ( 'NONE',  ( 0.0000000000000000000, -1.000000000000000000, 0.0000000000000000000 ) ) ;
#671 = EDGE_CURVE ( 'NONE', #1054, #27, #158, .T. ) ;
#672 = VERTEX_POINT ( 'NONE', #357 ) ;
#673 = CARTESIAN_POINT ( 'NONE',  ( -0.6000000000000001998, -1.626303258728256651E-16, 0.6250000000000002220 ) ) ;
#674 = ORIENTED_EDGE ( 'NONE', *, *, #148, .T. ) ;
#675 = VECTOR ( 'NONE', #949, 1000.000000000000000 ) ;
#676 = DIRECTION ( 'NONE',  ( 1.000000000000000000, -2.710505431213760592E-16, 0.0000000000000000000 ) ) ;
#677 = DIRECTION ( 'NONE',  ( -1.734723475976807094E-16, 0.0000000000000000000, 1.000000000000000000 ) ) ;
#678 = FACE_OUTER_BOUND ( 'NONE', #616, .T. ) ;
#679 = ORIENTED_EDGE ( 'NONE', *, *, #1197, .T. ) ;
#680 = ADVANCED_FACE ( 'NONE', ( #908 ), #1180, .T. ) ;
#681 = AXIS2_PLACEMENT_3D ( 'NONE', #505, #39, #788 ) ;
#682 = CARTESIAN_POINT ( 'NONE',  ( 1.850999600319680471, 0.5999999999999999778, 0.6250000000000006661 ) ) ;
#683 = ORIENTED_EDGE ( 'NONE', *, *, #1156, .T. ) ;
#684 = CARTESIAN_POINT ( 'NONE',  ( -0.6000000000000001998, 0.3000000000000001554, 0.6249999999999995559 ) ) ;
#685 = DIRECTION ( 'NONE',  ( 4.949449898199115069E-31, 1.000000000000000000, 2.168404344971012812E-15 ) ) ;
#686 = LINE ( 'NONE', #1177, #1173 ) ;
#687 = DIRECTION ( 'NONE',  ( 0.0000000000000000000, -1.000000000000000000, 0.0000000000000000000 ) ) ;
#688 = ORIENTED_EDGE ( 'NONE', *, *, #602, .F. ) ;
#689 = DIRECTION ( 'NONE',  ( 4.701977403289149484E-32, 0.0000000000000000000, 1.000000000000000000 ) ) ;
#690 = EDGE_CURVE ( 'NONE', #917, #898, #75, .T. ) ;
#691 = CARTESIAN_POINT ( 'NONE',  ( 0.0000000000000000000, 0.0000000000000000000, 0.0000000000000000000 ) ) ;
#692 = ORIENTED_EDGE ( 'NONE', *, *, #59, .T. ) ;
#693 = DIRECTION ( 'NONE',  ( -1.000000000000000000, 3.761581922631326594E-31, -1.734723475976807094E-16 ) ) ;
#694 = ORIENTED_EDGE ( 'NONE', *, *, #59, .F. ) ;
#695 = VECTOR ( 'NONE', #222, 1000.000000000000000 ) ;
#696 = DIRECTION ( 'NONE',  ( 4.017254365419974609E-16, 0.0000000000000000000, 1.000000000000000000 ) ) ;
#697 = EDGE_CURVE ( 'NONE', #1143, #709, #625, .T. ) ;
#698 = VERTEX_POINT ( 'NONE', #634 ) ;
#699 = FACE_OUTER_BOUND ( 'NONE', #449, .T. ) ;
#700 = ORIENTED_EDGE ( 'NONE', *, *, #418, .F. ) ;
#701 = DIRECTION ( 'NONE',  ( 1.000000000000000000, -2.710505431213760592E-16, 0.0000000000000000000 ) ) ;
#702 = CLOSED_SHELL ( 'NONE', ( #200, #397, #1131, #663, #803, #356, #826, #1146, #237, #680, #1101, #45, #924, #548 ) ) ;
#703 = VECTOR ( 'NONE', #771, 1000.000000000000000 ) ;
#704 = SURFACE_SIDE_STYLE ('',( #501 ) ) ;
#705 = PRODUCT_CONTEXT ( 'NONE', #535, 'mechanical' ) ;
#706 = VECTOR ( 'NONE', #1027, 1000.000000000000000 ) ;
#707 = EDGE_LOOP ( 'NONE', ( #166, #887, #442, #184, #241, #230, #458, #951 ) ) ;
#708 = CARTESIAN_POINT ( 'NONE',  ( 0.6000000000000000888, 0.04999999999999996808, -0.6250000000000000000 ) ) ;
#709 = VERTEX_POINT ( 'NONE', #643 ) ;
#710 = FACE_OUTER_BOUND ( 'NONE', #400, .T. ) ;
#711 = DIRECTION ( 'NONE',  ( 2.282530889443167515E-16, 4.701977403289150032E-32, 1.000000000000000000 ) ) ;
#712 = EDGE_CURVE ( 'NONE', #123, #40, #1110, .T. ) ;
#713 = CARTESIAN_POINT ( 'NONE',  ( -0.8500000000000000888, 0.5500000000000001554, -0.4749999999999999778 ) ) ;
#714 = ORIENTED_EDGE ( 'NONE', *, *, #266, .T. ) ;
#715 = CARTESIAN_POINT ( 'NONE',  ( 0.5999999999999998668, 0.5500000000000000444, -0.6249999999999996669 ) ) ;
#716 = SURFACE_SIDE_STYLE ('',( #554 ) ) ;
#717 = PRESENTATION_LAYER_ASSIGNMENT (  '', '', ( #182 ) ) ;
#718 = LINE ( 'NONE', #1018, #7 ) ;
#719 = VERTEX_POINT ( 'NONE', #1003 ) ;
#720 = EDGE_CURVE ( 'NONE', #263, #907, #446, .T. ) ;
#721 = DIRECTION ( 'NONE',  ( -4.701977403289150032E-32, -4.701977403289150032E-32, -1.000000000000000000 ) ) ;
#722 = VECTOR ( 'NONE', #638, 1000.000000000000000 ) ;
#723 = PRESENTATION_LAYER_ASSIGNMENT (  '', '', ( #737 ) ) ;
#724 = VECTOR ( 'NONE', #179, 1000.000000000000000 ) ;
#725 = ORIENTED_EDGE ( 'NONE', *, *, #96, .T. ) ;
#726 = DIRECTION ( 'NONE',  ( -0.0000000000000000000, -0.0000000000000000000, 1.000000000000000000 ) ) ;
#727 = DIRECTION ( 'NONE',  ( 4.949449898199115945E-31, -1.000000000000000000, 2.168404344971013207E-15 ) ) ;
#728 = EDGE_CURVE ( 'NONE', #587, #420, #1191, .T. ) ;
#729 = ORIENTED_EDGE ( 'NONE', *, *, #521, .F. ) ;
#730 = DIRECTION ( 'NONE',  ( -2.282530889443167515E-16, -4.701977403289149484E-32, -1.000000000000000000 ) ) ;
#731 = LINE ( 'NONE', #175, #398 ) ;
#732 = ADVANCED_FACE ( 'NONE', ( #264 ), #1011, .F. ) ;
#733 = ORIENTED_EDGE ( 'NONE', *, *, #901, .F. ) ;
#734 = CARTESIAN_POINT ( 'NONE',  ( -0.6000000000000001998, 0.5500000000000000444, 0.6250000000000002220 ) ) ;
#735 = AXIS2_PLACEMENT_3D ( 'NONE', #13, #1030, #557 ) ;
#736 = CARTESIAN_POINT ( 'NONE',  ( 0.9500000000000001776, 0.5500000000000001554, 0.6249999999999998890 ) ) ;
#737 = STYLED_ITEM ( 'NONE', ( #265 ), #326 ) ;
#738 = ORIENTED_EDGE ( 'NONE', *, *, #38, .T. ) ;
#739 = FACE_OUTER_BOUND ( 'NONE', #707, .T. ) ;
#740 = DIRECTION ( 'NONE',  ( -2.951412382729594902E-47, -1.088878977603803073E-31, 1.000000000000000000 ) ) ;
#741 = CARTESIAN_POINT ( 'NONE',  ( 0.6000000000000000888, 0.5500000000000000444, 0.4750000000000002554 ) ) ;
#742 = ORIENTED_EDGE ( 'NONE', *, *, #988, .F. ) ;
#743 = EDGE_CURVE ( 'NONE', #104, #1109, #1021, .T. ) ;
#744 = LINE ( 'NONE', #484, #483 ) ;
#745 = DIRECTION ( 'NONE',  ( 1.000000000000000000, -2.710505431213760592E-16, -2.168404344971008868E-16 ) ) ;
#746 = LINE ( 'NONE', #404, #703 ) ;
#747 = CARTESIAN_POINT ( 'NONE',  ( 0.9499999999999996225, 0.5500000000000000444, -0.6249999999999998890 ) ) ;
#748 = VECTOR ( 'NONE', #389, 1000.000000000000000 ) ;
#749 = ORIENTED_EDGE ( 'NONE', *, *, #227, .F. ) ;
#750 = CARTESIAN_POINT ( 'NONE',  ( -0.9500000000000000666, 0.04999999999999999584, -0.6250000000000000000 ) ) ;
#751 = EDGE_LOOP ( 'NONE', ( #203, #646, #267, #982 ) ) ;
#752 = EDGE_CURVE ( 'NONE', #605, #65, #368, .T. ) ;
#753 = CARTESIAN_POINT ( 'NONE',  ( -0.9500000000000002887, 0.5500000000000001554, -0.6249999999999998890 ) ) ;
#754 = UNCERTAINTY_MEASURE_WITH_UNIT (LENGTH_MEASURE( 1.000000000000000082E-05 ), #425, 'distance_accuracy_value', 'NONE');
#755 = CARTESIAN_POINT ( 'NONE',  ( -0.6000000000000001998, 0.5999999999999999778, 0.6250000000000002220 ) ) ;
#756 = LINE ( 'NONE', #665, #996 ) ;
#757 = VECTOR ( 'NONE', #111, 1000.000000000000000 ) ;
#758 = VERTEX_POINT ( 'NONE', #401 ) ;
#759 =( GEOMETRIC_REPRESENTATION_CONTEXT ( 3 ) GLOBAL_UNCERTAINTY_ASSIGNED_CONTEXT ( ( #143 ) ) GLOBAL_UNIT_ASSIGNED_CONTEXT ( ( #1181, #128, #615 ) ) REPRESENTATION_CONTEXT ( 'NONE', 'WORKASPACE' ) );
#760 = CARTESIAN_POINT ( 'NONE',  ( 0.8499999999999998668, 0.5500000000000001554, -0.4749999999999999778 ) ) ;
#761 = ORIENTED_EDGE ( 'NONE', *, *, #328, .T. ) ;
#762 = AXIS2_PLACEMENT_3D ( 'NONE', #914, #822, #1196 ) ;
#763 = DIRECTION ( 'NONE',  ( 0.0000000000000000000, 0.0000000000000000000, -1.000000000000000000 ) ) ;
#764 = ADVANCED_FACE ( 'NONE', ( #79 ), #945, .F. ) ;
#765 = CARTESIAN_POINT ( 'NONE',  ( -0.6000000000000001998, 0.5999999999999999778, 0.6250000000000002220 ) ) ;
#766 =( NAMED_UNIT ( * ) PLANE_ANGLE_UNIT ( ) SI_UNIT ( $, .RADIAN. ) );
#767 = EDGE_LOOP ( 'NONE', ( #471, #364, #839, #789 ) ) ;
#768 = CARTESIAN_POINT ( 'NONE',  ( -0.6000000000000001998, 0.5999999999999999778, 0.6250000000000002220 ) ) ;
#769 = ORIENTED_EDGE ( 'NONE', *, *, #521, .T. ) ;
#770 = DIRECTION ( 'NONE',  ( 1.000000000000000000, 0.0000000000000000000, 0.0000000000000000000 ) ) ;
#771 = DIRECTION ( 'NONE',  ( -0.0000000000000000000, -0.0000000000000000000, 1.000000000000000000 ) ) ;
#772 = SURFACE_STYLE_FILL_AREA ( #19 ) ;
#773 = EDGE_CURVE ( 'NONE', #1039, #325, #573, .T. ) ;
#774 = ORIENTED_EDGE ( 'NONE', *, *, #832, .T. ) ;
#775 = AXIS2_PLACEMENT_3D ( 'NONE', #691, #255, #331 ) ;
#776 = CARTESIAN_POINT ( 'NONE',  ( 0.8500000000000001998, 0.5999999999999995337, 0.6250000000000003331 ) ) ;
#777 = EDGE_LOOP ( 'NONE', ( #668, #613, #683, #74 ) ) ;
#778 = DIRECTION ( 'NONE',  ( -1.000000000000000000, 0.0000000000000000000, 2.282530889443167515E-16 ) ) ;
#779 = PLANE ( 'NONE',  #855 ) ;
#780 =( LENGTH_UNIT ( ) NAMED_UNIT ( * ) SI_UNIT ( .MILLI., .METRE. ) );
#781 = LINE ( 'NONE', #896, #486 ) ;
#782 = VECTOR ( 'NONE', #1174, 1000.000000000000000 ) ;
#783 = FACE_OUTER_BOUND ( 'NONE', #1189, .T. ) ;
#784 = ORIENTED_EDGE ( 'NONE', *, *, #1062, .F. ) ;
#785 = VECTOR ( 'NONE', #1170, 1000.000000000000000 ) ;
#786 = LINE ( 'NONE', #522, #271 ) ;
#787 = PLANE ( 'NONE',  #11 ) ;
#788 = DIRECTION ( 'NONE',  ( -2.710505431213760592E-16, -1.000000000000000000, 0.0000000000000000000 ) ) ;
#789 = ORIENTED_EDGE ( 'NONE', *, *, #588, .T. ) ;
#790 = ADVANCED_FACE ( 'NONE', ( #928 ), #91, .F. ) ;
#791 = DIRECTION ( 'NONE',  ( 0.0000000000000000000, 1.000000000000000000, 0.0000000000000000000 ) ) ;
#792 = CARTESIAN_POINT ( 'NONE',  ( -0.6000000000000001998, 0.04999999999999996808, -0.6249999999999998890 ) ) ;
#793 = ORIENTED_EDGE ( 'NONE', *, *, #988, .T. ) ;
#794 = CARTESIAN_POINT ( 'NONE',  ( 1.000000000000000000, -5.877471754111438635E-32, -0.6250000000000004441 ) ) ;
#795 = ADVANCED_FACE ( 'NONE', ( #580 ), #178, .F. ) ;
#796 = CARTESIAN_POINT ( 'NONE',  ( 0.5999999999999999778, -0.001000000000000457988, 0.4750000000000002554 ) ) ;
#797 = CARTESIAN_POINT ( 'NONE',  ( 0.5999999999999996447, 0.5500000000000000444, -0.4749999999999998113 ) ) ;
#798 = ORIENTED_EDGE ( 'NONE', *, *, #1034, .T. ) ;
#799 = AXIS2_PLACEMENT_3D ( 'NONE', #1219, #384, #1206 ) ;
#800 = CARTESIAN_POINT ( 'NONE',  ( 0.6000000000000001998, 0.5999999999999999778, 0.4750000000000002554 ) ) ;
#801 = LINE ( 'NONE', #58, #374 ) ;
#802 = CARTESIAN_POINT ( 'NONE',  ( -0.6000000000000001998, 0.0000000000000000000, 0.6250000000000002220 ) ) ;
#803 = ADVANCED_FACE ( 'NONE', ( #834 ), #459, .F. ) ;
#804 = LINE ( 'NONE', #323, #315 ) ;
#805 = LINE ( 'NONE', #1183, #392 ) ;
#806 = VERTEX_POINT ( 'NONE', #103 ) ;
#807 = CARTESIAN_POINT ( 'NONE',  ( -0.9500000000000002887, 0.04999999999999991257, -0.6249999999999998890 ) ) ;
#808 = SURFACE_STYLE_USAGE ( .BOTH. , #704 ) ;
#809 = ADVANCED_FACE ( 'NONE', ( #82 ), #470, .F. ) ;
#810 = LINE ( 'NONE', #270, #272 ) ;
#811 = VERTEX_POINT ( 'NONE', #760 ) ;
#812 = DIRECTION ( 'NONE',  ( -3.761581922631327032E-31, 1.000000000000000000, -6.525304467998537167E-47 ) ) ;
#813 = EDGE_LOOP ( 'NONE', ( #1175, #868, #1019, #642 ) ) ;
#814 = ADVANCED_FACE ( 'NONE', ( #1213 ), #393, .F. ) ;
#815 = LINE ( 'NONE', #534, #1111 ) ;
#816 = AXIS2_PLACEMENT_3D ( 'NONE', #248, #147, #689 ) ;
#817 = VECTOR ( 'NONE', #307, 1000.000000000000000 ) ;
#818 = VECTOR ( 'NONE', #211, 1000.000000000000000 ) ;
#819 = VERTEX_POINT ( 'NONE', #379 ) ;
#820 = DIRECTION ( 'NONE',  ( 2.710505431213760592E-16, 1.000000000000000000, 4.701977403289148390E-32 ) ) ;
#821 = EDGE_CURVE ( 'NONE', #1126, #806, #744, .T. ) ;
#822 = DIRECTION ( 'NONE',  ( 2.282530889443167515E-16, 0.0000000000000000000, 1.000000000000000000 ) ) ;
#823 = ORIENTED_EDGE ( 'NONE', *, *, #559, .T. ) ;
#824 = DIRECTION ( 'NONE',  ( -1.000000000000000000, 0.0000000000000000000, 2.282530889443167515E-16 ) ) ;
#825 = PRESENTATION_STYLE_ASSIGNMENT (( #628 ) ) ;
#826 = ADVANCED_FACE ( 'NONE', ( #739 ), #195, .F. ) ;
#827 = CARTESIAN_POINT ( 'NONE',  ( 2.225999600319681360, 0.6000000000000004219, 0.6249999999999996669 ) ) ;
#828 = VERTEX_POINT ( 'NONE', #856 ) ;
#829 = FACE_OUTER_BOUND ( 'NONE', #777, .T. ) ;
#830 = FACE_OUTER_BOUND ( 'NONE', #333, .T. ) ;
#831 = CARTESIAN_POINT ( 'NONE',  ( 0.9500000000000001776, 0.5500000000000001554, -0.6250000000000001110 ) ) ;
#832 = EDGE_CURVE ( 'NONE', #1093, #953, #2, .T. ) ;
#833 = ORIENTED_EDGE ( 'NONE', *, *, #1197, .F. ) ;
#834 = FACE_OUTER_BOUND ( 'NONE', #618, .T. ) ;
#835 = DIRECTION ( 'NONE',  ( 2.710505431213760592E-16, 1.000000000000000000, 4.701977403289148390E-32 ) ) ;
#836 = DIRECTION ( 'NONE',  ( 0.0000000000000000000, -1.000000000000000000, 2.168404344971013207E-15 ) ) ;
#837 = CARTESIAN_POINT ( 'NONE',  ( -0.6000000000000001998, 0.5999999999999999778, 0.4750000000000002554 ) ) ;
#838 = ADVANCED_FACE ( 'NONE', ( #1025 ), #565, .F. ) ;
#839 = ORIENTED_EDGE ( 'NONE', *, *, #752, .T. ) ;
#840 = DIRECTION ( 'NONE',  ( -0.0000000000000000000, 1.000000000000000000, 0.0000000000000000000 ) ) ;
#841 = ORIENTED_EDGE ( 'NONE', *, *, #347, .T. ) ;
#842 = DIRECTION ( 'NONE',  ( 2.282530889443167515E-16, 4.701977403289149484E-32, 1.000000000000000000 ) ) ;
#843 = CARTESIAN_POINT ( 'NONE',  ( 0.9500000000000001776, 0.04999999999999991257, -0.6250000000000001110 ) ) ;
#844 = LINE ( 'NONE', #116, #1123 ) ;
#845 = ORIENTED_EDGE ( 'NONE', *, *, #885, .F. ) ;
#846 = DIRECTION ( 'NONE',  ( -6.505213034913025618E-16, 1.293043785904516040E-31, 1.000000000000000000 ) ) ;
#847 = ORIENTED_EDGE ( 'NONE', *, *, #588, .F. ) ;
#848 = ADVANCED_FACE ( 'NONE', ( #829 ), #938, .F. ) ;
#849 = SURFACE_STYLE_FILL_AREA ( #479 ) ;
#850 = FACE_OUTER_BOUND ( 'NONE', #44, .T. ) ;
#851 = LINE ( 'NONE', #597, #675 ) ;
#852 = VECTOR ( 'NONE', #260, 1000.000000000000000 ) ;
#853 = VECTOR ( 'NONE', #791, 1000.000000000000000 ) ;
#854 = ORIENTED_EDGE ( 'NONE', *, *, #578, .F. ) ;
#855 = AXIS2_PLACEMENT_3D ( 'NONE', #843, #1151, #314 ) ;
#856 = CARTESIAN_POINT ( 'NONE',  ( 0.6000000000000003109, 0.04999999999999991257, 0.6250000000000000000 ) ) ;
#857 = VERTEX_POINT ( 'NONE', #673 ) ;
#858 = FACE_OUTER_BOUND ( 'NONE', #478, .T. ) ;
#859 = EDGE_CURVE ( 'NONE', #420, #463, #651, .T. ) ;
#860 = CARTESIAN_POINT ( 'NONE',  ( -2.225999600319681360, 0.5500000000000004885, 0.6250000000000001110 ) ) ;
#861 = FILL_AREA_STYLE_COLOUR ( '', #332 ) ;
#862 = VERTEX_POINT ( 'NONE', #419 ) ;
#863 = PRODUCT_DEFINITION_SHAPE ( 'NONE', 'NONE',  #641 ) ;
#864 = DIRECTION ( 'NONE',  ( -1.141265444721583757E-16, 0.0000000000000000000, -1.000000000000000000 ) ) ;
#865 = ORIENTED_EDGE ( 'NONE', *, *, #17, .T. ) ;
#866 = LINE ( 'NONE', #582, #190 ) ;
#867 = DIRECTION ( 'NONE',  ( 1.000000000000000000, -4.336808689942017736E-16, -6.505213034913026604E-16 ) ) ;
#868 = ORIENTED_EDGE ( 'NONE', *, *, #1156, .F. ) ;
#869 = VECTOR ( 'NONE', #349, 1000.000000000000000 ) ;
#870 = FACE_OUTER_BOUND ( 'NONE', #1158, .T. ) ;
#871 = VERTEX_POINT ( 'NONE', #140 ) ;
#872 = DIRECTION ( 'NONE',  ( 2.710505431213760592E-16, 1.000000000000000000, 4.701977403289148390E-32 ) ) ;
#873 = CARTESIAN_POINT ( 'NONE',  ( 1.850999600319680916, 0.5999999999999999778, -0.6249999999999994449 ) ) ;
#874 = CARTESIAN_POINT ( 'NONE',  ( -0.8499999999999999778, 0.5999999999999999778, -0.6249999999999998890 ) ) ;
#875 = EDGE_CURVE ( 'NONE', #811, #917, #344, .T. ) ;
#876 = EDGE_LOOP ( 'NONE', ( #1220, #138, #1154, #102 ) ) ;
#877 = VECTOR ( 'NONE', #282, 1000.000000000000000 ) ;
#878 = PLANE ( 'NONE',  #185 ) ;
#879 = ORIENTED_EDGE ( 'NONE', *, *, #578, .T. ) ;
#880 = VECTOR ( 'NONE', #596, 1000.000000000000000 ) ;
#881 = VECTOR ( 'NONE', #727, 1000.000000000000000 ) ;
#882 = CARTESIAN_POINT ( 'NONE',  ( 1.000000000000000666, -1.626303258728256651E-16, 0.6250000000000000000 ) ) ;
#883 = PRESENTATION_STYLE_ASSIGNMENT (( #808 ) ) ;
#884 = ORIENTED_EDGE ( 'NONE', *, *, #451, .T. ) ;
#885 = EDGE_CURVE ( 'NONE', #587, #1041, #886, .T. ) ;
#886 = LINE ( 'NONE', #240, #359 ) ;
#887 = ORIENTED_EDGE ( 'NONE', *, *, #71, .F. ) ;
#888 = PRESENTATION_STYLE_ASSIGNMENT (( #219 ) ) ;
#889 = DIRECTION ( 'NONE',  ( 1.000000000000000000, 0.0000000000000000000, 0.0000000000000000000 ) ) ;
#890 = VERTEX_POINT ( 'NONE', #708 ) ;
#891 = DIRECTION ( 'NONE',  ( 1.000000000000000000, 0.0000000000000000000, -6.505213034913025618E-16 ) ) ;
#892 = ORIENTED_EDGE ( 'NONE', *, *, #227, .T. ) ;
#893 = VECTOR ( 'NONE', #958, 1000.000000000000000 ) ;
#894 = DIRECTION ( 'NONE',  ( -1.000000000000000000, -2.710505431213760592E-16, 2.282530889443167515E-16 ) ) ;
#895 = EDGE_CURVE ( 'NONE', #1099, #520, #209, .T. ) ;
#896 = CARTESIAN_POINT ( 'NONE',  ( 0.5999999999999998668, 0.5500000000000000444, -0.6250000000000000000 ) ) ;
#897 = DIRECTION ( 'NONE',  ( 4.701977403289150032E-32, -4.701977403289150579E-32, 1.000000000000000000 ) ) ;
#898 = VERTEX_POINT ( 'NONE', #612 ) ;
#899 = VECTOR ( 'NONE', #1199, 1000.000000000000000 ) ;
#900 = DIRECTION ( 'NONE',  ( 2.710505431213760592E-16, 1.000000000000000000, 4.701977403289148390E-32 ) ) ;
#901 = EDGE_CURVE ( 'NONE', #345, #944, #21, .T. ) ;
#902 = LINE ( 'NONE', #33, #35 ) ;
#903 = CARTESIAN_POINT ( 'NONE',  ( 0.6000000000000003109, -1.626303258728256651E-16, 0.6250000000000001110 ) ) ;
#904 = ORIENTED_EDGE ( 'NONE', *, *, #1020, .T. ) ;
#905 = LINE ( 'NONE', #807, #150 ) ;
#906 = EDGE_CURVE ( 'NONE', #1014, #525, #231, .T. ) ;
#907 = VERTEX_POINT ( 'NONE', #792 ) ;
#908 = FACE_OUTER_BOUND ( 'NONE', #225, .T. ) ;
#909 = DIRECTION ( 'NONE',  ( 0.0000000000000000000, 4.701977403289149484E-32, 1.000000000000000000 ) ) ;
#910 = EDGE_CURVE ( 'NONE', #719, #408, #133, .T. ) ;
#911 = ORIENTED_EDGE ( 'NONE', *, *, #728, .T. ) ;
#912 = DIRECTION ( 'NONE',  ( -1.734723475976806848E-16, 0.0000000000000000000, -1.000000000000000000 ) ) ;
#913 = AXIS2_PLACEMENT_3D ( 'NONE', #599, #864, #519 ) ;
#914 = CARTESIAN_POINT ( 'NONE',  ( 2.225999600319680916, 0.6000000000000004219, -0.6250000000000004441 ) ) ;
#915 = MECHANICAL_DESIGN_GEOMETRIC_PRESENTATION_REPRESENTATION (  '', ( #56 ), #759 ) ;
#916 = VERTEX_POINT ( 'NONE', #776 ) ;
#917 = VERTEX_POINT ( 'NONE', #1166 ) ;
#918 = CARTESIAN_POINT ( 'NONE',  ( 1.000000000000000444, 0.6000000000000000888, 0.6250000000000000000 ) ) ;
#919 = SURFACE_STYLE_USAGE ( .BOTH. , #1187 ) ;
#920 = CARTESIAN_POINT ( 'NONE',  ( 1.000000000000000000, 0.6000000000000000888, -0.6250000000000002220 ) ) ;
#921 = ORIENTED_EDGE ( 'NONE', *, *, #64, .F. ) ;
#922 = DIRECTION ( 'NONE',  ( 1.734723475976806848E-16, 0.0000000000000000000, -1.000000000000000000 ) ) ;
#923 = DIRECTION ( 'NONE',  ( 1.000000000000000000, 2.710505431213760592E-16, 2.168404344971008868E-16 ) ) ;
#924 = ADVANCED_FACE ( 'NONE', ( #870 ), #43, .F. ) ;
#925 = DIRECTION ( 'NONE',  ( 1.734723475976807094E-16, 0.0000000000000000000, -1.000000000000000000 ) ) ;
#926 = ORIENTED_EDGE ( 'NONE', *, *, #426, .T. ) ;
#927 = AXIS2_PLACEMENT_3D ( 'NONE', #753, #197, #1130 ) ;
#928 = FACE_OUTER_BOUND ( 'NONE', #490, .T. ) ;
#929 = LINE ( 'NONE', #403, #1193 ) ;
#930 = VECTOR ( 'NONE', #334, 1000.000000000000000 ) ;
#931 = EDGE_CURVE ( 'NONE', #146, #22, #586, .T. ) ;
#932 = VECTOR ( 'NONE', #126, 1000.000000000000000 ) ;
#933 = CARTESIAN_POINT ( 'NONE',  ( -2.225999600319680916, 0.6000000000000004219, -0.6249999999999998890 ) ) ;
#934 = CARTESIAN_POINT ( 'NONE',  ( 1.850999600319680471, 0.5999999999999999778, 0.6250000000000006661 ) ) ;
#935 = ADVANCED_FACE ( 'NONE', ( #783 ), #224, .F. ) ;
#936 = VECTOR ( 'NONE', #156, 1000.000000000000000 ) ;
#937 = ORIENTED_EDGE ( 'NONE', *, *, #114, .T. ) ;
#938 = PLANE ( 'NONE',  #53 ) ;
#939 = ORIENTED_EDGE ( 'NONE', *, *, #4, .T. ) ;
#940 = PLANE ( 'NONE',  #927 ) ;
#941 = LINE ( 'NONE', #213, #85 ) ;
#942 = LINE ( 'NONE', #95, #1185 ) ;
#943 = EDGE_CURVE ( 'NONE', #1095, #152, #407, .T. ) ;
#944 = VERTEX_POINT ( 'NONE', #975 ) ;
#945 = PLANE ( 'NONE',  #980 ) ;
#946 = ORIENTED_EDGE ( 'NONE', *, *, #494, .F. ) ;
#947 = LINE ( 'NONE', #23, #956 ) ;
#948 = DIRECTION ( 'NONE',  ( 5.877471754111447174E-31, 2.168404344971012812E-15, -1.000000000000000000 ) ) ;
#949 = DIRECTION ( 'NONE',  ( -1.000000000000000000, 0.0000000000000000000, 2.168404344971008868E-16 ) ) ;
#950 =( GEOMETRIC_REPRESENTATION_CONTEXT ( 3 ) GLOBAL_UNCERTAINTY_ASSIGNED_CONTEXT ( ( #1150 ) ) GLOBAL_UNIT_ASSIGNED_CONTEXT ( ( #780, #766, #405 ) ) REPRESENTATION_CONTEXT ( 'NONE', 'WORKASPACE' ) );
#951 = ORIENTED_EDGE ( 'NONE', *, *, #943, .T. ) ;
#952 = DIRECTION ( 'NONE',  ( 1.000000000000000000, 0.0000000000000000000, 6.505213034913025618E-16 ) ) ;
#953 = VERTEX_POINT ( 'NONE', #124 ) ;
#954 = MECHANICAL_DESIGN_GEOMETRIC_PRESENTATION_REPRESENTATION (  '', ( #182 ), #288 ) ;
#955 = LINE ( 'NONE', #1042, #361 ) ;
#956 = VECTOR ( 'NONE', #1063, 1000.000000000000000 ) ;
#957 = CARTESIAN_POINT ( 'NONE',  ( -0.5999999999999999778, 0.5999999999999999778, -0.6249999999999998890 ) ) ;
#958 = DIRECTION ( 'NONE',  ( 0.0000000000000000000, 0.0000000000000000000, -1.000000000000000000 ) ) ;
#959 = VECTOR ( 'NONE', #812, 1000.000000000000000 ) ;
#960 = VERTEX_POINT ( 'NONE', #118 ) ;
#961 =( GEOMETRIC_REPRESENTATION_CONTEXT ( 3 ) GLOBAL_UNCERTAINTY_ASSIGNED_CONTEXT ( ( #16 ) ) GLOBAL_UNIT_ASSIGNED_CONTEXT ( ( #1105, #358, #550 ) ) REPRESENTATION_CONTEXT ( 'NONE', 'WORKASPACE' ) );
#962 = CARTESIAN_POINT ( 'NONE',  ( -0.8500000000000004219, -0.001000000000000132727, 0.4750000000000003109 ) ) ;
#963 = ORIENTED_EDGE ( 'NONE', *, *, #697, .T. ) ;
#964 = LINE ( 'NONE', #113, #1075 ) ;
#965 = DIRECTION ( 'NONE',  ( 1.000000000000000000, 0.0000000000000000000, -0.0000000000000000000 ) ) ;
#966 =( LENGTH_UNIT ( ) NAMED_UNIT ( * ) SI_UNIT ( .MILLI., .METRE. ) );
#967 = ORIENTED_EDGE ( 'NONE', *, *, #539, .F. ) ;
#968 = PLANE ( 'NONE',  #681 ) ;
#969 = ORIENTED_EDGE ( 'NONE', *, *, #444, .T. ) ;
#970 = CARTESIAN_POINT ( 'NONE',  ( 0.6000000000000003109, 0.5999999999999999778, 0.6250000000000001110 ) ) ;
#971 = ADVANCED_FACE ( 'NONE', ( #310 ), #878, .F. ) ;
#972 = DIRECTION ( 'NONE',  ( 2.710505431213760592E-16, 1.000000000000000000, 4.701977403289148390E-32 ) ) ;
#973 = PLANE ( 'NONE',  #1200 ) ;
#974 = ORIENTED_EDGE ( 'NONE', *, *, #377, .T. ) ;
#975 = CARTESIAN_POINT ( 'NONE',  ( -0.8500000000000001998, 0.5999999999999999778, 0.6250000000000003331 ) ) ;
#976 = ORIENTED_EDGE ( 'NONE', *, *, #347, .F. ) ;
#977 = CARTESIAN_POINT ( 'NONE',  ( 1.850999600319680471, 0.5500000000000000444, 0.6250000000000006661 ) ) ;
#978 = ADVANCED_FACE ( 'NONE', ( #699 ), #968, .F. ) ;
#979 = ORIENTED_EDGE ( 'NONE', *, *, #859, .T. ) ;
#980 = AXIS2_PLACEMENT_3D ( 'NONE', #464, #1127, #290 ) ;
#981 = DIRECTION ( 'NONE',  ( 2.710505431213760592E-16, 1.000000000000000000, 4.701977403289148390E-32 ) ) ;
#982 = ORIENTED_EDGE ( 'NONE', *, *, #1013, .F. ) ;
#983 = AXIS2_PLACEMENT_3D ( 'NONE', #416, #236, #433 ) ;
#984 =( GEOMETRIC_REPRESENTATION_CONTEXT ( 3 ) GLOBAL_UNCERTAINTY_ASSIGNED_CONTEXT ( ( #1223 ) ) GLOBAL_UNIT_ASSIGNED_CONTEXT ( ( #453, #261, #1112 ) ) REPRESENTATION_CONTEXT ( 'NONE', 'WORKASPACE' ) );
#985 = LINE ( 'NONE', #135, #1033 ) ;
#986 = CARTESIAN_POINT ( 'NONE',  ( 0.9500000000000001776, 0.04999999999999996808, -0.6250000000000001110 ) ) ;
#987 = ORIENTED_EDGE ( 'NONE', *, *, #64, .T. ) ;
#988 = EDGE_CURVE ( 'NONE', #811, #29, #1161, .T. ) ;
#989 = CARTESIAN_POINT ( 'NONE',  ( 0.5999999999999999778, -0.001000000000000457988, 0.4750000000000002554 ) ) ;
#990 = EDGE_LOOP ( 'NONE', ( #974, #611, #518, #394 ) ) ;
#991 = CARTESIAN_POINT ( 'NONE',  ( 0.9499999999999996225, 0.5500000000000000444, -0.6249999999999998890 ) ) ;
#992 = LINE ( 'NONE', #439, #880 ) ;
#993 = ORIENTED_EDGE ( 'NONE', *, *, #386, .F. ) ;
#994 = LINE ( 'NONE', #467, #1172 ) ;
#995 = ORIENTED_EDGE ( 'NONE', *, *, #220, .F. ) ;
#996 = VECTOR ( 'NONE', #1044, 1000.000000000000000 ) ;
#997 = EDGE_CURVE ( 'NONE', #605, #698, #324, .T. ) ;
#998 =( NAMED_UNIT ( * ) SI_UNIT ( $, .STERADIAN. ) SOLID_ANGLE_UNIT ( ) );
#999 = DIRECTION ( 'NONE',  ( 1.000000000000000000, 0.0000000000000000000, 1.734723475976807587E-16 ) ) ;
#1000 = DIRECTION ( 'NONE',  ( 1.734723475976807587E-16, 0.0000000000000000000, -1.000000000000000000 ) ) ;
#1001 = ORIENTED_EDGE ( 'NONE', *, *, #595, .T. ) ;
#1002 = VECTOR ( 'NONE', #640, 1000.000000000000000 ) ;
#1003 = CARTESIAN_POINT ( 'NONE',  ( -1.000000000000000444, 0.6000000000000004219, 0.6250000000000002220 ) ) ;
#1004 = VECTOR ( 'NONE', #18, 1000.000000000000000 ) ;
#1005 = FILL_AREA_STYLE ('',( #63 ) ) ;
#1006 = EDGE_CURVE ( 'NONE', #104, #1126, #805, .T. ) ;
#1007 = SHAPE_DEFINITION_REPRESENTATION ( #863, #524 ) ;
#1008 = FACE_OUTER_BOUND ( 'NONE', #751, .T. ) ;
#1009 = ADVANCED_FACE ( 'NONE', ( #526 ), #617, .F. ) ;
#1010 = ORIENTED_EDGE ( 'NONE', *, *, #752, .F. ) ;
#1011 = PLANE ( 'NONE',  #313 ) ;
#1012 = FILL_AREA_STYLE_COLOUR ( '', #1059 ) ;
#1013 = EDGE_CURVE ( 'NONE', #482, #520, #718, .T. ) ;
#1014 = VERTEX_POINT ( 'NONE', #741 ) ;
#1015 = CARTESIAN_POINT ( 'NONE',  ( 0.5999999999999998668, 0.5999999999999999778, -0.6249999999999996669 ) ) ;
#1016 = AXIS2_PLACEMENT_3D ( 'NONE', #298, #846, #952 ) ;
#1017 = CARTESIAN_POINT ( 'NONE',  ( -1.000000000000000222, 0.0000000000000000000, 0.6250000000000002220 ) ) ;
#1018 = CARTESIAN_POINT ( 'NONE',  ( 1.000000000000000444, 0.0000000000000000000, 0.6250000000000000000 ) ) ;
#1019 = ORIENTED_EDGE ( 'NONE', *, *, #208, .F. ) ;
#1020 = EDGE_CURVE ( 'NONE', #1039, #672, #994, .T. ) ;
#1021 = LINE ( 'NONE', #365, #722 ) ;
#1022 = CARTESIAN_POINT ( 'NONE',  ( -0.9500000000000000666, 0.5500000000000001554, 0.6250000000000001110 ) ) ;
#1023 = CARTESIAN_POINT ( 'NONE',  ( -2.225999600319681360, 0.6000000000000004219, 0.6250000000000002220 ) ) ;
#1024 = ORIENTED_EDGE ( 'NONE', *, *, #728, .F. ) ;
#1025 = FACE_OUTER_BOUND ( 'NONE', #250, .T. ) ;
#1026 = ADVANCED_FACE ( 'NONE', ( #555 ), #172, .F. ) ;
#1027 = DIRECTION ( 'NONE',  ( 0.0000000000000000000, -1.000000000000000000, 0.0000000000000000000 ) ) ;
#1028 = CARTESIAN_POINT ( 'NONE',  ( -0.6000000000000001998, 0.5500000000000000444, 0.6250000000000002220 ) ) ;
#1029 = EDGE_LOOP ( 'NONE', ( #348, #1061, #598, #1147 ) ) ;
#1030 = DIRECTION ( 'NONE',  ( -2.168404344971008868E-16, 1.057944915740058538E-31, -1.000000000000000000 ) ) ;
#1031 = ORIENTED_EDGE ( 'NONE', *, *, #654, .F. ) ;
#1032 = CARTESIAN_POINT ( 'NONE',  ( -1.000000000000000222, -5.877471754111438635E-32, -0.6250000000000002220 ) ) ;
#1033 = VECTOR ( 'NONE', #516, 1000.000000000000000 ) ;
#1034 = EDGE_CURVE ( 'NONE', #1205, #525, #1098, .T. ) ;
#1035 = CARTESIAN_POINT ( 'NONE',  ( 0.8499999999999999778, 0.5999999999999995337, -0.6249999999999998890 ) ) ;
#1036 = LINE ( 'NONE', #1125, #695 ) ;
#1037 = VECTOR ( 'NONE', #836, 1000.000000000000000 ) ;
#1038 = AXIS2_PLACEMENT_3D ( 'NONE', #387, #488, #842 ) ;
#1039 = VERTEX_POINT ( 'NONE', #713 ) ;
#1040 = DIRECTION ( 'NONE',  ( 3.761581922631326594E-31, 1.000000000000000000, 6.525304467998535223E-47 ) ) ;
#1041 = VERTEX_POINT ( 'NONE', #151 ) ;
#1042 = CARTESIAN_POINT ( 'NONE',  ( -0.9500000000000000666, 0.04999999999999999584, 0.6250000000000002220 ) ) ;
#1043 = DIRECTION ( 'NONE',  ( -1.734723475976806848E-16, -0.0000000000000000000, 1.000000000000000000 ) ) ;
#1044 = DIRECTION ( 'NONE',  ( -0.0000000000000000000, 4.701977403289150032E-32, 1.000000000000000000 ) ) ;
#1045 = EDGE_CURVE ( 'NONE', #408, #857, #532, .T. ) ;
#1046 = ORIENTED_EDGE ( 'NONE', *, *, #626, .T. ) ;
#1047 = DIRECTION ( 'NONE',  ( 1.000000000000000000, 0.0000000000000000000, -1.141265444721583757E-16 ) ) ;
#1048 = ORIENTED_EDGE ( 'NONE', *, *, #1086, .T. ) ;
#1049 = DIRECTION ( 'NONE',  ( -1.000000000000000000, 2.710505431213760592E-16, 0.0000000000000000000 ) ) ;
#1050 = DIRECTION ( 'NONE',  ( -1.000000000000000000, 3.761581922631326594E-31, -1.734723475976807094E-16 ) ) ;
#1051 = MECHANICAL_DESIGN_GEOMETRIC_PRESENTATION_REPRESENTATION (  '', ( #268 ), #523 ) ;
#1052 = ORIENTED_EDGE ( 'NONE', *, *, #595, .F. ) ;
#1053 = CARTESIAN_POINT ( 'NONE',  ( 2.225999600319681360, 0.6000000000000004219, 0.6249999999999996669 ) ) ;
#1054 = VERTEX_POINT ( 'NONE', #903 ) ;
#1055 = DIRECTION ( 'NONE',  ( 1.000000000000000000, -2.710505431213760592E-16, -0.0000000000000000000 ) ) ;
#1056 = CARTESIAN_POINT ( 'NONE',  ( -0.8500000000000003109, 0.5500000000000001554, 0.4750000000000003109 ) ) ;
#1057 = AXIS2_PLACEMENT_3D ( 'NONE', #1028, #561, #925 ) ;
#1058 = ORIENTED_EDGE ( 'NONE', *, *, #26, .F. ) ;
#1059 = COLOUR_RGB ( '',0.09803921568627450844, 0.09803921568627450844, 0.09803921568627450844 ) ;
#1060 = DIRECTION ( 'NONE',  ( 6.505213034913025618E-16, -2.233439266562345827E-31, 1.000000000000000000 ) ) ;
#1061 = ORIENTED_EDGE ( 'NONE', *, *, #690, .F. ) ;
#1062 = EDGE_CURVE ( 'NONE', #1109, #811, #810, .T. ) ;
#1063 = DIRECTION ( 'NONE',  ( 1.000000000000000000, -2.710505431213760592E-16, -0.0000000000000000000 ) ) ;
#1064 = DIRECTION ( 'NONE',  ( -1.734723475976807587E-16, 0.0000000000000000000, 1.000000000000000000 ) ) ;
#1065 = APPLICATION_PROTOCOL_DEFINITION ( 'draft international standard', 'automotive_design', 1998, #535 ) ;
#1066 = ORIENTED_EDGE ( 'NONE', *, *, #895, .F. ) ;
#1067 = CARTESIAN_POINT ( 'NONE',  ( 0.5999999999999997558, -0.001000000000000457988, -0.4749999999999998113 ) ) ;
#1068 = ORIENTED_EDGE ( 'NONE', *, *, #602, .T. ) ;
#1069 = ADVANCED_FACE ( 'NONE', ( #80 ), #183, .F. ) ;
#1070 = DIRECTION ( 'NONE',  ( 1.000000000000000000, -0.0000000000000000000, -1.141265444721583757E-16 ) ) ;
#1071 = ORIENTED_EDGE ( 'NONE', *, *, #418, .T. ) ;
#1072 = DIRECTION ( 'NONE',  ( 1.000000000000000000, 0.0000000000000000000, 0.0000000000000000000 ) ) ;
#1073 = ORIENTED_EDGE ( 'NONE', *, *, #253, .F. ) ;
#1074 = LINE ( 'NONE', #233, #32 ) ;
#1075 = VECTOR ( 'NONE', #835, 1000.000000000000000 ) ;
#1076 = PLANE ( 'NONE',  #983 ) ;
#1077 = EDGE_CURVE ( 'NONE', #719, #944, #60, .T. ) ;
#1078 = AXIS2_PLACEMENT_3D ( 'NONE', #614, #701, #312 ) ;
#1079 = CARTESIAN_POINT ( 'NONE',  ( 0.6000000000000000888, -5.877471754111438635E-32, -0.6250000000000003331 ) ) ;
#1080 = AXIS2_PLACEMENT_3D ( 'NONE', #934, #1000, #355 ) ;
#1081 = DIRECTION ( 'NONE',  ( 2.710505431213760592E-16, 1.000000000000000000, 4.701977403289148390E-32 ) ) ;
#1082 = ORIENTED_EDGE ( 'NONE', *, *, #720, .T. ) ;
#1083 = VECTOR ( 'NONE', #569, 1000.000000000000000 ) ;
#1084 = AXIS2_PLACEMENT_3D ( 'NONE', #589, #1049, #396 ) ;
#1085 = FACE_OUTER_BOUND ( 'NONE', #210, .T. ) ;
#1086 = EDGE_CURVE ( 'NONE', #758, #360, #551, .T. ) ;
#1087 = DIRECTION ( 'NONE',  ( 0.0000000000000000000, -1.000000000000000000, 0.0000000000000000000 ) ) ;
#1088 = DIRECTION ( 'NONE',  ( 2.710505431213760592E-16, 1.000000000000000000, 0.0000000000000000000 ) ) ;
#1089 = ORIENTED_EDGE ( 'NONE', *, *, #885, .T. ) ;
#1090 = PLANE ( 'NONE',  #816 ) ;
#1091 = LINE ( 'NONE', #330, #546 ) ;
#1092 = DIRECTION ( 'NONE',  ( 0.0000000000000000000, -4.701977403289149484E-32, -1.000000000000000000 ) ) ;
#1093 = VERTEX_POINT ( 'NONE', #837 ) ;
#1094 = DIRECTION ( 'NONE',  ( -2.951412382729594902E-47, -1.088878977603803073E-31, 1.000000000000000000 ) ) ;
#1095 = VERTEX_POINT ( 'NONE', #920 ) ;
#1096 = CARTESIAN_POINT ( 'NONE',  ( -0.6000000000000004219, -0.001000000000000132727, 0.4750000000000002554 ) ) ;
#1097 = AXIS2_PLACEMENT_3D ( 'NONE', #269, #824, #62 ) ;
#1098 = LINE ( 'NONE', #382, #639 ) ;
#1099 = VERTEX_POINT ( 'NONE', #77 ) ;
#1100 = DIRECTION ( 'NONE',  ( 1.000000000000000000, 0.0000000000000000000, 0.0000000000000000000 ) ) ;
#1101 = ADVANCED_FACE ( 'NONE', ( #251 ), #623, .F. ) ;
#1102 = ORIENTED_EDGE ( 'NONE', *, *, #1169, .F. ) ;
#1103 = CARTESIAN_POINT ( 'NONE',  ( -0.9500000000000000666, 0.5500000000000000444, 0.6250000000000003331 ) ) ;
#1104 = EDGE_CURVE ( 'NONE', #1099, #916, #645, .T. ) ;
#1105 =( LENGTH_UNIT ( ) NAMED_UNIT ( * ) SI_UNIT ( .MILLI., .METRE. ) );
#1106 = ORIENTED_EDGE ( 'NONE', *, *, #1218, .T. ) ;
#1107 = DIRECTION ( 'NONE',  ( -1.000000000000000000, -0.0000000000000000000, -0.0000000000000000000 ) ) ;
#1108 = CARTESIAN_POINT ( 'NONE',  ( -0.8499999999999999778, 0.5999999999999999778, -0.4749999999999999778 ) ) ;
#1109 = VERTEX_POINT ( 'NONE', #1216 ) ;
#1110 = LINE ( 'NONE', #1103, #627 ) ;
#1111 = VECTOR ( 'NONE', #168, 1000.000000000000000 ) ;
#1112 =( NAMED_UNIT ( * ) SI_UNIT ( $, .STERADIAN. ) SOLID_ANGLE_UNIT ( ) );
#1113 = FACE_OUTER_BOUND ( 'NONE', #218, .T. ) ;
#1114 = EDGE_CURVE ( 'NONE', #637, #871, #369, .T. ) ;
#1115 = ORIENTED_EDGE ( 'NONE', *, *, #363, .F. ) ;
#1116 = CARTESIAN_POINT ( 'NONE',  ( 1.850999600319680471, 0.5500000000000000444, 0.6250000000000006661 ) ) ;
#1117 = CARTESIAN_POINT ( 'NONE',  ( -0.6000000000000001998, 0.5999999999999999778, 0.6250000000000002220 ) ) ;
#1118 = DIRECTION ( 'NONE',  ( -2.282530889443167022E-16, 0.0000000000000000000, -1.000000000000000000 ) ) ;
#1119 = ORIENTED_EDGE ( 'NONE', *, *, #632, .F. ) ;
#1120 = DIRECTION ( 'NONE',  ( -1.000000000000000000, 3.761581922631326594E-31, 0.0000000000000000000 ) ) ;
#1121 = ORIENTED_EDGE ( 'NONE', *, *, #931, .T. ) ;
#1122 = LINE ( 'NONE', #284, #336 ) ;
#1123 = VECTOR ( 'NONE', #296, 1000.000000000000000 ) ;
#1124 = PLANE ( 'NONE',  #37 ) ;
#1125 = CARTESIAN_POINT ( 'NONE',  ( -0.6000000000000001998, 0.5500000000000000444, 0.6250000000000002220 ) ) ;
#1126 = VERTEX_POINT ( 'NONE', #736 ) ;
#1127 = DIRECTION ( 'NONE',  ( 0.0000000000000000000, -1.000000000000000000, 0.0000000000000000000 ) ) ;
#1128 = EDGE_LOOP ( 'NONE', ( #1167, #1031, #303, #823 ) ) ;
#1129 = AXIS2_PLACEMENT_3D ( 'NONE', #970, #409, #696 ) ;
#1130 = DIRECTION ( 'NONE',  ( -4.701977403289150032E-32, 0.0000000000000000000, -1.000000000000000000 ) ) ;
#1131 = ADVANCED_FACE ( 'NONE', ( #1113 ), #462, .T. ) ;
#1132 = AXIS2_PLACEMENT_3D ( 'NONE', #1053, #186, #552 ) ;
#1133 = PLANE ( 'NONE',  #629 ) ;
#1134 = LINE ( 'NONE', #874, #354 ) ;
#1135 = VERTEX_POINT ( 'NONE', #570 ) ;
#1136 = CARTESIAN_POINT ( 'NONE',  ( 0.9499999999999996225, 0.5500000000000000444, -0.6249999999999998890 ) ) ;
#1137 = ORIENTED_EDGE ( 'NONE', *, *, #294, .T. ) ;
#1138 = PLANE ( 'NONE',  #661 ) ;
#1139 = PRODUCT_RELATED_PRODUCT_CATEGORY ( 'part', '', ( #337 ) ) ;
#1140 = LINE ( 'NONE', #301, #509 ) ;
#1141 = ORIENTED_EDGE ( 'NONE', *, *, #1020, .F. ) ;
#1142 = CARTESIAN_POINT ( 'NONE',  ( -2.225999600319680916, 0.5500000000000004885, -0.6249999999999998890 ) ) ;
#1143 = VERTEX_POINT ( 'NONE', #747 ) ;
#1144 = CARTESIAN_POINT ( 'NONE',  ( -2.225999600319681360, 0.6000000000000004219, 0.6250000000000002220 ) ) ;
#1145 = CARTESIAN_POINT ( 'NONE',  ( 0.6000000000000003109, 0.5999999999999999778, 0.6250000000000001110 ) ) ;
#1146 = ADVANCED_FACE ( 'NONE', ( #678 ), #973, .F. ) ;
#1147 = ORIENTED_EDGE ( 'NONE', *, *, #906, .T. ) ;
#1148 = EDGE_LOOP ( 'NONE', ( #714, #1046, #700, #1048 ) ) ;
#1149 = PLANE ( 'NONE',  #1078 ) ;
#1150 = UNCERTAINTY_MEASURE_WITH_UNIT (LENGTH_MEASURE( 1.000000000000000082E-05 ), #780, 'distance_accuracy_value', 'NONE');
#1151 = DIRECTION ( 'NONE',  ( 1.073240866447125828E-47, -1.000000000000000000, 4.701977403289150032E-32 ) ) ;
#1152 = PRESENTATION_STYLE_ASSIGNMENT (( #214 ) ) ;
#1153 = AXIS2_PLACEMENT_3D ( 'NONE', #750, #840, #373 ) ;
#1154 = ORIENTED_EDGE ( 'NONE', *, *, #626, .F. ) ;
#1155 = VECTOR ( 'NONE', #198, 1000.000000000000000 ) ;
#1156 = EDGE_CURVE ( 'NONE', #624, #871, #1036, .T. ) ;
#1157 = DIRECTION ( 'NONE',  ( 1.000000000000000000, -3.761581922631326594E-31, 0.0000000000000000000 ) ) ;
#1158 = EDGE_LOOP ( 'NONE', ( #504, #402, #173, #742 ) ) ;
#1159 = DIRECTION ( 'NONE',  ( -1.000000000000000000, 0.0000000000000000000, 0.0000000000000000000 ) ) ;
#1160 = CARTESIAN_POINT ( 'NONE',  ( -0.9500000000000000666, 0.05000000000000021094, 0.6250000000000001110 ) ) ;
#1161 = LINE ( 'NONE', #514, #415 ) ;
#1162 = EDGE_LOOP ( 'NONE', ( #252, #926, #244, #865, #1184, #939, #1073, #995 ) ) ;
#1163 = FACE_OUTER_BOUND ( 'NONE', #61, .T. ) ;
#1164 = EDGE_CURVE ( 'NONE', #1041, #325, #1134, .T. ) ;
#1165 = CARTESIAN_POINT ( 'NONE',  ( 1.000000000000000000, 0.6000000000000000888, -0.6250000000000002220 ) ) ;
#1166 = CARTESIAN_POINT ( 'NONE',  ( 0.5999999999999999778, 0.5500000000000000444, -0.4749999999999997558 ) ) ;
#1167 = ORIENTED_EDGE ( 'NONE', *, *, #832, .F. ) ;
#1168 = PLANE ( 'NONE',  #1129 ) ;
#1169 = EDGE_CURVE ( 'NONE', #345, #146, #34, .T. ) ;
#1170 = DIRECTION ( 'NONE',  ( -1.000000000000000000, 3.761581922631326594E-31, -1.734723475976807094E-16 ) ) ;
#1171 = DIRECTION ( 'NONE',  ( -1.000000000000000000, 0.0000000000000000000, -2.168404344971008868E-16 ) ) ;
#1172 = VECTOR ( 'NONE', #246, 1000.000000000000000 ) ;
#1173 = VECTOR ( 'NONE', #711, 1000.000000000000000 ) ;
#1174 = DIRECTION ( 'NONE',  ( -1.000000000000000000, -2.710505431213760592E-16, 6.505213034913025618E-16 ) ) ;
#1175 = ORIENTED_EDGE ( 'NONE', *, *, #76, .F. ) ;
#1176 = VECTOR ( 'NONE', #867, 1000.000000000000000 ) ;
#1177 = CARTESIAN_POINT ( 'NONE',  ( 0.6000000000000000888, 0.04999999999999991257, -0.6250000000000000000 ) ) ;
#1178 = DIRECTION ( 'NONE',  ( 0.0000000000000000000, -4.701977403289150032E-32, -1.000000000000000000 ) ) ;
#1179 = EDGE_LOOP ( 'NONE', ( #556, #20, #600, #55 ) ) ;
#1180 = PLANE ( 'NONE',  #1097 ) ;
#1181 =( LENGTH_UNIT ( ) NAMED_UNIT ( * ) SI_UNIT ( .MILLI., .METRE. ) );
#1182 = EDGE_CURVE ( 'NONE', #916, #1205, #656, .T. ) ;
#1183 = CARTESIAN_POINT ( 'NONE',  ( 0.9500000000000001776, 0.5500000000000001554, -0.6250000000000001110 ) ) ;
#1184 = ORIENTED_EDGE ( 'NONE', *, *, #539, .T. ) ;
#1185 = VECTOR ( 'NONE', #474, 1000.000000000000000 ) ;
#1186 = CARTESIAN_POINT ( 'NONE',  ( -0.9500000000000000666, 0.04999999999999999584, -0.6250000000000000000 ) ) ;
#1187 = SURFACE_SIDE_STYLE ('',( #1208 ) ) ;
#1188 = VECTOR ( 'NONE', #730, 1000.000000000000000 ) ;
#1189 = EDGE_LOOP ( 'NONE', ( #273, #993, #475, #749 ) ) ;
#1190 = EDGE_CURVE ( 'NONE', #1099, #1095, #942, .T. ) ;
#1191 = LINE ( 'NONE', #274, #899 ) ;
#1192 = VECTOR ( 'NONE', #530, 1000.000000000000000 ) ;
#1193 = VECTOR ( 'NONE', #740, 1000.000000000000000 ) ;
#1194 = ORIENTED_EDGE ( 'NONE', *, *, #1164, .F. ) ;
#1195 = DIRECTION ( 'NONE',  ( 1.000000000000000000, 0.0000000000000000000, -1.734723475976806848E-16 ) ) ;
#1196 = DIRECTION ( 'NONE',  ( -1.000000000000000000, 0.0000000000000000000, 2.282530889443167515E-16 ) ) ;
#1197 = EDGE_CURVE ( 'NONE', #527, #1143, #844, .T. ) ;
#1198 = ORIENTED_EDGE ( 'NONE', *, *, #456, .F. ) ;
#1199 = DIRECTION ( 'NONE',  ( 0.0000000000000000000, -1.000000000000000000, 0.0000000000000000000 ) ) ;
#1200 = AXIS2_PLACEMENT_3D ( 'NONE', #502, #10, #685 ) ;
#1201 = CARTESIAN_POINT ( 'NONE',  ( 0.9500000000000001776, 0.04999999999999991257, -0.6250000000000001110 ) ) ;
#1202 = EDGE_CURVE ( 'NONE', #1217, #637, #25, .T. ) ;
#1203 = DIRECTION ( 'NONE',  ( -1.000000000000000000, -2.710505431213760592E-16, 2.282530889443167515E-16 ) ) ;
#1204 = DIRECTION ( 'NONE',  ( -0.0000000000000000000, -0.0000000000000000000, 1.000000000000000000 ) ) ;
#1205 = VERTEX_POINT ( 'NONE', #109 ) ;
#1206 = DIRECTION ( 'NONE',  ( 1.000000000000000000, 2.710505431213760592E-16, -2.282530889443167515E-16 ) ) ;
#1207 = VECTOR ( 'NONE', #687, 1000.000000000000000 ) ;
#1208 = SURFACE_STYLE_FILL_AREA ( #1005 ) ;
#1209 = STYLED_ITEM ( 'NONE', ( #825 ), #329 ) ;
#1210 = DIRECTION ( 'NONE',  ( -1.000000000000000000, 0.0000000000000000000, 2.282530889443167022E-16 ) ) ;
#1211 = EDGE_CURVE ( 'NONE', #907, #960, #756, .T. ) ;
#1212 = VERTEX_POINT ( 'NONE', #199 ) ;
#1213 = FACE_OUTER_BOUND ( 'NONE', #536, .T. ) ;
#1214 = LINE ( 'NONE', #380, #528 ) ;
#1215 = LINE ( 'NONE', #87, #817 ) ;
#1216 = CARTESIAN_POINT ( 'NONE',  ( 0.8499999999999998668, 0.5500000000000000444, -0.6249999999999998890 ) ) ;
#1217 = VERTEX_POINT ( 'NONE', #577 ) ;
#1218 = EDGE_CURVE ( 'NONE', #1093, #22, #851, .T. ) ;
#1219 = CARTESIAN_POINT ( 'NONE',  ( 2.225999600319680916, 0.5500000000000004885, -0.6250000000000004441 ) ) ;
#1220 = ORIENTED_EDGE ( 'NONE', *, *, #1211, .F. ) ;
#1221 = CARTESIAN_POINT ( 'NONE',  ( -0.6000000000000001998, -5.877471754111438635E-32, -0.6250000000000002220 ) ) ;
#1222 = CARTESIAN_POINT ( 'NONE',  ( 0.6000000000000003109, 0.5999999999999999778, 0.6250000000000006661 ) ) ;
#1223 = UNCERTAINTY_MEASURE_WITH_UNIT (LENGTH_MEASURE( 1.000000000000000082E-05 ), #453, 'distance_accuracy_value', 'NONE');
#1224 = CARTESIAN_POINT ( 'NONE',  ( 1.000000000000000666, -1.626303258728256651E-16, 0.6250000000000000000 ) ) ;
#1225 = CARTESIAN_POINT ( 'NONE',  ( 0.6000000000000003109, 0.5500000000000000444, 0.6250000000000012212 ) ) ;
ENDSEC;
END-ISO-10303-21;
